<svg xmlns="http://www.w3.org/2000/svg" viewBox="0 0 14.552 17.651"><g transform="translate(-49 -337)"><g transform="translate(4.056 337)"><g transform="translate(44.944)"><path class="a" d="M59.39,4.373,55.122.106A.36.36,0,0,0,54.868,0H46.695a1.753,1.753,0,0,0-1.751,1.751V15.9a1.753,1.753,0,0,0,1.751,1.751h11.05A1.753,1.753,0,0,0,59.5,15.9V4.628A.361.361,0,0,0,59.39,4.373ZM55.228,1.23l3.038,3.038H56.258a1.03,1.03,0,0,1-1.03-1.03ZM58.775,15.9a1.031,1.031,0,0,1-1.03,1.03H46.695a1.031,1.031,0,0,1-1.03-1.03V1.751A1.031,1.031,0,0,1,46.695.72h7.813V3.238a1.751,1.751,0,0,0,1.751,1.751h2.517V15.9Z" transform="translate(-44.944)"/></g><g transform="translate(47.944 11.825)"><g transform="translate(0 0)"><path class="a" d="M132.392,256h-7.4a.363.363,0,0,0,0,.72h7.4a.363.363,0,0,0,0-.72Z" transform="translate(-124.67 -256)"/></g></g><g transform="translate(47.944 8.179)"><g transform="translate(0 0)"><path class="a" d="M132.392,208.255h-7.4a.363.363,0,0,0,0,.72h7.4a.363.363,0,0,0,0-.72Z" transform="translate(-124.67 -208.255)"/></g></g></g></g></svg>