<svg xmlns="http://www.w3.org/2000/svg" viewBox="0 0 17.353 14.461"><g transform="translate(-47.601 -388)"><g transform="translate(47.601 345.334)"><g transform="translate(0 42.666)"><path class="a" d="M15.907,44.835H12.292v-.723a1.448,1.448,0,0,0-1.446-1.446H6.508a1.448,1.448,0,0,0-1.446,1.446v.723H1.446A1.448,1.448,0,0,0,0,46.281v9.4a1.448,1.448,0,0,0,1.446,1.446H15.907a1.448,1.448,0,0,0,1.446-1.446v-9.4A1.448,1.448,0,0,0,15.907,44.835ZM5.784,44.112a.724.724,0,0,1,.723-.723h4.338a.724.724,0,0,1,.723.723v.723H5.784ZM16.63,55.681a.724.724,0,0,1-.723.723H1.446a.724.724,0,0,1-.723-.723V50.419a1.43,1.43,0,0,0,.723.2H7.231V51.7a.361.361,0,0,0,.362.362H9.761a.361.361,0,0,0,.362-.362V50.62h5.784a1.429,1.429,0,0,0,.723-.2v5.263ZM7.954,51.343V49.9H9.4v1.446Zm8.677-2.169a.724.724,0,0,1-.723.723H10.123v-.362a.361.361,0,0,0-.362-.362H7.592a.361.361,0,0,0-.362.362V49.9H1.446a.724.724,0,0,1-.723-.723V46.281a.724.724,0,0,1,.723-.723H15.907a.724.724,0,0,1,.723.723Z" transform="translate(0 -42.666)"/></g></g></g></svg>