<svg xmlns="http://www.w3.org/2000/svg" viewBox="0 0 14.893 17.3"><path class="a" d="M9.275,0A2.065,2.065,0,0,0,7.945.51,1.555,1.555,0,0,0,7.492,1.7h0V15.583A1.534,1.534,0,0,0,9.112,17H22.08V0ZM8.14,15.583V2.833a6.437,6.437,0,0,0,1.853.283V16.433C9.442,16.433,8.14,16.037,8.14,15.583ZM15.207,3.117h6.16l.065,13.317H10.641V3.117h4.566ZM13,7.395,10.863,2.55H9.339a1.16,1.16,0,0,1-1.2-.878A.871.871,0,0,1,8.432.907a1.163,1.163,0,0,1,.843-.34H21.432V2.55H10.863Z" transform="translate(-7.337 0.15)"/></svg>