<svg xmlns="http://www.w3.org/2000/svg" viewBox="0 0 14 16.78">
  <g transform="translate(-49 -187)">
    <g transform="translate(49 187)">
      <path d="M91.073,8.083A3.911,3.911,0,0,0,93.931,6.9a3.911,3.911,0,0,0,1.184-2.858,3.911,3.911,0,0,0-1.184-2.858,4.041,4.041,0,0,0-5.715,0,3.911,3.911,0,0,0-1.184,2.857A3.911,3.911,0,0,0,88.216,6.9,3.912,3.912,0,0,0,91.073,8.083Zm-2.162-6.2a3.057,3.057,0,0,1,4.325,0,2.922,2.922,0,0,1,.9,2.162,2.922,2.922,0,0,1-.9,2.162,3.057,3.057,0,0,1-4.325,0,2.921,2.921,0,0,1-.9-2.162A2.922,2.922,0,0,1,88.911,1.879Zm0,0" transform="translate(-84.179 0)"/>
      <path d="M13.966,252.114a9.983,9.983,0,0,0-.136-1.06,8.356,8.356,0,0,0-.261-1.066,5.267,5.267,0,0,0-.438-.994,3.749,3.749,0,0,0-.661-.861,2.914,2.914,0,0,0-.949-.6,3.281,3.281,0,0,0-1.212-.219,1.23,1.23,0,0,0-.657.279c-.2.128-.427.277-.684.441a3.92,3.92,0,0,1-.885.39,3.437,3.437,0,0,1-2.166,0,3.91,3.91,0,0,1-.885-.39c-.255-.163-.485-.311-.685-.441a1.229,1.229,0,0,0-.657-.279,3.277,3.277,0,0,0-1.212.22,2.91,2.91,0,0,0-.949.6,3.748,3.748,0,0,0-.661.861,5.278,5.278,0,0,0-.438.994,8.378,8.378,0,0,0-.261,1.066,9.913,9.913,0,0,0-.136,1.061c-.022.32-.034.654-.034.991a2.786,2.786,0,0,0,.828,2.108,2.979,2.979,0,0,0,2.132.778h8.08a2.979,2.979,0,0,0,2.132-.778A2.785,2.785,0,0,0,14,253.105c0-.338-.012-.672-.034-.991ZM12.494,254.5a2.005,2.005,0,0,1-1.454.507H2.96a2.006,2.006,0,0,1-1.454-.507,1.82,1.82,0,0,1-.522-1.4c0-.314.01-.625.031-.923a8.942,8.942,0,0,1,.123-.955,7.387,7.387,0,0,1,.229-.94,4.3,4.3,0,0,1,.357-.808,2.778,2.778,0,0,1,.486-.636,1.932,1.932,0,0,1,.632-.393,2.263,2.263,0,0,1,.774-.149c.034.018.1.053.2.118.2.132.435.282.693.447a4.875,4.875,0,0,0,1.111.5,4.421,4.421,0,0,0,2.771,0,4.879,4.879,0,0,0,1.112-.5c.264-.168.49-.314.692-.446.1-.065.161-.1.2-.118a2.264,2.264,0,0,1,.775.149,1.935,1.935,0,0,1,.631.393,2.771,2.771,0,0,1,.486.637,4.28,4.28,0,0,1,.357.808,7.368,7.368,0,0,1,.229.94,9.019,9.019,0,0,1,.123.955h0c.021.3.031.607.031.923a1.819,1.819,0,0,1-.522,1.4Zm0,0" transform="translate(0 -239.21)"/>
    </g>
  </g>
</svg>
