<svg xmlns="http://www.w3.org/2000/svg" viewBox="0 0 14.484 17"><g transform="translate(-7.4 0.1)"><path class="a" d="M45.786,28.253h0c.018-.018.036-.036.036-.054s.018-.018.018-.036.018-.018.018-.036.018-.018.018-.036a.017.017,0,0,1,.018-.018c0-.018.018-.036.018-.054V28c0-.018.018-.036.018-.071h0a.647.647,0,0,0-.2-.625l-3.448-3.43a.695.695,0,0,0-.983.983l2.287,2.269H36.5a.7.7,0,1,0,0,1.393h7.092L41.3,30.79a.7.7,0,0,0,0,.983.647.647,0,0,0,.482.2.69.69,0,0,0,.482-.2l3.448-3.448Z" transform="translate(-24.063 -19.911)"/><path class="a" d="M13.742,15.676H9.83A1.1,1.1,0,0,1,8.7,14.6V2.212A1.1,1.1,0,0,1,9.83,1.141h3.93A.622.622,0,0,0,14.4.495.651.651,0,0,0,13.742-.1H9.169A1.72,1.72,0,0,0,7.4,1.583V15.217A1.72,1.72,0,0,0,9.169,16.9H13.76a.622.622,0,0,0,.643-.646A.65.65,0,0,0,13.742,15.676Z"/></g></svg>