<svg xmlns="http://www.w3.org/2000/svg" viewBox="0 0 14.462 16.462"><g transform="translate(-49.478 -437)"><g transform="translate(49.478 437)"><path class="a" d="M12.6,1.13H11.3V.452a.452.452,0,0,0-.9,0V1.13H4.067V.452a.452.452,0,0,0-.9,0V1.13h-1.3A1.866,1.866,0,0,0,0,2.994V14.6a1.866,1.866,0,0,0,1.864,1.864H12.6A1.866,1.866,0,0,0,14.462,14.6V2.994A1.866,1.866,0,0,0,12.6,1.13Zm-10.734.9h1.3v.452a.452.452,0,0,0,.9,0V2.034h6.327v.452a.452.452,0,1,0,.9,0V2.034h1.3a.961.961,0,0,1,.96.96V4.067H.9V2.994A.961.961,0,0,1,1.864,2.034ZM12.6,15.558H1.864A.961.961,0,0,1,.9,14.6V4.971H13.558V14.6A.961.961,0,0,1,12.6,15.558Z"/></g></g></svg>