<svg xmlns="http://www.w3.org/2000/svg" viewBox="0 0 14 15.929">
  <g transform="translate(-31)">
    <g transform="translate(31)">
      <g>
        <path d="M40.659,10.524c1.7-2.66,1.482-2.328,1.531-2.4a5.1,5.1,0,0,0,.943-2.963,5.133,5.133,0,1,0-9.3,3l1.5,2.359c-1.608.247-4.341.983-4.341,2.6,0,.591.386,1.433,2.223,2.089A14.729,14.729,0,0,0,38,15.929c3.361,0,7-.948,7-2.8C45,11.507,42.27,10.772,40.659,10.524ZM34.617,7.652,34.6,7.628a4.2,4.2,0,1,1,6.833-.047c-.045.059.19-.305-3.433,5.38ZM38,15c-3.671,0-6.067-1.079-6.067-1.867,0-.529,1.231-1.4,3.959-1.739l1.714,2.69a.467.467,0,0,0,.787,0l1.714-2.69c2.728.339,3.959,1.21,3.959,1.739C44.067,13.91,41.692,15,38,15Z" transform="translate(-31)" />
      </g>
    </g>
    <g transform="translate(35.667 2.831)">
      <g>
        <path d="M183.333,91a2.333,2.333,0,1,0,2.333,2.333A2.336,2.336,0,0,0,183.333,91Zm0,3.733a1.4,1.4,0,1,1,1.4-1.4A1.4,1.4,0,0,1,183.333,94.733Z" transform="translate(-181 -91)" />
      </g>
    </g>
  </g>
</svg>
