<svg xmlns="http://www.w3.org/2000/svg" viewBox="0 0 15.346 15.346"><g transform="translate(-11 -11)"><g transform="translate(11 11)"><path class="a" d="M72.49,105.376a.634.634,0,0,0,.889-.166l2.418-2.533,2.559,2.468a.632.632,0,0,0,.507.175.65.65,0,0,0,.463-.269l3.244-5.085L82.724,102a.639.639,0,1,0,1.275-.1l-.269-3.58a.637.637,0,0,0-.686-.589l-3.58.269a.639.639,0,1,0,.1,1.275l2.036-.153-2.89,4.575-2.565-2.474a.625.625,0,0,0-.507-.175.636.636,0,0,0-.464.276l-2.895,3.161A.65.65,0,0,0,72.49,105.376Z" transform="translate(-69.326 -95.018)"/><path class="a" d="M25.707,25.068H12.278V11.639a.639.639,0,1,0-1.278,0V25.707a.638.638,0,0,0,.639.639H25.707a.639.639,0,0,0,0-1.278Z" transform="translate(-11 -11)"/></g></g></svg>