<svg xmlns="http://www.w3.org/2000/svg" width="18.112" height="21.733" viewBox="0 0 18.112 21.733">
  <path id="Контур_6" data-name="Контур 6" d="M230.929,121.858l-1.555-2.591a7.7,7.7,0,0,1-1.1-3.961v-2.27a6.351,6.351,0,0,0-4.528-6.075v-1.622a1.811,1.811,0,1,0-3.623,0v1.622a6.351,6.351,0,0,0-4.528,6.075v2.27a7.7,7.7,0,0,1-1.1,3.961l-1.556,2.591a.453.453,0,0,0,.389.686h6.385A2.265,2.265,0,1,0,224.2,123a2.292,2.292,0,0,0-.046-.453h6.382a.453.453,0,0,0,.389-.686Zm-9.9-16.519a.906.906,0,1,1,1.811,0v1.423a6.3,6.3,0,0,0-1.811,0ZM223.3,123a1.358,1.358,0,1,1-2.637-.453h2.559A1.364,1.364,0,0,1,223.3,123Zm-9.162-1.358,1.144-1.906a8.6,8.6,0,0,0,1.226-4.426v-2.27a5.433,5.433,0,1,1,10.867,0v2.27a8.61,8.61,0,0,0,1.225,4.426l1.144,1.906Z" transform="translate(-212.882 -103.527)" fill="#9aa6bb"/>
</svg>
