<?xml version="1.0" encoding="utf-8"?>
<!-- Generator: Adobe Illustrator 21.0.0, SVG Export Plug-In . SVG Version: 6.00 Build 0)  -->
<svg version="1.1" id="Слой_1" xmlns="http://www.w3.org/2000/svg" xmlns:xlink="http://www.w3.org/1999/xlink" x="0px" y="0px"
	 viewBox="0 0 161.5 198.8" style="enable-background:new 0 0 161.5 198.8;" xml:space="preserve">
<style type="text/css">
	.st0{fill:#3D6AB7;}
</style>
<g id="bin" transform="translate(0.003 0.001)">
	<path id="Контур_4423" class="st0" d="M108.3,72c-2.6,0-4.7,2.1-4.7,4.7l0,0v88c0.1,2.6,2.3,4.5,4.9,4.4
		c2.4-0.1,4.3-2,4.4-4.4v-88C112.9,74.1,110.9,72,108.3,72z"/>
	<path id="Контур_4424" class="st0" d="M53.3,72c-2.6,0-4.7,2.1-4.7,4.7l0,0v88c0.1,2.6,2.3,4.5,4.9,4.4
		c2.4-0.1,4.3-2,4.4-4.4v-88C58,74.1,55.9,72,53.3,72z"/>
	<path id="Контур_4425" class="st0" d="M13.3,59.2v114.7c-0.1,6.6,2.4,12.9,6.8,17.7c4.3,4.6,10.3,7.2,16.6,7.2h88.1
		c6.3,0,12.3-2.6,16.6-7.2c4.5-4.8,6.9-11.2,6.8-17.7V59.2c9.5-2.5,15.1-12.3,12.6-21.8c-2.1-7.8-9.1-13.2-17.2-13.2H120v-5.8
		C120,8.3,111.8,0,101.7,0c-0.1,0-0.2,0-0.2,0H60.1C50-0.1,41.8,8,41.7,18.1c0,0.1,0,0.1,0,0.2v5.8H17.8C8,24.2,0,32.1,0,41.9
		C0,50,5.4,57.1,13.3,59.2z M124.9,189.6H36.7c-8.1-0.3-14.5-7.2-14.2-15.3c0-0.1,0-0.2,0-0.3V59.6H139v114.3
		c0.5,8.1-5.7,15.1-13.9,15.6C125.1,189.5,125,189.5,124.9,189.6L124.9,189.6z M51,18.4c-0.1-4.9,3.9-9,8.8-9.1c0.1,0,0.2,0,0.3,0
		h41.4c4.9-0.1,9,3.8,9.1,8.7c0,0.1,0,0.2,0,0.3v5.8H51L51,18.4z M17.8,33.5h125.9c4.6-0.2,8.5,3.4,8.7,8s-3.4,8.5-8,8.7
		c-0.2,0-0.5,0-0.7,0H17.8c-4.6-0.2-8.2-4.1-8-8.7C10,37.2,13.5,33.7,17.8,33.5z"/>
	<path id="Контур_4426" class="st0" d="M80.8,72c-2.6,0-4.7,2.1-4.7,4.7l0,0v88c0.1,2.6,2.3,4.5,4.9,4.4
		c2.4-0.1,4.3-2,4.4-4.4v-88C85.5,74.1,83.4,72,80.8,72z"/>
</g>
</svg>
