<svg id="calendar" xmlns="http://www.w3.org/2000/svg" width="14.685" height="14.685" viewBox="0 0 14.685 14.685">
  <g id="Сгруппировать_665" data-name="Сгруппировать 665">
    <g id="Сгруппировать_664" data-name="Сгруппировать 664">
      <circle id="Эллипс_75" data-name="Эллипс 75" cx="0.5" cy="0.5" r="0.5" transform="translate(11 5.377)" fill="#3d6ab7"/>
      <path id="Контур_825" data-name="Контур 825" d="M12.39,1.147h-.746V.574a.574.574,0,1,0-1.147,0v.574H7.887V.574a.574.574,0,0,0-1.147,0v.574H4.159V.574a.574.574,0,0,0-1.147,0v.574H2.294A2.3,2.3,0,0,0,0,3.442V12.39a2.3,2.3,0,0,0,2.294,2.294H6.683a.574.574,0,1,0,0-1.147H2.294A1.149,1.149,0,0,1,1.147,12.39V3.442A1.149,1.149,0,0,1,2.294,2.294h.717v.574a.574.574,0,0,0,1.147,0V2.294H6.74v.574a.574.574,0,1,0,1.147,0V2.294H10.5v.574a.574.574,0,1,0,1.147,0V2.294h.746a1.149,1.149,0,0,1,1.147,1.147v3.27a.574.574,0,1,0,1.147,0V3.442A2.3,2.3,0,0,0,12.39,1.147Z" fill="#3d6ab7"/>
      <path id="Контур_826" data-name="Контур 826" d="M273.47,270a3.47,3.47,0,1,0,3.47,3.47A3.474,3.474,0,0,0,273.47,270Zm0,5.794a2.323,2.323,0,1,1,2.323-2.323A2.326,2.326,0,0,1,273.47,275.794Z" transform="translate(-262.256 -262.256)" fill="#3d6ab7"/>
      <path id="Контур_827" data-name="Контур 827" d="M372.405,331.176h-.258v-.6a.574.574,0,1,0-1.147,0v1.176a.574.574,0,0,0,.574.574h.832a.574.574,0,1,0,0-1.147Z" transform="translate(-360.359 -320.535)" fill="#3d6ab7"/>
      <circle id="Эллипс_76" data-name="Эллипс 76" cx="0.5" cy="0.5" r="0.5" transform="translate(8 5.377)" fill="#3d6ab7"/>
      <circle id="Эллипс_77" data-name="Эллипс 77" cx="0.5" cy="0.5" r="0.5" transform="translate(6 8.377)" fill="#3d6ab7"/>
      <circle id="Эллипс_78" data-name="Эллипс 78" cx="0.5" cy="0.5" r="0.5" transform="translate(3 5.377)" fill="#3d6ab7"/>
      <circle id="Эллипс_79" data-name="Эллипс 79" cx="0.5" cy="0.5" r="0.5" transform="translate(3 8.377)" fill="#3d6ab7"/>
      <!-- <ellipse id="Эллипс_80" data-name="Эллипс 80" cx="0.5" rx="0.5" transform="translate(3 11.377)" fill="#3d6ab7"/>
      <ellipse id="Эллипс_81" data-name="Эллипс 81" cx="0.5" rx="0.5" transform="translate(6 11.377)" fill="#3d6ab7"/> -->
      <circle id="Эллипс_82" data-name="Эллипс 82" cx="0.5" cy="0.5" r="0.5" transform="translate(6 5.377)" fill="#3d6ab7"/>
    </g>
  </g>
</svg>
