<svg xmlns="http://www.w3.org/2000/svg" width="29.073" height="32.262" viewBox="0 0 29.073 32.262">
  <g id="calendar" transform="translate(-25.427 0.2)">
    <path id="Контур_4518" data-name="Контур 4518" d="M46.915,15.648h2.674a.912.912,0,0,0,.911-.911V12.514a.912.912,0,0,0-.911-.911H46.915a.912.912,0,0,0-.911.911v2.223A.912.912,0,0,0,46.915,15.648Zm.022-3.112h2.629v2.178H46.937Zm-.022,9.024h2.674a.912.912,0,0,0,.911-.911V18.426a.912.912,0,0,0-.911-.911H46.915a.912.912,0,0,0-.911.911v2.223A.912.912,0,0,0,46.915,21.56Zm.022-3.112h2.629v2.178H46.937Zm-14.376,4.7h-2.6a.912.912,0,0,0-.911.911v2.223a.912.912,0,0,0,.911.911h2.6a.912.912,0,0,0,.911-.911V24.061A.912.912,0,0,0,32.561,23.15Zm-.022,3.112H29.981V24.083h2.557ZM32.561,11.6h-2.6a.912.912,0,0,0-.911.911v2.223a.912.912,0,0,0,.911.911h2.6a.912.912,0,0,0,.911-.911V12.514A.912.912,0,0,0,32.561,11.6Zm-.022,3.112H29.981V12.537h2.557ZM51.963,2.133h-2V1.419A1.421,1.421,0,0,0,48.548,0h-.214a1.421,1.421,0,0,0-1.419,1.419v.714h-13.9V1.419A1.421,1.421,0,0,0,31.593,0h-.214a1.421,1.421,0,0,0-1.419,1.419v.714h-2A2.339,2.339,0,0,0,25.627,4.47V29.529a2.336,2.336,0,0,0,2.334,2.334H51.966A2.336,2.336,0,0,0,54.3,29.529V4.47a2.34,2.34,0,0,0-2.337-2.337Zm-4.115-.714a.486.486,0,0,1,.486-.486h.214a.486.486,0,0,1,.486.486v.714H47.848Zm-16.955,0a.486.486,0,0,1,.486-.486h.214a.486.486,0,0,1,.486.486v.714H30.893V1.419ZM53.366,29.529a1.4,1.4,0,0,1-1.4,1.4H27.961a1.4,1.4,0,0,1-1.4-1.4v0a2.325,2.325,0,0,0,1.4.47H46.887a2.321,2.321,0,0,0,1.652-.684l4.827-4.827Zm-5.3-1.062A2,2,0,0,0,48.12,28V24.881a1.067,1.067,0,0,1,1.066-1.065H52.3a2,2,0,0,0,.471-.057ZM53.366,8.8H30.479a.467.467,0,1,0,0,.933H53.366v12.08A1.067,1.067,0,0,1,52.3,22.882H49.185a2,2,0,0,0-2,2V28a1.067,1.067,0,0,1-1.065,1.066H27.964a1.4,1.4,0,0,1-1.4-1.4V9.736h5.051a.467.467,0,1,0,0-.933H26.56V4.47a1.4,1.4,0,0,1,1.4-1.4h2V4.439a1.421,1.421,0,0,0,1.419,1.419.467.467,0,0,0,0-.933.486.486,0,0,1-.486-.486V3.066H46.915V4.439a1.421,1.421,0,0,0,1.419,1.419.467.467,0,0,0,0-.933.486.486,0,0,1-.486-.486V3.066h4.115a1.4,1.4,0,0,1,1.4,1.4ZM32.561,17.377h-2.6a.912.912,0,0,0-.911.911V20.51a.912.912,0,0,0,.911.911h2.6a.912.912,0,0,0,.911-.911V18.288A.912.912,0,0,0,32.561,17.377Zm-.022,3.112H29.981V18.31h2.557Zm5.752-4.862,2.613.022a.912.912,0,0,0,.911-.911V12.514A.912.912,0,0,0,40.9,11.6l-2.613-.022a.912.912,0,0,0-.911.911v2.223A.912.912,0,0,0,38.291,15.626Zm.022-3.112,2.568.022v2.178l-2.568-.022ZM38.291,21.4l2.613.022a.912.912,0,0,0,.911-.911V18.288a.912.912,0,0,0-.911-.911l-2.613-.022a.912.912,0,0,0-.911.911v2.223A.912.912,0,0,0,38.291,21.4Zm.022-3.112,2.568.022v2.178l-2.568-.022Zm-.022,8.885,2.613.022a.912.912,0,0,0,.911-.911V24.061a.912.912,0,0,0-.911-.911l-2.613-.022a.912.912,0,0,0-.911.911v2.223A.912.912,0,0,0,38.291,27.173Zm.022-3.112,2.568.022v2.178l-2.568-.022Z" transform="translate(0)" fill="#3d6ab7" stroke="#3d6ab7" stroke-width="0.4"/>
  </g>
</svg>
