<svg xmlns="http://www.w3.org/2000/svg" width="8.977" height="9.668" viewBox="0 0 8.977 9.668"><defs><style>.a{fill:#275395;}</style></defs><g transform="translate(-17.066)"><g transform="translate(17.066 6.215)"><path class="a" d="M25.7,307.2a.345.345,0,0,0-.345.345v2.072a.345.345,0,0,1-.345.345H18.1a.345.345,0,0,1-.345-.345v-2.072a.345.345,0,0,0-.691,0v2.072a1.036,1.036,0,0,0,1.036,1.036h6.905a1.036,1.036,0,0,0,1.036-1.036v-2.072A.345.345,0,0,0,25.7,307.2Z" transform="translate(-17.066 -307.2)"/></g><g transform="translate(19.487)"><path class="a" d="M140.772,5.971a.345.345,0,0,0-.48,0l-1.138,1.137V.345a.345.345,0,1,0-.691,0V7.108l-1.137-1.137a.345.345,0,0,0-.488.488l1.726,1.726a.345.345,0,0,0,.488,0h0l1.726-1.726A.345.345,0,0,0,140.772,5.971Z" transform="translate(-136.742)"/></g></g></svg>