<svg xmlns="http://www.w3.org/2000/svg" width="22.069" height="32.5" viewBox="0 0 22.069 32.5">
  <g id="employee" transform="translate(0.25 0.25)">
    <g id="Сгруппировать_264" data-name="Сгруппировать 264" transform="translate(0 0)">
      <path id="Контур_72" data-name="Контур 72" d="M104.547,25.928a.469.469,0,0,0-.469.469V30.8a.259.259,0,0,1-.259.259H101.3V21.831a.469.469,0,1,0-.937,0v9.231H95.288l1.471-1.619a.84.84,0,0,0,.2-.674l0-.014-1.4-8.279.378-.568a1.063,1.063,0,0,0,.671.291.821.821,0,0,0,.735-.454h0l1.478-2.962,3.367,1.3a3.248,3.248,0,0,1,1.891,2.952v6.828a.469.469,0,1,0,.938,0V21.038a4.183,4.183,0,0,0-2.474-3.82l-.009,0-5.6-2.17V13.729a4.392,4.392,0,0,0,1.662-2.889,2.029,2.029,0,0,0,1.192-.486,1.99,1.99,0,0,0,.208-2.808V5.81a5.81,5.81,0,1,0-11.619,0V7.591a1.882,1.882,0,0,0-.483,1.255,1.986,1.986,0,0,0,.691,1.508,2.028,2.028,0,0,0,1.191.486A4.346,4.346,0,0,0,91.528,13.8v1.245l-5.6,2.17-.009,0a4.183,4.183,0,0,0-2.474,3.82V30.8a1.2,1.2,0,0,0,1.2,1.2h4.466a.469.469,0,0,0,0-.937H88.1V21.831a.469.469,0,0,0-.938,0v9.231h-2.52a.259.259,0,0,1-.259-.259V21.038a3.248,3.248,0,0,1,1.89-2.952l3.365-1.3,1.478,2.963a.821.821,0,0,0,.735.454,1.062,1.062,0,0,0,.671-.291l.378.568-1.4,8.279,0,.014a.84.84,0,0,0,.2.674l1.471,1.619H86.726a.469.469,0,1,0,0,.937H103.82a1.2,1.2,0,0,0,1.2-1.2V26.4A.469.469,0,0,0,104.547,25.928Zm-6.6-9.486L96.564,19.2l-1.657-1.177,1.7-2.1Zm-2.771,2.923-.357.538H93.645l-.357-.538.942-.669ZM92.465,15.2v-.877a4.756,4.756,0,0,0,1.772.336,4.4,4.4,0,0,0,1.753-.365v.91L94.23,17.373Zm7.071-6.349a1.05,1.05,0,0,1-.365.8,1.092,1.092,0,0,1-.541.249V7.8A1.06,1.06,0,0,1,99.537,8.846Zm-9.8,1.046a1.059,1.059,0,0,1-.906-1.046,1.113,1.113,0,0,1,.906-1.022Zm.025-3.024a2.318,2.318,0,0,0-.448.1V5.81a4.872,4.872,0,1,1,9.744,0V6.937a2.084,2.084,0,0,0-.423-.082c0-.452,0-.365-1.476-1.956a.834.834,0,0,0-1.065-.13,9.037,9.037,0,0,1-5.463,1.471A.833.833,0,0,0,89.757,6.868Zm.912,3.393V7.183A10.017,10.017,0,0,0,96.528,5.6c.679.729,1.046,1.111,1.165,1.256v3.4a3.512,3.512,0,0,1-7.023,0ZM91.9,19.2l-1.378-2.762,1.331-.515,1.7,2.1Zm.538,9.653L93.79,20.84h.879l1.357,8.016-1.8,1.976Z" transform="translate(-83.447)" fill="#3d6ab7" stroke="#3d6ab7" stroke-width="0.5"/>
    </g>
  </g>
</svg>
