<?xml version="1.0" encoding="utf-8"?>
<!-- Generator: Adobe Illustrator 23.1.0, SVG Export Plug-In . SVG Version: 6.00 Build 0)  -->
<svg version="1.1" id="Layer_1" xmlns="http://www.w3.org/2000/svg" xmlns:xlink="http://www.w3.org/1999/xlink" x="0px" y="0px"
	 viewBox="0 0 417.6 417.6" style="enable-background:new 0 0 417.6 417.6;" xml:space="preserve">
<path d="M251.9,0C160.5,0,86.2,74.3,86.2,165.7c0,34.5,10.6,66.6,28.8,93.2l-25.6,25.6L65.8,261c-12.1-12.1-31.7-12.1-43.8,0l0,0
	c-12.1,12.1-12.1,31.7,0,43.8l23.6,23.6L22,351.9C9.8,364,9.8,383.7,22,395.8l0,0c12.1,12.1,31.7,12.1,43.8,0l23.6-23.6l23.5,23.5
	c12.1,12.1,31.7,12.1,43.8,0l0,0c12.1-12.1,12.1-31.7,0-43.8l-23.5-23.5l25.6-25.6c26.5,18.1,58.6,28.7,93.1,28.7
	c91.4,0,165.7-74.3,165.7-165.7C417.6,74.3,343.3,0,251.9,0z M251.9,269.4c-57.2,0-103.7-46.5-103.7-103.7S194.7,62,251.9,62
	s103.7,46.5,103.7,103.7C355.6,222.9,309.1,269.4,251.9,269.4z"/>
</svg>
