<svg id="information" xmlns="http://www.w3.org/2000/svg" width="22.507" height="22.5" viewBox="0 0 22.507 22.5">
  <g id="Сгруппировать_686" data-name="Сгруппировать 686">
    <path id="Контур_829" data-name="Контур 829" d="M11.253,23A11.25,11.25,0,1,1,22.507,11.753,11.262,11.262,0,0,1,11.253,23Zm0-21.312A10.062,10.062,0,1,0,21.305,11.753,10.075,10.075,0,0,0,11.253,1.688Z" transform="translate(0 -0.5)" fill="#9aa6bb"/>
  </g>
  <g id="Сгруппировать_687" data-name="Сгруппировать 687" transform="translate(10.215 6.105)">
    <circle id="Эллипс_93" data-name="Эллипс 93" cx="1.106" cy="1.106" r="1.106" fill="#9aa6bb"/>
  </g>
  <g id="Сгруппировать_688" data-name="Сгруппировать 688" transform="translate(10.53 9.471)">
    <path id="Контур_830" data-name="Контур 830" d="M154.992,147.456a.793.793,0,0,1-.792-.792v-6.671a.792.792,0,0,1,1.584,0v6.671A.793.793,0,0,1,154.992,147.456Z" transform="translate(-154.2 -139.2)" fill="#9aa6bb"/>
  </g>
</svg>
