<svg xmlns="http://www.w3.org/2000/svg" width="19" height="19" viewBox="0 0 19 19">
  <path id="Контур_7" data-name="Контур 7" d="M309.6,135.8A9.474,9.474,0,0,0,309.421,123h0l0,0a9.473,9.473,0,0,0-6.588-2.989h0l-.185,0c-.048,0-.1,0-.144,0s-.1,0-.144,0l-.184,0h0A9.473,9.473,0,0,0,295.584,123l0,0h0A9.474,9.474,0,0,0,295.4,135.8s0,.006,0,.009.014.012.021.02a9.478,9.478,0,0,0,6.751,3.166h0l.184,0,.144,0c.048,0,.1,0,.144,0l.184,0h0a9.479,9.479,0,0,0,6.757-3.173c0-.006.011-.007.015-.013S309.6,135.8,309.6,135.8Zm-15.941-5.969H297.6a12.105,12.105,0,0,0,.791,4,12.068,12.068,0,0,0-2.657,1.353A8.8,8.8,0,0,1,293.663,129.828Zm2.245-6.217a12.04,12.04,0,0,0,2.588,1.272,12.1,12.1,0,0,0-.9,4.29h-3.932A8.808,8.808,0,0,1,295.908,123.611Zm15.428,5.561H307.4a12.1,12.1,0,0,0-.9-4.29,12.037,12.037,0,0,0,2.588-1.272A8.8,8.8,0,0,1,311.336,129.172Zm-9.164-4.271a11.441,11.441,0,0,1-2.775-.42,11.464,11.464,0,0,1,2.775-3.615Zm0,.655v3.615H298.25a11.439,11.439,0,0,1,.874-4.087A12.107,12.107,0,0,0,302.172,125.557Zm.655,0a12.115,12.115,0,0,0,3.049-.471,11.438,11.438,0,0,1,.873,4.087h-3.922Zm0-.655v-4.035a11.463,11.463,0,0,1,2.775,3.615A11.441,11.441,0,0,1,302.828,124.9Zm3.41-.619a12.1,12.1,0,0,0-2.584-3.549,8.817,8.817,0,0,1,4.974,2.4A11.415,11.415,0,0,1,306.237,124.282Zm-7.475,0a11.415,11.415,0,0,1-2.39-1.152,8.817,8.817,0,0,1,4.974-2.4A12.089,12.089,0,0,0,298.763,124.282Zm-.512,5.545h3.922v3.288a12.088,12.088,0,0,0-3.165.5A11.438,11.438,0,0,1,298.25,129.828Zm3.922,3.943v4.363a11.456,11.456,0,0,1-2.91-3.9A11.416,11.416,0,0,1,302.172,133.771Zm.655,4.363v-4.363a11.417,11.417,0,0,1,2.91.459A11.459,11.459,0,0,1,302.828,138.134Zm0-5.018v-3.288h3.922a11.441,11.441,0,0,1-.758,3.793A12.065,12.065,0,0,0,302.828,133.116Zm4.577-3.288h3.932a8.8,8.8,0,0,1-2.066,5.355,12.069,12.069,0,0,0-2.657-1.353A12.105,12.105,0,0,0,307.4,129.828Zm-11.23,5.846a11.393,11.393,0,0,1,2.463-1.239,12.083,12.083,0,0,0,2.709,3.832A8.826,8.826,0,0,1,296.175,135.674Zm7.479,2.593a12.079,12.079,0,0,0,2.709-3.832,11.4,11.4,0,0,1,2.463,1.239A8.827,8.827,0,0,1,303.653,138.267Z" transform="translate(-293 -120)" fill="#9aa6bb"/>
</svg>
