<?xml version="1.0" encoding="utf-8"?>
<!-- Generator: Adobe Illustrator 24.0.1, SVG Export Plug-In . SVG Version: 6.00 Build 0)  -->
<svg version="1.1" id="Layer_1" xmlns="http://www.w3.org/2000/svg" xmlns:xlink="http://www.w3.org/1999/xlink" x="0px" y="0px"
	 viewBox="0 0 616 616.2" style="enable-background:new 0 0 616 616.2;" xml:space="preserve">
<style type="text/css">
	.st0{fill-rule:evenodd;clip-rule:evenodd;fill:#085F97;stroke:#085F97;stroke-width:6.0001;stroke-miterlimit:10;}
	.st1{fill-rule:evenodd;clip-rule:evenodd;fill:#FEFEFE;stroke:#085F97;stroke-width:6.0001;stroke-miterlimit:10;}
	.st2{fill-rule:evenodd;clip-rule:evenodd;fill:#085F97;}
	.st3{fill:none;stroke:#085F97;stroke-width:6.0001;stroke-miterlimit:10;}
	.st4{fill-rule:evenodd;clip-rule:evenodd;fill:#FEFEFE;}
	.st5{clip-path:url(#SVGID_2_);}
	.st6{fill:none;stroke:#22B8CA;stroke-width:2.9999;stroke-miterlimit:10;stroke-opacity:0.102;}
	.st7{fill-rule:evenodd;clip-rule:evenodd;fill:#085F97;fill-opacity:0.149;}
	.st8{fill:#E79F0F;}
	.st9{fill:#A86741;}
	.st10{fill-rule:evenodd;clip-rule:evenodd;fill:#81411E;}
	.st11{fill-rule:evenodd;clip-rule:evenodd;fill:#36AAE1;}
	.st12{fill-rule:evenodd;clip-rule:evenodd;fill:#3A8E36;}
	.st13{fill:none;stroke:#E31E24;stroke-width:1.0001;stroke-linecap:round;stroke-miterlimit:10;}
	.st14{fill-rule:evenodd;clip-rule:evenodd;fill:#255027;}
	.st15{fill-rule:evenodd;clip-rule:evenodd;fill:#317330;}
	.st16{fill-rule:evenodd;clip-rule:evenodd;fill:#A86741;}
	.st17{fill:none;stroke:#E31E24;stroke-width:2.9999;stroke-miterlimit:10;}
	.st18{fill:#3A8E36;}
</style>
<g id="Слой_x0020_1">
	<polygon class="st0" points="308.3,3.8 416.5,63.4 523.5,93.1 557.7,211.8 612.4,308.4 552.8,416.6 523.1,523.6 404.4,557.9 
		307.8,612.5 199.7,552.9 92.7,523.2 58.4,404.5 3.7,307.9 63.3,199.8 93,92.8 211.7,58.5 	"/>
	<path class="st1" d="M308.1,42.4c146.8,0,265.8,119,265.8,265.8S454.9,574,308.1,574S42.3,455,42.3,308.2S161.3,42.4,308.1,42.4z"
		/>
	<path class="st1" d="M338,54.3c-9.8-1.1-19.8-1.7-30-1.7c-9.8,0-19.4,0.5-28.9,1.6c-48.5,5.5-93,24.5-129.4,53.3
		c-15.5,12.2-29.5,26.2-41.8,41.6c-28.9,36.3-48.1,80.6-53.8,129.1c-1.1,9.8-1.7,19.8-1.7,30c0,9.8,0.5,19.4,1.6,28.9
		c5.5,48.5,24.5,93,53.3,129.4c12.2,15.5,26.2,29.5,41.6,41.8c36.3,28.9,80.6,48.1,129.1,53.8c9.8,1.1,19.8,1.7,30,1.7
		c9.8,0,19.4-0.5,28.9-1.6c48.5-5.5,93-24.5,129.4-53.3c15.5-12.2,29.5-26.2,41.8-41.6c28.9-36.3,48.1-80.6,53.8-129.1
		c1.1-9.8,1.7-19.8,1.7-30c0-9.8-0.5-19.4-1.6-28.9c-5.5-48.5-24.5-93-53.3-129.4c-12.2-15.5-26.2-29.5-41.6-41.8
		C430.9,79.2,386.5,59.9,338,54.3L338,54.3z"/>
	<path class="st2" d="M478.9,178.3l1.8,1.1c0.1,0.1,0.4,0.3,0.5,0.3c0.1,0,0.2-0.1,0.2-0.1l16-11.5l-0.9-3.8l2.5-0.9l0.5,0.6
		c2.1,2.7,4.3,5.4,6.2,8.2c3.1,4.3,5.2,9.8,0.1,13.5c-2,1.4-4.1,1.8-6.2,1.3c0.3,2.8-0.8,5.2-3.4,7.1c-1,0.7-2.2,1.3-3.4,1.4
		c-1.1,0.2-2.2,0.1-3.2-0.3c-1-0.4-2-0.9-2.9-1.6c-1.5-1.2-2.8-2.6-3.9-4.2c-2.1-2.9-4.1-6-6-9l-0.4-0.6l0.2-0.2l-7.2-8.3l1.5-2.2
		l3,1.5c0,0,0.1,0,0.1,0.1c0,0,0,0,0-0.1l0,0l2.3-4.1l-5.1-5.9l-4.4,1.8l1.2,3.5l-2.4,1.1l-6.9-7.9l1.5-2.2l3,1.5
		c0.1,0.1,0.4,0.2,0.4,0.2c0.2,0,0.6-0.2,0.8-0.2l22.6-8.8l2.9,1.9l0.6,1.6L477.7,175L478.9,178.3L478.9,178.3z M426.6,129.3l2,0.5
		c0.1,0,0.5,0.1,0.6,0.1c0.1,0,0.2-0.2,0.2-0.2l11.4-16l-2.1-3.3l2-1.7l9.3,6.6l-0.9,2.5l-3.3-0.7c-0.1,0-0.5-0.1-0.6-0.1
		c-0.1,0-0.2,0.2-0.2,0.2l-4.2,6l11-1.9l-1.6-2.6l2.1-1.7l8.7,6.2l-0.9,2.5l-3.2-0.7l0,0c-0.1,0-0.2,0-0.2-0.1c-0.2,0-0.3,0-0.5-0.1
		c-0.1,0-0.2,0-0.3,0c-0.1,0-0.2,0-0.3,0.1c-0.2,0-0.5,0.1-0.7,0.1l-10.5,1.9l0.6,14.1l2.3,3.7l-2.1,1.7l-5.7-4.1l-0.7-16.1l-5,7.1
		l2.1,3.3l-2,1.7l-9.3-6.6l0.1-0.3l-9.5-5.5l0.7-2.6l3.3,0.4c0,0,0.1,0,0.1,0c0,0,0-0.1,0-0.1l0,0l0.8-4.6l-6.7-3.9l-3.6,3.1
		l2.2,2.9l-1.9,1.9l-9.1-5.2l0-0.1l-9.5-3.8l0.3-2.6l2.9-0.2c0.2,0,0.7-0.1,0.8-0.3l4.6-13.4l-12.1,14l-3.6-0.2l-1.1-1.3l1.1-18.5
		l-6,13.1l2.4,2.6l-1.6,2.1l-9.3-3.7l0.3-2.6l3.3-0.1c0.1,0,0.5,0,0.7-0.1c0.1-0.1,0.1-0.2,0.1-0.3l8.2-17.9l-2.8-2.7l1.6-2.1
		l8.6,3.4l0.7,1.2l-1.3,19l12.9-15.3l9.2,3.7l-0.3,2.6l-3.3,0.1c-0.2,0-0.6,0-0.7,0.2l-6.5,18.7l2.4,2.3l2.1,0.3
		c0.1,0,0.4,0.1,0.5,0.1c0.2-0.1,0.5-0.3,0.6-0.5l18.5-15.7l3.3,0.8l1.1,1.3l-4.5,25L426.6,129.3L426.6,129.3z M342,73.1l1-2.2
		l11.1,2l0.2,2.6l-2.9,0.8c0,0-0.1,0-0.2,0.1l3.2,7.3l5.5-5.8l-2.8-1.8l1.1-2.4l10.4,1.9l0.2,2.6l-3.2,0.7c-0.2,0-0.6,0.1-0.8,0.3
		c-0.2,0.2-0.4,0.4-0.6,0.6l-8.5,9l-1.6,8.6l3.3,2.1l-1.1,2.4l-11.2-2l-0.2-2.6l3.3-0.7c0.1,0,0.5-0.1,0.6-0.2
		c0-0.1,0.1-0.2,0.1-0.3l1.5-8.1l-5.4-12.6l-2.9-2l0,0.1l-3.2,0.9c-0.1,0-0.5,0.1-0.6,0.2c0,0.1-0.1,0.2-0.1,0.3l-2.4,19.5l3.4,1.9
		l-1,2.4l-11.3-1.4l-0.2-1.4l0,1.2l-20.4-0.6l-0.6-2.6l3.1-1.2c0.1,0,0.5-0.2,0.5-0.3c0-0.1,0-0.2,0-0.3l0.6-19.7l-3.6-1.6l0.8-2.5
		l11.4,0.3l0.6,2.6l-3.1,1.2c-0.1,0-0.5,0.2-0.5,0.3c0,0.1,0,0.2,0,0.3l-0.6,19.5l7.2,0.1l2.1-3.6l2.8,0.7l-0.1,5l3-0.8
		c0.1,0,0.5-0.1,0.6-0.2c0-0.1,0.1-0.2,0.1-0.3l2.4-19.5l-3.4-1.9l1-2.4l11.3,1.4L342,73.1L342,73.1z M247.1,102l1.7-1.2
		c0.1-0.1,0.4-0.3,0.5-0.4c0-0.1,0-0.2,0-0.3l-4.4-19.2l-3.9-0.6l0.1-2.6l0.7-0.2c2.9-0.8,5.9-1.7,8.8-2.4c5.6-1.3,11.5-0.8,13,5.7
		c0.9,4-0.6,7-3.7,9c0,0,0,0,0.1,0.1c1.1,1.3,2.2,2.6,3.3,3.9c0.6,0.7,1.4,1.5,2.1,2.1c1.1,0.8,2.5,1.1,3.8,1l1.1,0l-0.1,2.9
		l-5.4,1.7l-0.4-0.2c-1.5-0.7-3-1.7-4.2-2.9c-0.7-0.7-1.4-1.5-2.1-2.3c-1.1-1.3-2.1-2.6-3.1-3.8c-0.1-0.2-0.3-0.4-0.6-0.4l-1.2,0.3
		l1.6,7.1l3.8,0.7l-0.1,2.6l-11,2.5l-0.1-0.3l-10.2,4l-1.6-2.1l2.4-2.3c0,0,0.1-0.1,0.1-0.1c0,0,0,0,0-0.1l0,0l-3.1-3.5l-7.3,2.8
		l0.2,4.7l3.6,0.1l0.3,2.6l-9.7,3.8l0-0.1l-17,8.6l-0.1-0.2l-9.3,5.9l-2-1.8l1.9-2.7c0,0,0.1-0.1,0.1-0.1c0,0,0,0-0.1,0l0,0
		l-3.7-2.9l-6.6,4.2l1.1,4.6l3.6-0.7l0.8,2.5l-8.8,5.6l-2-1.8l1.9-2.7c0.1-0.1,0.2-0.3,0.3-0.4c0-0.2-0.1-0.6-0.1-0.8l-5.4-23.6
		l2.3-2.6l1.7-0.3l20.1,15.5l3.3-0.6l1.4-1.7c0.1-0.1,0.3-0.4,0.4-0.5c0-0.1-0.1-0.2-0.1-0.3l-8.9-17.6l-3.9,0.3l-0.5-2.6l10.2-5.1
		l1.8,2l-2.2,2.5c-0.1,0.1-0.3,0.4-0.4,0.5c0,0.1,0.1,0.2,0.1,0.3l8.8,17.4l6.4-3.4l0.1-4.2l2.8-0.7l1.9,3.8l1-0.9
		c0.1-0.1,0.3-0.3,0.3-0.3c0-0.2,0-0.6,0-0.8l-0.7-24.2l2.7-2.1l1.7,0l16.7,19.1L247.1,102L247.1,102z M106.5,186.8
		c-0.7,0.7-1.4,1.7-1.9,2.5c-0.7,1.2-1.1,2.4-0.9,3.8c0.3,0.4,0.8,0.7,1.2,1c1.5,0.9,2.9,0.5,4.2-0.6l4.3-3.5c3.1-2.5,6.4-3,9.9-1
		c2.1,1.2,3.6,3,3.9,5.5c0.3,2.5-0.5,4.9-1.7,7c-1.8,3.1-4.4,5.4-7.9,6.5l-0.8,0.2l-3.3-5.8l1.8-1.7l3.8,1.5
		c0.9-0.6,1.7-1.7,2.2-2.6c1.1-1.9,2.2-4.4-0.1-5.7c-0.6-0.4-1.3-0.5-2-0.3c-1,0.3-2.1,1-2.9,1.7l-3.8,3.1c-2.8,2.3-5.9,2.8-9.1,0.9
		c-2.2-1.3-3.6-3.1-4-5.6c-0.3-2.5,0.4-4.9,1.6-7.1c1.6-2.9,4.1-4.8,7.3-5.4l0.8-0.2l2.7,5.9l-1.8,1.7L106.5,186.8L106.5,186.8z
		 M112.8,174.9l-3,1.7l-1.6-2.1l6.9-8.8l2.1,1.5l-0.7,2.9l0,0c0,0.1-0.1,0.5-0.1,0.6c0,0.1,0.1,0.2,0.2,0.2l9.7,7.7
		c1.5,1.1,3.2,2.1,5.2,2c1.7-0.1,3-0.9,4-2.2c0.9-1.1,1.8-2.5,2.1-4c-0.4-2-2.3-3.8-3.8-5l-10.2-8l-3.4,1.9l-1.6-2.1l6.3-8.1l2.4,1
		l-0.8,2.8c-0.1,0.4-0.1,0.6,0.2,0.9l9.8,7.7c2.3,1.8,4.9,4.4,5.3,7.5c0.4,2.9-1,5.7-2.8,8c-4.6,5.9-10.2,6.6-16.1,2L112.8,174.9
		L112.8,174.9z M132.4,150.8l-3.6,1.6l-1.4-2.2l0.5-0.6c2.5-2.8,5-5.7,7.6-8.5c6.7-7,13.7-6.8,20.6-0.2c2.9,2.8,5.4,6.4,5,10.5
		c-0.4,4.2-3.6,8.3-6.4,11.3c-0.6,0.7-1.3,1.3-2,2c-1.5,1.5-3,2.9-4.5,4.4l-0.6,0.5l-2.3-1.2l1.2-3.1c0.1-0.1,0.2-0.5,0.2-0.6
		c0-0.1-0.1-0.2-0.2-0.2L132.4,150.8L132.4,150.8z M165.3,135.1l-13-4.3l-3.6,0.9l-1-2.4l8.8-7l2.1,1.5l-1.3,2.7
		c0,0-0.1,0.1-0.1,0.2l7.6,2.5l-0.7-8l-3.2,0.9l-1-2.4l8.3-6.5l2.1,1.6l-1.6,2.9c-0.1,0.2-0.3,0.5-0.3,0.8c0,0.3,0,0.6,0,0.9
		l1.1,12.3l5.4,6.9l3.8-1.1l1,2.4l-9,7.1l-2.1-1.6l1.6-2.9c0.1-0.1,0.2-0.4,0.3-0.5c0-0.1-0.1-0.2-0.1-0.2L165.3,135.1L165.3,135.1z
		 M277.5,84.4c-0.2-2.2,0-4.4,0.6-6.5c0.6-1.8,1.4-3.5,2.7-4.9c2.5-2.6,5.7-4,9.3-4.3c3.6-0.3,6.8,0.7,9.5,3.1
		c2.9,2.6,4.1,6.3,4.4,10.1c0.2,2.2,0,4.4-0.6,6.4c-0.6,1.8-1.4,3.5-2.8,4.8c-2.5,2.6-5.6,3.9-9.2,4.2c-3.6,0.3-6.8-0.7-9.5-3.1
		C279,91.9,277.8,88.3,277.5,84.4L277.5,84.4z M471,138.1l-13.9,14.5l1.6,3.6l-2.3,1.4l-8.2-7.9l1.3-2.3l3.1,1.2
		c0.1,0.1,0.5,0.2,0.6,0.2c0.1,0,0.2-0.1,0.2-0.2l13.6-14.3l-2.8-2.5l-4.2,1.4l-1.3-2.3l5.1-5.3l16.1,15.4l-5.1,5.3l-2.3-1.2
		l1.2-4.3L471,138.1L471,138.1z M497.4,205.2l0.5,3.9l-2.6,0.7l-5.7-9.9l1.9-1.9l2.7,2c0.1,0.1,0.4,0.3,0.5,0.3
		c0.1,0,0.2-0.1,0.3-0.1l17-9.9l-0.5-3.9l2.6-0.7l5.7,9.9l-1.9,1.9l-2.7-2c-0.1-0.1-0.4-0.3-0.5-0.3c-0.1,0-0.2,0.1-0.3,0.1
		L497.4,205.2L497.4,205.2z M136.1,146.8l14.4,13.8c0.7-0.7,1.4-1.4,2.1-2.1c1.6-1.6,3.4-3.9,3.9-6.2c-0.4-2.7-2.2-5.1-4.1-6.9
		c-2-1.9-4.5-3.7-7.3-4.1c-2.4-0.3-4.4,0.6-6,2.4L136.1,146.8C136.2,146.8,136.1,146.8,136.1,146.8L136.1,146.8z M182.4,114l1.7,7.2
		l4.1-2.6L182.4,114z M227.1,91.6l0.3,7.4l4.6-1.8L227.1,91.6L227.1,91.6z M252.1,88.1l1.5-0.3c1.3-0.3,2.8-0.7,3.9-1.5
		c0.3-0.4,0.6-0.8,0.7-1.3c0.2-0.6,0-1.5-0.1-2.1c-0.3-1.3-0.9-2.5-2-3.3c-1.1-0.9-2.6-0.8-3.9-0.5l-2,0.5c0,0,0,0,0,0L252.1,88.1
		L252.1,88.1z M284.8,75.2c-1.4,2.4-1.8,5.3-1.5,8.1c0.2,2.6,0.8,5.5,2.6,7.5c1.6,1.8,3.6,2.3,5.9,2.1c1.7-0.1,3.6-0.6,5-1.6
		c1.5-2.3,1.7-5.3,1.5-7.9c-0.2-2.7-0.8-5.7-2.6-7.7c-1.5-1.8-3.5-2.3-5.8-2.1C288,73.7,286.2,74.1,284.8,75.2z M422.2,107.2
		l-5.6,4.9l4.3,2.5L422.2,107.2z M481.9,156.1l-6.9,2.8l3.2,3.7L481.9,156.1z M491,179.5l-6.6,4.7c0.5,0.9,1.2,1.8,1.7,2.5
		c0.9,1.3,2.1,2.6,3.3,3.6c1.1,0.2,2.1-0.3,3-0.9c2.7-2,2.6-4.1,0.8-6.8L491,179.5C491,179.5,491,179.5,491,179.5L491,179.5z
		 M500.7,172.5l-6.3,4.5c0.5,0.8,1,1.6,1.5,2.2c0.8,1.1,1.8,2.2,3,3c1,0.2,1.9-0.2,2.7-0.8c1-0.7,1.8-1.6,2.1-2.8
		c0.3-1.2-0.4-2.5-1.1-3.5L500.7,172.5C500.7,172.6,500.7,172.6,500.7,172.5L500.7,172.5z"/>
	<path class="st2" d="M122.7,428l-1.5-2.5l0,0c0,0,0-0.1,0-0.1c-0.1,0-0.1,0-0.2,0l-12.8,8.1l0.5,2.9l-1.6,0.5l-4.4-7l1.2-1.3
		l1.9,1.3c0.1,0.1,0.4,0.2,0.5,0.3c0.1,0,0.2-0.1,0.3-0.1l12.6-8l-1.7-2.6l-3.3,0.2l-0.5-1.7l4.4-2.8l8.8,13.9l-4.4,2.8l-1.3-1.1
		L122.7,428L122.7,428z M123.6,455.7l0.7,2.8l-1.6,0.6l-4.9-6.7l1.1-1.3l2,1.2c0.1,0.1,0.4,0.2,0.5,0.2c0.1,0,0.2-0.1,0.3-0.1
		l4.9-3.5l-4.9-6.8l-5.2,3.7l0.7,2.8l-1.6,0.6l-4.9-6.7l1.1-1.3l2,1.2c0.1,0.1,0.4,0.2,0.5,0.2c0.1,0,0.2-0.1,0.3-0.1l12.1-8.7
		l-0.7-2.8l1.6-0.6l4.9,6.7l-1.1,1.3l-2-1.2c-0.1-0.1-0.4-0.2-0.5-0.2c-0.1,0-0.2,0.1-0.3,0.1l-4.5,3.3l4.9,6.8l4.8-3.5l-0.7-2.8
		l1.6-0.6l4.9,6.7l-1.1,1.3l-2-1.2c-0.1-0.1-0.4-0.2-0.5-0.2c-0.1,0-0.2,0.1-0.3,0.1L123.6,455.7L123.6,455.7z M138,458.4
		c1.1,1.3,2.3,2.5,3.6,3.7l0.9,0.9l-0.1,1.1l-2.2,1.3l-0.3-0.4c-1.2-1.6-2.5-3.2-3.8-4.7l-4.7,4.1l3.7,4.1l3-0.7l0.9,1.7l-3.9,3.4
		l-9.8-11.2l0.9-1.4l2.1,1c0.1,0.1,0.4,0.2,0.5,0.2c0.1,0,0.2-0.1,0.3-0.2l11.2-9.8l-0.9-2.8l1.5-0.7l9.7,11.1l-3.9,3.4l-1.5-1.1
		l1.1-2.9l-3.3-4c0,0-0.1-0.1-0.1-0.1c-0.1,0-0.2,0.1-0.2,0.1L138,458.4L138,458.4z M161.1,473.9c-0.3-0.7-1-1.5-1.6-1.9
		c-0.8-0.7-1.7-1.3-2.7-1.4c-0.4,0.1-0.8,0.5-1,0.7c-1,1-0.9,2.1-0.4,3.3l1.8,3.8c1.2,2.6,1,5.1-1,7.2c-1.2,1.3-2.8,2-4.6,1.8
		c-1.8-0.2-3.4-1.2-4.7-2.5c-1.9-1.9-3.1-4.1-3.3-6.8l0-0.5l4.6-1.3l0.8,1.4l-1.7,2.5c0.3,0.8,0.9,1.6,1.5,2.2
		c1.2,1.2,3,2.5,4.4,0.9c0.4-0.4,0.7-0.9,0.7-1.5c0-0.8-0.4-1.7-0.7-2.4l-1.6-3.3c-1.1-2.4-0.9-4.7,1-6.6c1.3-1.3,2.8-2,4.7-1.8
		c1.9,0.2,3.4,1.2,4.8,2.4c1.7,1.7,2.7,3.7,2.6,6.2l0,0.5l-4.5,0.8l-0.8-1.4L161.1,473.9L161.1,473.9z M167.7,497.3
		c1.6-0.3,3-1.7,3.9-2.9l6.1-7.7l-1.4-2.5l1.4-1l5.8,4.6l-0.7,1.6l-2-0.5c-0.3-0.1-0.6-0.1-0.8,0.2l-5.8,7.3
		c-1.4,1.7-3.3,3.6-5.5,3.9c-2.2,0.3-4.2-0.8-5.9-2.1c-4.3-3.4-4.9-7.5-1.4-11.8l6.1-7.8l-1.3-2.3l1.4-1l6.4,5l-1,1.4l-2-0.5l0,0
		c-0.1,0-0.4-0.1-0.5-0.1c-0.1,0-0.2,0.1-0.2,0.2l-5.8,7.3c-0.9,1.1-1.6,2.5-1.6,4c0.1,1.3,0.7,2.3,1.7,3.1
		C165.5,496.3,166.5,497,167.7,497.3L167.7,497.3z M182.8,502.1l-2.9,4.5l1.8,2.7l-1.3,1.1l-7.2-4.7l0.5-1.6l2.3,0.4
		c0.1,0,0.4,0.1,0.5,0c0.1,0,0.2-0.2,0.2-0.2l8.1-12.5l-1.7-2.4l1.3-1.1l0.4,0.2c1.9,1.1,3.9,2.2,5.7,3.5c1.7,1.1,3.6,2.7,4.4,4.7
		c0.7,1.8,0.2,3.6-0.8,5.2c-2.7,4.1-6.6,3.4-10.3,1C183.5,502.6,183.1,502.4,182.8,502.1L182.8,502.1z M197.5,511l-2.6,5.1l1.8,2.2
		l-1.1,1.3l-7.3-3.7l0.3-1.7l2.3,0.2c0.1,0,0.4,0,0.5,0c0.1,0,0.2-0.2,0.2-0.2l6.7-13.3l-1.9-2.2l1.1-1.3l0.4,0.2
		c2.1,0.9,4.2,1.8,6.2,2.8c3.8,1.9,6.9,4.9,4.7,9.3c-1.4,2.8-3.7,3.7-6.5,3.3c0,0.1,0,0.2,0,0.3c0,1.7-0.1,4.4,0.3,6
		c0.2,1,1,1.9,1.8,2.5l0.5,0.4l-1.3,1.4L200,522l-0.1-0.2c-0.5-1.1-0.9-2.4-1.1-3.6c-0.2-1.9-0.1-4.1-0.1-6c0-0.2,0-0.5-0.3-0.6
		L197.5,511z M216.5,516.4c1.6,0.7,3.2,1.3,4.8,1.8l1.2,0.4l0.4,1.1l-1.5,2.1l-0.5-0.3c-1.8-0.9-3.6-1.8-5.5-2.7l-2.5,5.7l5.1,2.1
		l2.5-1.9l1.5,1.1l-2.1,4.8l-13.6-6.1l0.3-1.7l2.4,0.1c0.1,0,0.4,0,0.5,0c0.1,0,0.1-0.2,0.2-0.2l6.1-13.6l-2-2.1l1.1-1.3l13.5,6
		l-2.1,4.8l-1.9-0.4l-0.3-3.1l-4.7-2.2c0,0-0.1,0-0.1,0c0,0-0.1,0.2-0.1,0.2L216.5,516.4L216.5,516.4z M245.5,536.8l2.2,1.9
		l-0.9,1.4l-7.7-2.5l0.1-1.7l2-0.3c0.2,0,0.6-0.1,0.7-0.4l3.1-11l-8.9,11.6l-2.5,0l-0.8-0.8l0-14.7l-4.3,10.9l1.9,1.8l-0.9,1.4
		l-6.9-2.3l0.1-1.7l2.3-0.2c0.1,0,0.5-0.1,0.6-0.1c0-0.1,0.1-0.2,0.1-0.3l5.4-13.9l-2.2-1.9l0.9-1.4l6.4,2.1l0.5,0.7l-0.1,14.8
		l9.2-12.3l6.8,2.3l-0.1,1.7l-2.3,0.2c-0.2,0-0.6,0.1-0.7,0.3L245.5,536.8L245.5,536.8z M258.5,530.4c1.7,0.4,3.3,0.7,5,0.9l1.3,0.2
		l0.5,1l-1.1,2.3l-0.5-0.2c-1.9-0.6-3.9-1.1-5.9-1.6l-1.4,6.1l5.4,1.2l2.1-2.3l1.7,0.8l-1.2,5.1l-14.5-3.4l-0.1-1.7l2.3-0.4
		c0.1,0,0.4-0.1,0.5-0.1c0.1,0,0.1-0.2,0.1-0.3l3.4-14.5l-2.4-1.7l0.8-1.5l14.4,3.4l-1.2,5.1l-1.9,0l-0.8-3l-5-1.3c0,0-0.1,0-0.1,0
		c0,0-0.1,0.2-0.1,0.2L258.5,530.4L258.5,530.4z M280.5,529.2c-0.2,0.3-0.3,0.8-0.4,1.2c-0.2,1.4,0.6,2.3,1.7,2.9l3.7,1.9
		c2.6,1.3,3.9,3.4,3.5,6.3c-0.2,1.8-1,3.3-2.6,4.2c-1.6,0.9-3.4,1.1-5.2,0.9c-2.7-0.3-5-1.4-6.7-3.4l-0.3-0.4l2.9-3.8l1.5,0.6l0.1,3
		c0.7,0.5,1.7,0.7,2.6,0.8c1.7,0.2,3.9,0.2,4.1-1.9c0.1-0.6,0-1.1-0.4-1.6c-0.5-0.6-1.3-1.1-2-1.5l-3.3-1.7
		c-2.4-1.2-3.6-3.2-3.2-5.9c0.2-1.8,1-3.3,2.6-4.3c1.6-1,3.4-1.2,5.3-0.9c2.4,0.3,4.4,1.4,5.8,3.4l0.3,0.4l-3.1,3.4l-1.5-0.6
		l0.2-2.9c-0.7-0.4-1.7-0.5-2.4-0.6C282.4,528.5,281.4,528.6,280.5,529.2L280.5,529.2z M298.7,530.6c-1.9,1.7-2.6,4-2.7,6.5
		c-0.1,2.1,0.3,4.3,1.7,5.9c1.3,1.4,2.9,2.1,4.8,2.2c1.7,0.1,3.3-0.4,4.8-1.1l0.6-0.3l0.9,1.9l-0.3,0.3c-0.7,0.7-1.8,1.2-2.7,1.6
		c-1.3,0.5-2.8,0.7-4.2,0.7c-2.7-0.1-5.1-1-6.9-3c-2-2.2-2.6-5-2.5-7.9c0.1-3,1-5.7,3.3-7.7c2-1.8,4.5-2.7,7.2-2.6
		c1.7,0.1,3.4,0.4,4.7,1.5c0.6,0.5,1.2,1.1,1.6,1.7l0.2,0.4l-2.6,3.3l-1.6-0.5l-0.1-2.8c-0.9-0.3-1.9-0.4-2.9-0.4
		C300.9,530.1,299.7,530.2,298.7,530.6z M329.6,544.8l2.7,1l-0.4,1.7l-8.3,0.3l-0.5-1.6l2.1-1c0.1,0,0.4-0.2,0.5-0.3
		c0-0.1,0-0.2,0-0.3l-0.2-6l-8.4,0.3l0.2,6.4l2.7,1l-0.4,1.7l-8.3,0.3l-0.5-1.6l2.1-1c0.1,0,0.4-0.2,0.5-0.3c0-0.1,0-0.2,0-0.3
		l-0.5-14.9l-2.7-1l0.4-1.7l8.3-0.3l0.5,1.6l-2.1,1c-0.1,0-0.4,0.2-0.5,0.3c0,0.1,0,0.2,0,0.3l0.2,5.6l8.4-0.3l-0.2-5.9l-2.7-1
		l0.4-1.7l8.3-0.3l0.5,1.6l-2.1,1c-0.1,0-0.4,0.2-0.5,0.3c0,0.1,0,0.2,0,0.3L329.6,544.8L329.6,544.8z M333.9,536.6
		c-0.2-1.6-0.1-3.2,0.3-4.8c0.4-1.3,0.9-2.6,1.8-3.7c1.8-2,4.1-3.1,6.7-3.4c2.6-0.3,5.1,0.3,7.1,2c2.2,1.9,3.2,4.5,3.5,7.3
		c0.2,1.6,0.1,3.2-0.3,4.8c-0.4,1.3-1,2.6-1.9,3.6c-1.8,2-4,3.1-6.7,3.4c-2.6,0.3-5.1-0.3-7.1-2C335.2,542,334.2,539.4,333.9,536.6
		L333.9,536.6z M355.6,533.3c-0.4-1.6-0.5-3.2-0.3-4.8c0.2-1.4,0.6-2.7,1.4-3.8c1.5-2.2,3.7-3.5,6.3-4.1c2.6-0.6,5.1-0.3,7.3,1.2
		c2.4,1.6,3.7,4.1,4.3,6.9c0.4,1.6,0.5,3.2,0.3,4.8c-0.2,1.4-0.7,2.7-1.5,3.8c-1.5,2.2-3.7,3.5-6.3,4.1c-2.6,0.6-5.1,0.3-7.3-1.2
		C357.5,538.5,356.3,536,355.6,533.3L355.6,533.3z M384.8,533l5.3-2l0.5-3.1l1.9-0.2l1.8,4.9l-14.2,5.1l-1-1.4l1.7-1.6
		c0.1-0.1,0.3-0.3,0.4-0.4c0-0.1,0-0.2,0-0.3l-5-14l-2.9-0.1l-0.1-1.7l7.8-2.8l1,1.4l-1.7,1.6c-0.1,0.1-0.3,0.3-0.4,0.4
		c0,0.1,0,0.2,0,0.3L384.8,533L384.8,533z M397.9,520.3c-0.7-1.5-1.1-3-1.2-4.6c-0.1-1.4,0.1-2.8,0.7-4c1.1-2.5,2.9-4.2,5.4-5.3
		c2.4-1.1,4.9-1.2,7.4-0.2c2.7,1.1,4.4,3.3,5.6,5.9c0.7,1.5,1.1,3,1.2,4.6c0.1,1.4-0.1,2.8-0.7,4c-1.1,2.4-2.9,4.2-5.3,5.3
		c-2.4,1.1-4.9,1.3-7.4,0.3C400.8,525.1,399,522.9,397.9,520.3L397.9,520.3z M423.3,509.1l3.2,5.5l3-0.4l0.4,1.7l-7.2,4.2l-1.2-1.2
		l1.4-1.9c0.1-0.1,0.3-0.3,0.3-0.5c0-0.1-0.1-0.2-0.1-0.3l-7.5-12.8l-2.9,0.4l-0.4-1.7l13-7.6l2.6,4.5l-1.4,1.3l-2.7-1.6l-4.8,2.7
		c0,0-0.1,0.1-0.1,0.1c0,0.1,0.1,0.2,0.1,0.3l2.8,4.8l3.3-1.9l-0.2-2.4l1.6-0.4l3.3,5.6l-1.2,1.2l-1.6-1.2c-0.1-0.1-0.3-0.3-0.5-0.3
		c-0.1,0-0.2,0.1-0.3,0.1L423.3,509.1z M434.1,492.1l-2.8,0.7l-0.6-1.6l6.7-4.9l1.3,1.1l-1.2,2c-0.1,0.1-0.2,0.4-0.2,0.5
		c0,0.1,0.1,0.2,0.1,0.3l10.1,14c2,2.7,2.1,5.7,0.6,8.7l-0.2,0.5l-1.8-0.5l0-0.5c0.1-1,0.1-2.1-0.2-3.1c-0.3-1.1-1-2.1-1.6-3
		L434.1,492.1L434.1,492.1z M460.5,490.3c0.1-1.6-1-3.3-1.9-4.5l-6.1-7.7l-2.8,0.8l-0.7-1.6l5.8-4.6l1.4,1l-1,1.8
		c-0.2,0.3-0.2,0.6,0,0.9l5.8,7.3c1.4,1.7,2.7,4,2.5,6.3c-0.2,2.2-1.7,3.9-3.4,5.2c-4.3,3.4-8.4,3-11.9-1.4l-6.1-7.8l-2.5,0.7
		l-0.7-1.6l6.4-5l1.1,1.3l-1,1.9l0,0c-0.1,0.1-0.2,0.4-0.2,0.5c0,0.1,0.1,0.2,0.1,0.3l5.8,7.3c0.9,1.1,2.1,2.2,3.5,2.4
		c1.3,0.2,2.4-0.2,3.4-1C459.1,492.2,460,491.3,460.5,490.3z M459.2,472.1l-2.7,1.1l-0.8-1.5l0.3-0.3c2-2,4-4.1,6.1-6
		c5.2-4.9,10.4-4.5,15.2,0.6c2,2.1,3.7,4.9,3.3,8c-0.5,3.1-3,6-5.2,8.1c-1.6,1.5-3.4,3-5.1,4.5l-0.3,0.3l-1.4-0.9l1-2.1
		c0.1-0.1,0.2-0.4,0.2-0.5c0-0.1-0.1-0.2-0.2-0.3L459.2,472.1L459.2,472.1z M481.8,449.1c-0.8,0.6-1.6,1.4-2.3,2.2
		c-0.7,0.9-1.5,1.9-1.8,3c0.1,2.6,1.2,4.7,3.1,6.3c1.6,1.4,3.6,2.5,5.8,2.3c2-0.2,3.6-1.3,4.9-2.8c0.3-0.4,0.7-0.8,0.9-1.2
		c0.2-0.3,0.3-0.6,0-0.8l-2.6-2.2l-2.5,1.4l-1-1.4l5-5.8l1.7,0.8l-0.6,1.7c0,0.1-0.1,0.4-0.1,0.5c0,0.1,0.1,0.2,0.2,0.2l3.6,3l0,0.3
		c-0.2,2.5-1.4,4.7-3,6.6c-1.7,2.1-3.9,3.3-6.6,3.6c-2.9,0.3-5.5-0.9-7.7-2.8c-1.3-1.1-2.4-2.3-3.1-3.8c-0.6-1.3-1-2.7-1-4.1
		c0.1-2.8,1.1-5.2,2.9-7.3c1.7-2,3.8-3.2,6.4-2.9l0.4,0.1l1,4.1l-1.4,0.9L481.8,449.1L481.8,449.1z M494.4,441.9
		c1-1.4,1.9-2.8,2.8-4.3l0.6-1.1l1.1-0.1l1.8,1.9l-0.3,0.4c-1.3,1.6-2.5,3.2-3.7,4.8l5.1,3.6l3.1-4.5l-1.4-2.8l1.4-1.3l4.3,3
		l-8.7,12.1l-1.6-0.6l0.5-2.3c0-0.1,0.1-0.4,0.1-0.5c0-0.1-0.2-0.2-0.2-0.2l-12.1-8.6l-2.5,1.6l-1.1-1.3l8.6-12l4.3,3l-0.7,1.8
		l-3.1-0.4l-3.1,4.1c0,0-0.1,0.1-0.1,0.1c0,0.1,0.1,0.2,0.2,0.2L494.4,441.9L494.4,441.9z M501.5,421.1c-0.6,0.5-1.2,1.3-1.6,1.9
		c-0.6,0.9-0.9,1.9-0.8,2.9c0.2,0.3,0.6,0.7,0.9,0.9c1.2,0.8,2.3,0.5,3.4-0.3l3.4-2.4c2.3-1.7,4.8-1.9,7.3-0.3
		c1.5,1,2.5,2.4,2.6,4.2c0.1,1.8-0.6,3.6-1.6,5.1c-1.5,2.2-3.4,3.8-6.1,4.5l-0.5,0.1l-2.1-4.3l1.2-1.1l2.8,1.2
		c0.8-0.4,1.4-1.2,1.9-1.9c0.9-1.4,1.9-3.4,0.1-4.5c-0.5-0.3-1-0.5-1.6-0.4c-0.8,0.2-1.6,0.7-2.3,1.2l-3,2.2
		c-2.2,1.6-4.4,1.8-6.7,0.3c-1.5-1-2.5-2.4-2.7-4.3c-0.1-1.9,0.5-3.6,1.5-5.1c1.3-2,3.2-3.3,5.6-3.7l0.5-0.1l1.7,4.3l-1.2,1.1
		L501.5,421.1L501.5,421.1z M188.1,493.8C188.1,493.9,188.1,493.9,188.1,493.8l-3.8,5.9c0.3,0.2,0.6,0.5,1,0.7
		c1,0.6,2.1,1.1,3.2,1.4c0.9-0.1,1.6-1,2-1.7c1.4-2.2,1.2-3.9-1.1-5.4l-1.2-0.8C188.3,493.9,188.2,493.9,188.1,493.8L188.1,493.8z
		 M198.7,508.5l1.2,0.6c0.9,0.4,2,0.9,3,1c0.4-0.1,0.8-0.2,1.1-0.4c0.4-0.3,0.8-0.9,1-1.3c0.5-0.9,0.7-1.9,0.5-3
		c-0.2-1.1-1.2-1.8-2.1-2.3l-1.4-0.7c0,0-0.1-0.1-0.2-0.1c0,0,0,0.1-0.1,0.1L198.7,508.5L198.7,508.5z M338.8,529.3
		c-1,1.9-1.2,4.1-0.9,6.3c0.2,2,0.8,4.2,2.2,5.7c1.2,1.3,2.8,1.7,4.6,1.5c1.3-0.2,2.7-0.5,3.8-1.4c1.1-1.8,1.2-4.1,1-6.1
		c-0.2-2-0.8-4.3-2.3-5.8c-1.2-1.3-2.8-1.7-4.6-1.5C341.2,528.1,339.9,528.5,338.8,529.3L338.8,529.3z M359.7,525.5
		c-0.8,2-0.7,4.2-0.3,6.3c0.5,2,1.3,4.1,2.9,5.4c1.4,1.2,3,1.4,4.7,1c1.3-0.3,2.6-0.8,3.6-1.8c0.9-1.9,0.7-4.2,0.3-6.2
		c-0.5-2-1.3-4.2-2.9-5.5c-1.4-1.2-3-1.4-4.7-1C362,524,360.7,524.5,359.7,525.5L359.7,525.5z M400.3,511.9c-0.4,2.1,0.1,4.3,1,6.3
		c0.8,1.8,2,3.7,3.9,4.7c1.6,0.9,3.2,0.7,4.8,0c1.2-0.6,2.4-1.3,3.2-2.5c0.5-2.1-0.1-4.2-0.9-6.1c-0.8-1.9-2.1-3.8-3.9-4.8
		c-1.6-0.9-3.2-0.8-4.8,0C402.3,510,401.1,510.8,400.3,511.9z M461.9,469.4C462,469.4,462,469.5,461.9,469.4l10.5,11.1
		c0.6-0.5,1.2-1,1.8-1.6c1.3-1.2,2.8-2.9,3.2-4.6c-0.2-2.1-1.5-4-2.9-5.5c-1.4-1.5-3.3-3-5.4-3.4c-1.9-0.3-3.4,0.3-4.8,1.6l-2.3,2.2
		C462,469.3,462,469.4,461.9,469.4L461.9,469.4z"/>
	<path class="st3" d="M309.6,506.4c-109.5,0-198.2-88.8-198.2-198.2s88.8-198.2,198.2-198.2c109.5,0,198.2,88.8,198.2,198.2
		S419.1,506.4,309.6,506.4z"/>
	<path class="st4" d="M309.7,118.9c104.5,0,189.3,84.7,189.3,189.3s-84.7,189.3-189.3,189.3s-189.3-84.7-189.3-189.3
		S205.1,118.9,309.7,118.9L309.7,118.9z"/>
	<g>
		<defs>
			<path id="SVGID_1_" d="M309.7,118.9c104.5,0,189.3,84.7,189.3,189.3s-84.7,189.3-189.3,189.3s-189.3-84.7-189.3-189.3
				S205.1,118.9,309.7,118.9L309.7,118.9z"/>
		</defs>
		<clipPath id="SVGID_2_">
			<use xlink:href="#SVGID_1_"  style="overflow:visible;"/>
		</clipPath>
		<g class="st5">
			<g id="_2931257161792">
				<path id="_x31_" class="st6" d="M309.7,118.9c104.5,0,189.3,84.7,189.3,189.3s-84.7,189.3-189.3,189.3s-189.3-84.7-189.3-189.3
					S205.1,118.9,309.7,118.9L309.7,118.9z"/>
				<path class="st7" d="M187.6,205c35.9-40.5,90.7-61.7,146.4-53.5c-45.5,10-85.6,39.3-108.7,81.2
					C211.3,225.2,198.6,215.9,187.6,205L187.6,205z M232.9,236.5c23.7-40.5,63.5-68.6,108.5-77.9c-31.9,20.4-56.9,51.8-68.7,90.7
					c-4.9-0.9-9.7-2-14.6-3.4C249.4,243.3,241,240.2,232.9,236.5L232.9,236.5z M260.4,252.6c3.6,1,7.1,1.9,10.7,2.6
					c-3.8,14.5-5.6,29.1-5.4,43.5c-4.9-0.9-9.7-2-14.6-3.4c-12.8-3.6-24.8-8.6-35.9-14.8c0.4-1.8,0.9-3.6,1.4-5.4
					c3.4-12.2,8.2-23.8,14-34.5C239.9,245.6,249.8,249.6,260.4,252.6z M253.3,302c4.2,1.2,8.4,2.2,12.6,2.9
					c1.9,38.3,17.2,74.4,42.5,102.3c-23-28.3-36.4-64-36.9-101.4c43.5,6.5,86.4-6.9,118.2-34.3c-33.5,23.5-75.6,34.3-118.1,28
					c0.3-13.4,2.3-26.9,6.1-40.3c0.3-1,0.5-1.9,0.8-2.8c43.5,6.6,86.5-6.8,118.3-34.2c-33.1,23.2-74.5,34-116.4,28.2
					c14.1-41.5,43.6-73.9,80.1-92.8c23.7,7.6,44.6,20.1,61.8,36.1c1.1,1,2.1,2,3.2,3c2.9,2.8,5.6,5.7,8.2,8.7c2.4,2.8,4.8,5.6,7,8.5
					c30.4,39.6,42.5,92.6,28,144.4c-7.2,25.9-20.3,48.6-37.4,67.1c19.5-19.7,34.5-44.6,42.5-73.2c14.9-53.1,2.7-107.3-28.3-148
					c-2.7-3.5-5.5-7-8.5-10.3c-1.6-1.7-3.1-3.4-4.8-5.1c-1.3-1.4-2.7-2.7-4.1-4.1c-11.9-11.5-25.6-21.3-40.8-28.9
					c-3.6-1.8-7.3-3.5-11-5.1c-2.4-1-4.8-1.9-7.3-2.8c-1.4-0.5-2.8-1-4.2-1.4c-2.7-0.9-5.4-1.7-8.1-2.5
					c-66-18.5-133.8,4.9-175.2,54.2c-0.1,0.1-0.2,0.2-0.3,0.3c-7.4,8.8-13.9,18.4-19.4,28.8c-0.5,1-1.1,2-1.6,3.1
					c-4.9,9.7-8.9,20-12,30.8c-15.2,54.3-2.1,109.8,30.5,150.8c-29.1-39.3-40.4-91.2-26.2-142c3.2-11.5,7.6-22.3,12.9-32.4
					c0.3-0.6,0.7-1.3,1-1.9c5.9-10.9,13-20.9,21-29.9c10.2,12.1,22.3,22.6,36.1,31c-5,9.8-9.2,20.2-12.2,31.1c-0.8,3-1.6,6-2.3,9.1
					c-12-7.4-22.8-16.2-32.3-26.2c8.9,11.4,19.4,21.6,31.5,30.1c-9.4,48.2,3.4,96.3,32,132.7c-25.3-36.3-35.8-82.6-25.8-128.6
					C226,292.1,239.1,298,253.3,302L253.3,302z"/>
				<path class="st8" d="M393.4,255.4L380,195.6c6.6-1.4,12.5-5.3,17.2-13.5c-21.1,25.5-52.6-7.3-80.1-14.2c0-0.8,0-1.6,0-2.5
					c0,0,0,0,0-0.1c2.5-1.7,4.1-4,4.1-6.6c0-1.6-0.6-3.1-1.7-4.5c1.1-1.3,1.7-2.8,1.7-4.5c0-3.7-3.1-6.8-7.6-8.3
					c-2.5-8.9-5.6-14.7-5.6-14.7s-3,5.7-5.6,14.7c-4.5,1.5-7.6,4.6-7.6,8.3c0,1.6,0.6,3.2,1.7,4.5c-1.1,1.3-1.7,2.8-1.7,4.5
					c0,2.6,1.6,5,4.1,6.6c0,0,0,0,0,0.1c0,0.8,0,1.7,0,2.5c-27.5,6.9-59,39.7-80.1,14.2c4.7,8.2,10.6,12.1,17.2,13.5l-13.4,59.8
					h-7.4c0,11,10.7,19.9,23.9,19.9c13.2,0,23.9-8.9,23.9-19.9h-7.4l-13.3-59.2c17.8-0.2,39.4-13.9,57-13.9c0.4-1,0.7-1.9,1.1-2.7
					c0.8-1.8,3.2-5.3,7.5-5.3c4.4,0,6.7,3.6,7.5,5.3c0.4,0.8,0.7,1.8,1.1,2.7c17.6-0.1,39.2,13.7,57,13.9l-13.3,59.2H353
					c0,11,10.7,19.9,23.9,19.9c13.2,0,23.9-8.9,23.9-19.9L393.4,255.4L393.4,255.4z M250.5,255.4h-22.6l11.3-50.3L250.5,255.4z
					 M365.6,255.4l11.3-50.3l11.3,50.3H365.6z"/>
				<path class="st9" d="M302.1,182.1c-1.3,2.9-2.5,7-3.5,12.2c-2,10.1-3.1,23.4-3.1,36.4c0,13.8,1.3,32.8,3.8,43.7
					c-2.3,1.5-3.8,4.1-3.8,7c0,2.7,1.3,5,3.2,6.6l-5.1,11.4c-0.3,0.6-0.2,1.3,0.1,1.9c4.7,8.5,10.8,18.5,14.4,27.3
					c3.6-9.4,9.4-18.4,14.3-27.3c0.3-0.6,0.3-1.3,0-1.9l-5.5-11c2.2-1.6,3.6-4.1,3.6-6.9c0-2.8-1.5-5.5-3.8-7
					c2.5-10.9,3.8-29.9,3.8-43.7c0-13-1.1-26.3-3.1-36.4c-1-5.2-2.2-9.2-3.5-12.2c-0.6-1.4-2.5-5.7-6-5.7
					C304.6,176.4,302.7,180.7,302.1,182.1L302.1,182.1z M318.2,300.1l-8.1,14.6v-14.6c0-1.2-0.9-2.1-2.1-2.1c-1.2,0-2.1,0.9-2.1,2.1
					v14.6l-8.1-14.7l4.6-10.3c10.7,0-0.3,0,10.5,0L318.2,300.1z M316.4,281.4c0,2.3-1.9,4.2-4.2,4.2l-8.4,0c-2.3,0-4.2-1.9-4.2-4.2
					c0-1.8,1.2-3.3,2.7-3.9c1.2-0.4,1.5-0.2,9.8-0.3C314.6,277.2,316.4,279.1,316.4,281.4z M313.5,195.8c1.8,9.8,2.9,22.5,2.9,34.9
					c0,15.3-1.5,32.9-3.6,42.3c-0.6,0-0.1,0-8.9,0c-0.2,0-0.4,0-0.6,0c-2.1-9.5-3.6-27.1-3.6-42.3c0-12.4,1-25.1,2.9-34.9
					c2.2-11.8,4.7-15,5.5-15.2C308.8,180.8,311.3,184,313.5,195.8L313.5,195.8z"/>
				<path class="st10" d="M400.4,499.3l-92.3-48.6l-92.3,48.6c-7.9,4.1-17.7,1.1-21.8-6.8l96.8-50.9l17.4,9.1l17.4-9.1l96.8,50.9
					C418.1,500.3,408.2,503.4,400.4,499.3L400.4,499.3z"/>
				<g>
					<path class="st9" d="M305.5,267.9c0,1.4,1.1,2.6,2.6,2.6c1.4,0,2.6-1.1,2.6-2.6c0-1.4-1.1-2.6-2.6-2.6
						C306.6,265.4,305.5,266.5,305.5,267.9z"/>
					<path class="st9" d="M305.5,232v25.7c0,1.4,1.1,2.6,2.6,2.6c1.4,0,2.6-1.1,2.6-2.6l0-25.7c0-1.4-1.1-2.6-2.6-2.6
						C306.6,229.5,305.5,230.6,305.5,232L305.5,232z"/>
				</g>
				<path class="st2" d="M393,344.2v49.1c-40.6,11.9-99.1,33.8-73.6,35.6c33.5-14,57.9-25,86.4-31.9v-48.9c0-2.2-3.3-3.9-7.4-3.9
					L393,344.2L393,344.2z"/>
				<path class="st2" d="M223.1,344.2v49.1c40.6,11.9,99.1,33.8,73.6,35.6c-33.5-14-57.9-25-86.4-31.9v-48.9c0-2.2,3.3-3.9,7.4-3.9
					L223.1,344.2L223.1,344.2z"/>
				<g>
					<path class="st11" d="M236.2,351.5c12.8-1.2,54.2,8.2,70.8,27.5c0.7,0.6,1,1.3,1,2v-20.5c0-0.7-0.4-1.4-1-2
						c-16.6-19.2-58.1-28.7-70.8-27.5c0,0,0,0,0,0c-2,0-3.8,0.4-5.2,1.1c-1.4,0.7-2.2,1.7-2.2,2.8v20.5c0-1.1,0.8-2,2.2-2.8
						C232.4,351.9,234.2,351.5,236.2,351.5C236.2,351.5,236.2,351.5,236.2,351.5L236.2,351.5z"/>
					<path class="st11" d="M379.9,351.5c-12.8-1.2-54.2,8.2-70.8,27.5c-0.7,0.6-1,1.3-1,2v-20.5c0-0.7,0.4-1.4,1-2
						c16.6-19.2,58.1-28.7,70.8-27.5c0,0,0,0,0,0c2,0,3.8,0.4,5.2,1.1c1.4,0.7,2.2,1.7,2.2,2.8v20.5c0-1.1-0.8-2-2.2-2.8
						C383.7,351.9,381.9,351.5,379.9,351.5C379.9,351.5,379.9,351.5,379.9,351.5z"/>
					<path class="st12" d="M229.1,392.6c0,0,56.7,15.3,79.4,32.9v-21.7c0-0.7-0.4-1.4-1-2c-16.6-19.2-58.1-28.7-70.8-27.5
						c0,0,0,0,0,0c-2,0-3.8,0.4-5.2,1.1c-1.4,0.7-2.2,1.7-2.2,2.8C229.2,381.1,229,386.9,229.1,392.6L229.1,392.6z"/>
					<path class="st12" d="M387.4,392.6c0,0-56.7,15.3-79.4,32.9v-21.7c0-0.7,0.4-1.4,1-2c16.6-19.2,58.1-28.7,70.8-27.5
						c0,0,0,0,0,0c2,0,3.8,0.4,5.2,1.1c1.4,0.7,2.2,1.7,2.2,2.8C387.3,381.1,387.5,386.9,387.4,392.6z"/>
					<path class="st4" d="M236.2,374.3c12.8-1.2,54.2,8.2,70.8,27.5c0.7,0.6,1,1.3,1,2V381c0-0.7-0.4-1.4-1-2
						c-16.6-19.2-58.1-28.7-70.8-27.5c0,0,0,0,0,0c-2,0-3.8,0.4-5.2,1.1c-1.4,0.7-2.2,1.7-2.2,2.8v22.8c0-1.1,0.8-2,2.2-2.8
						C232.4,374.7,234.2,374.3,236.2,374.3C236.2,374.3,236.2,374.3,236.2,374.3L236.2,374.3z"/>
					<path class="st13" d="M308.1,381c0-0.7-0.4-1.4-1-2c-16.6-19.2-58.1-28.7-70.8-27.5c-2,0-3.8,0.4-5.2,1.1
						c-1.4,0.7-2.2,1.7-2.2,2.8 M228.8,378.2c0-2.7,4.4-3.9,7.4-3.9c12.8-1.2,54.2,8.2,70.8,27.5c0.7,0.6,1,1.3,1,2v-0.9"/>
					<path class="st4" d="M379.9,374.3c-12.8-1.2-54.2,8.2-70.8,27.5c-0.7,0.6-1,1.3-1,2V381c0-0.7,0.4-1.4,1-2
						c16.6-19.2,58.1-28.7,70.8-27.5c0,0,0,0,0,0c2,0,3.8,0.4,5.2,1.1c1.4,0.7,2.2,1.7,2.2,2.8v22.8c0-1.1-0.8-2-2.2-2.8
						C383.7,374.7,381.9,374.3,379.9,374.3C379.9,374.3,379.9,374.3,379.9,374.3z"/>
					<path class="st13" d="M308.1,381c0-0.7,0.4-1.4,1-2c16.6-19.2,58.1-28.7,70.8-27.5c2,0,3.8,0.4,5.2,1.1
						c1.4,0.7,2.2,1.7,2.2,2.8 M387.3,378.2c0-1.1-0.8-2-2.2-2.8c-1.4-0.7-3.2-1.1-5.2-1.1c-12.8-1.2-54.2,8.2-70.8,27.5
						c-0.7,0.6-1,1.3-1,2v-0.9"/>
					<path class="st14" d="M308.1,425c-9.7-10.4-53.5-30.1-79-34.7c0,0.7,0,1.5,0,2.3c0,0,0,0,0,0c0,0,0,0,0.1,0c0,0,0.1,0,0.1,0
						c3.3,0.9,56.6,15.6,78.8,32.5V425L308.1,425z"/>
					<path class="st15" d="M229.1,390.3c25.5,4.5,69.2,24.3,79,34.7v-0.9c-0.2-0.2-0.4-0.5-0.6-0.7c-9.2-10.6-51.4-36.1-74.5-33.8
						C232.5,389.7,229.2,390.2,229.1,390.3L229.1,390.3z"/>
					<path class="st14" d="M308.5,425c9.7-10.4,53.5-30.1,79-34.7c0,0.7,0,1.5,0,2.3c0,0,0,0,0,0c0,0,0,0-0.1,0c0,0-0.1,0-0.1,0
						c-3.3,0.9-56.6,15.6-78.8,32.5V425L308.5,425z"/>
					<path class="st15" d="M387.5,390.3c-25.5,4.5-69.2,24.3-79,34.7v-0.9c0.2-0.2,0.4-0.5,0.6-0.7c9.2-10.6,51.4-36.1,74.5-33.8
						C384,389.7,387.3,390.2,387.5,390.3z"/>
				</g>
				<path class="st16" d="M400.4,403.6l-92.3,39.1l-92.3-39.1c-7.9-3.3-17.7-0.9-21.8,5.4l96.8,41l17.4,7.3l17.4-7.3l96.8-41
					C418.1,402.7,408.2,400.3,400.4,403.6L400.4,403.6z"/>
			</g>
		</g>
	</g>
	<path class="st17" d="M309.7,118.9c104.5,0,189.3,84.7,189.3,189.3s-84.7,189.3-189.3,189.3s-189.3-84.7-189.3-189.3
		S205.1,118.9,309.7,118.9L309.7,118.9z"/>
	<path class="st18" d="M101.9,236.4c2.3-5.2,1.2-9.2,5-20.1c-3.6,4-7.7,5.5-13,12.1c-0.5,0.6-0.9,1.1-1.3,1.7
		c-0.4,0.6-0.7,1.1-1,1.7c-0.6,1.1-1.1,2.2-1.5,3.2c-0.8,2.1-1,4.2-1.1,6.2c-0.1,4,0.5,7.7,0.5,11.7c-0.1,0.3-0.2,0.7-0.3,1
		c-0.2-2.7-1.4-4.3-2.5-6.1c-1.1-1.8-2-3.9-1.6-7.6c-0.9,1.8-1.6,3.8-2.1,5.9c-0.5,2-0.7,4.2-0.6,6.2c0.2,4.1,1.4,7.9,4.3,10.5
		c-0.2,0.7-0.4,1.4-0.5,2c0,0-0.3,1.1-0.6,2.2c-0.2,1.1-0.5,2.2-0.5,2.2c-0.9-3.7-3.5-5.7-5.8-7.9c-1.2-1.1-2.2-2.2-2.9-3.5
		c-0.7-1.3-1-2.9-0.6-5c-1.2,2.5-2,4.8-2.5,6.9c-0.5,2.1-0.7,3.9-0.7,5.6c0.1,3.3,1,5.9,2.3,8c1.3,2.1,2.8,3.8,4.3,5.4
		c1.4,1.6,2.7,3.1,3.3,5c0,0-0.2,1-0.3,2.5c-0.2,1.5-0.5,3.5-0.7,5.5c-0.2,2-0.4,4-0.5,5.5c-0.1,1.5-0.2,2.5-0.2,2.5
		c-0.3-1.9-0.8-3.6-1.4-5.2c-0.6-1.5-1.2-2.9-2-4.2c-1.4-2.5-3.1-4.6-4.7-6.6c-3.1-3.9-5.7-7.3-4.3-12.6c-0.8,1.5-1.4,3-2,4.4
		c-0.5,1.4-0.9,2.8-1.2,4.1c-0.6,2.7-0.8,5.2-0.7,7.4c0.1,2.3,0.6,4.4,1.2,6.3c0.6,1.9,1.5,3.7,2.5,5.3c4,6.5,9.9,10.6,12,15.2
		c0,0,0,0.1,0,0.4c0,0.3,0,0.6,0,1.1c0,0.9,0.1,2.1,0.1,3.3c0,1.2,0.1,2.4,0.1,3.2c0,0.9,0.1,1.5,0.1,1.5s0.1,1.4,0.2,2.8
		c0,0.7,0.1,1.4,0.1,1.9c0,0.5,0.1,0.9,0.1,0.9c-0.7-2-1.5-3.8-2.4-5.5c-1.2-2.2-2.5-4-4-5.8c-1.5-1.7-3-3.3-4.6-4.9
		c-1.6-1.6-3.3-3.2-4.9-5c-1.6-1.8-3.2-3.7-4.7-6c-1.6,9.7-0.5,17,1.8,22.6l0,0c1.4,3.7,3.5,6.6,5.6,9.1c2.1,2.5,4.5,4.5,6.6,6.5
		c2.2,1.9,4.3,3.8,6.1,5.8c0.9,1,1.7,2.1,2.4,3.2c0.3,0.6,0.7,1.2,0.9,1.8c0.3,0.6,0.6,1.3,0.8,2c0.4,1.8,0.8,3.6,1.2,5.3
		c-1.5-2-3.3-3.6-6.1-4.4c-2.7-0.8-6.3-0.8-11,0.4c3.7,5.7,8.2,8.2,12.6,11.6c2.2,1.7,4.3,3.5,6.3,6.1c1,1.3,1.9,2.7,2.9,4.3
		c1,1.6,1.8,3.5,2.8,5.7c1.3,3.4,2.6,6.5,3.7,9.2c1.2,2.6,2.1,4.8,2.8,6.4c0.5,1.1,8.3,4.3,6.5,2c-0.8-1-1.7-2.2-2.6-3.6
		c-1-1.4-1.9-3.1-2.9-4.9c-1-1.8-2-3.9-3.1-6c-1-2.2-2-4.5-3-6.9c-0.9-2.7-1.3-5.3-1.4-7.6c0-1.2,0-2.3,0.1-3.4
		c0.1-1.1,0.3-2.2,0.5-3.2c0.2-1,0.5-2,0.8-3c0.3-1,0.7-1.9,1.1-2.9c0.8-1.9,1.6-3.6,2.4-5.4c0.8-1.8,1.6-3.5,2.3-5.4
		c0.7-1.8,1.3-3.7,1.6-5.7c0.8-4.1,0.5-8.6-1-14.6c-1.2,1.6-2.7,3.2-4.2,4.9c-1.5,1.7-3,3.5-4.5,5.4c-1.5,1.9-2.8,4-3.9,6.2
		c-1.1,2.2-1.8,4.7-2.2,7.4c-1.1-5.5-2-10.5-2.4-14.5c0.1-1.4,0.5-2.6,1-3.8c0.6-1.2,1.4-2.3,2.3-3.4c0.9-1.1,1.9-2.1,3-3.1
		c1.1-1,2.2-2.1,3.3-3.2l0,0c1.4-1.4,2.8-2.9,4.1-4.5c1.3-1.7,2.4-3.5,3.3-5.6c0.4-1.1,0.8-2.2,1.1-3.4c0.3-1.2,0.6-2.5,0.7-3.9
		c0.1-1.4,0.2-2.9,0.2-4.5c0-0.8-0.1-1.6-0.1-2.5c0-0.9-0.1-1.8-0.2-2.7c-1,2.5-4.9,4.4-9.1,7.1c-4.2,2.8-8.8,6.5-11,12.5
		c0,0,0-0.3,0-0.8c0-0.5,0-1.3,0-2.2c0-0.9,0-2,0-3.1c0-1.1,0.1-2.4,0.1-3.6c0.1-2.5,0.2-4.9,0.4-6.7c0.1-1.8,0.2-3.1,0.2-3.1
		c1.3-1.8,3.3-3.1,5.5-4.4c2.2-1.3,4.6-2.6,6.8-4.3c1.1-0.8,2.1-1.8,3-2.9c0.9-1.1,1.6-2.4,2.3-3.9c0.6-1.5,1-3.2,1.4-5.2
		c0.3-2,0.3-4.3,0.2-7c-0.9,2.9-3.6,3.8-7,5c-3.4,1.3-7.3,2.9-10.3,7.7c0,0,0.2-1.4,0.5-2.9c0.4-1.9,1.5-7.5,2.5-8.5
		c1.5-1.6,5.4-2.4,7-4.4c3.3-4.1,6.2-9.6,8.1-19.1c-4.9,6.5-9.4,5.7-12.9,10.9c0.3-1.4,0.7-2.7,1-3.9
		C94.4,247.3,98.5,244.4,101.9,236.4L101.9,236.4z"/>
	<path class="st18" d="M513.9,236.4c-2.3-5.2-1.2-9.2-5-20.1c3.6,4,7.7,5.5,13,12.1c0.5,0.6,0.9,1.1,1.3,1.7c0.4,0.6,0.7,1.1,1,1.7
		c0.6,1.1,1.1,2.2,1.5,3.2c0.8,2.1,1,4.2,1.1,6.2c0.1,4-0.5,7.7-0.5,11.7c0.1,0.3,0.2,0.7,0.3,1c0.2-2.7,1.4-4.3,2.5-6.1
		c1.1-1.8,2-3.9,1.6-7.6c0.9,1.8,1.6,3.8,2.1,5.9c0.5,2,0.7,4.2,0.6,6.2c-0.2,4.1-1.4,7.9-4.3,10.5c0.2,0.7,0.4,1.4,0.5,2
		c0,0,0.3,1.1,0.6,2.2c0.2,1.1,0.5,2.2,0.5,2.2c0.9-3.7,3.5-5.7,5.8-7.9c1.2-1.1,2.2-2.2,2.9-3.5c0.7-1.3,1-2.9,0.6-5
		c1.2,2.5,2,4.8,2.5,6.9c0.5,2.1,0.7,3.9,0.7,5.6c-0.1,3.3-1,5.9-2.3,8c-1.3,2.1-2.8,3.8-4.3,5.4c-1.4,1.6-2.7,3.1-3.3,5
		c0,0,0.2,1,0.3,2.5c0.2,1.5,0.5,3.5,0.7,5.5c0.2,2,0.4,4,0.5,5.5c0.1,1.5,0.2,2.5,0.2,2.5c0.3-1.9,0.8-3.6,1.4-5.2
		c0.6-1.5,1.2-2.9,2-4.2c1.4-2.5,3.1-4.6,4.7-6.6c3.1-3.9,5.7-7.3,4.3-12.6c0.8,1.5,1.4,3,2,4.4c0.5,1.4,0.9,2.8,1.2,4.1
		c0.6,2.7,0.8,5.2,0.7,7.4c-0.1,2.3-0.6,4.4-1.2,6.3c-0.6,1.9-1.5,3.7-2.5,5.3c-4,6.5-9.9,10.6-12,15.2c0,0,0,0.1,0,0.4
		c0,0.3,0,0.6,0,1.1c0,0.9-0.1,2.1-0.1,3.3c0,1.2-0.1,2.4-0.1,3.2c0,0.9-0.1,1.5-0.1,1.5s-0.1,1.4-0.2,2.8c0,0.7-0.1,1.4-0.1,1.9
		c0,0.5-0.1,0.9-0.1,0.9c0.7-2,1.5-3.8,2.4-5.5c1.2-2.2,2.5-4,4-5.8c1.5-1.7,3-3.3,4.6-4.9c1.6-1.6,3.3-3.2,4.9-5
		c1.6-1.8,3.2-3.7,4.7-6c1.6,9.7,0.5,17-1.8,22.6l0,0c-1.4,3.7-3.5,6.6-5.6,9.1c-2.1,2.5-4.5,4.5-6.6,6.5c-2.2,1.9-4.3,3.8-6.1,5.8
		c-0.9,1-1.7,2.1-2.4,3.2c-0.3,0.6-0.7,1.2-0.9,1.8c-0.3,0.6-0.6,1.3-0.8,2c-0.4,1.8-0.8,3.6-1.2,5.3c1.5-2,3.3-3.6,6.1-4.4
		c2.7-0.8,6.3-0.8,11,0.4c-3.7,5.7-8.2,8.2-12.6,11.6c-2.2,1.7-4.3,3.5-6.3,6.1c-1,1.3-1.9,2.7-2.9,4.3c-1,1.6-1.8,3.5-2.8,5.7
		c-1.3,3.4-2.6,6.5-3.7,9.2c-1.2,2.6-2.1,4.8-2.8,6.4c-0.5,1.1-8.3,4.3-6.5,2c0.8-1,1.7-2.2,2.6-3.6c1-1.4,1.9-3.1,2.9-4.9
		c1-1.8,2-3.9,3.1-6c1-2.2,2-4.5,3-6.9c0.9-2.7,1.3-5.3,1.4-7.6c0-1.2,0-2.3-0.1-3.4c-0.1-1.1-0.3-2.2-0.5-3.2c-0.2-1-0.5-2-0.8-3
		c-0.3-1-0.7-1.9-1.1-2.9c-0.8-1.9-1.6-3.6-2.4-5.4c-0.8-1.8-1.6-3.5-2.3-5.4c-0.7-1.8-1.3-3.7-1.6-5.7c-0.8-4.1-0.5-8.6,1-14.6
		c1.2,1.6,2.7,3.2,4.2,4.9c1.5,1.7,3,3.5,4.5,5.4c1.5,1.9,2.8,4,3.9,6.2c1.1,2.2,1.8,4.7,2.2,7.4c1.1-5.5,2-10.5,2.4-14.5
		c-0.1-1.4-0.5-2.6-1-3.8c-0.6-1.2-1.4-2.3-2.3-3.4c-0.9-1.1-1.9-2.1-3-3.1c-1.1-1-2.2-2.1-3.3-3.2l0,0c-1.4-1.4-2.8-2.9-4.1-4.5
		c-1.3-1.7-2.4-3.5-3.3-5.6c-0.4-1.1-0.8-2.2-1.1-3.4c-0.3-1.2-0.6-2.5-0.7-3.9c-0.1-1.4-0.2-2.9-0.2-4.5c0-0.8,0.1-1.6,0.1-2.5
		c0-0.9,0.1-1.8,0.2-2.7c1,2.5,4.9,4.4,9.1,7.1c4.2,2.8,8.8,6.5,11,12.5c0,0,0-0.3,0-0.8c0-0.5,0-1.3,0-2.2c0-0.9,0-2,0-3.1
		c0-1.1-0.1-2.4-0.1-3.6c-0.1-2.5-0.2-4.9-0.4-6.7c-0.1-1.8-0.2-3.1-0.2-3.1c-1.3-1.8-3.3-3.1-5.5-4.4c-2.2-1.3-4.6-2.6-6.8-4.3
		c-1.1-0.8-2.1-1.8-3-2.9c-0.9-1.1-1.6-2.4-2.3-3.9c-0.6-1.5-1-3.2-1.4-5.2c-0.3-2-0.3-4.3-0.2-7c0.9,2.9,3.6,3.8,7,5
		c3.4,1.3,7.3,2.9,10.3,7.7c0,0-0.2-1.4-0.5-2.9c-0.4-1.9-1.5-7.5-2.5-8.5c-1.5-1.6-5.4-2.4-7-4.4c-3.3-4.1-6.2-9.6-8.1-19.1
		c4.9,6.5,9.4,5.7,12.9,10.9c-0.3-1.4-0.7-2.7-1-3.9C521.4,247.3,517.3,244.4,513.9,236.4L513.9,236.4z"/>
</g>
</svg>
