<svg xmlns="http://www.w3.org/2000/svg" xmlns:xlink="http://www.w3.org/1999/xlink" width="74.241" height="74.241" viewBox="0 0 74.241 74.241"><defs><style>.a,.h{fill:#085f97;}.a,.o,.p,.r{stroke:#085f97;}.a,.c,.l,.o,.p,.q,.r{stroke-miterlimit:10;}.a,.o,.p{stroke-width:4.819px;}.b{clip-path:url(#a);}.c,.l,.p,.q{fill:none;}.c{stroke:rgba(34,184,202,0.1);}.c,.q{stroke-width:2.409px;}.d{fill:rgba(8,95,151,0.15);}.e{fill:#e79f0f;}.f{fill:#a86741;}.g{fill:#81411e;}.i{fill:#36aae1;}.j{fill:#3a8e36;}.k,.o{fill:#fefefe;}.l,.q{stroke:#e31e24;}.l{stroke-linecap:round;stroke-width:0.803px;}.m{fill:#255027;}.n{fill:#317330;}.r{fill:#eef9ff;stroke-width:1.606px;}.s{opacity:0.15;}</style><clipPath id="a"><path d="M119.866,97.7A21.366,21.366,0,1,1,98.5,119.066,21.365,21.365,0,0,1,119.866,97.7Z" transform="translate(-98.5 -97.7)"/></clipPath></defs><g transform="translate(-3.341 -2.539)"><g transform="translate(6.1 5.3)"><path class="a" d="M40.482,5.3,52.7,12.033l12.088,3.345,3.851,13.41L74.821,39.7,68.088,51.911,64.729,63.985l-13.4,3.88L40.425,74.021l-12.2-6.733L16.15,63.943l-3.88-13.4L6.1,39.64l6.719-12.215L16.178,15.35l13.4-3.865Z" transform="translate(-6.1 -5.3)"/><g transform="translate(12.988 12.988)"><g class="b"><path class="c" d="M119.866,97.7A21.366,21.366,0,1,1,98.5,119.066,21.365,21.365,0,0,1,119.866,97.7Z" transform="translate(-98.5 -97.7)"/><path class="d" d="M120.719,120.5a18.512,18.512,0,0,1,16.53-6.044,18.606,18.606,0,0,0-12.271,9.165,18.781,18.781,0,0,1-4.259-3.12Zm5.116,3.556a18.6,18.6,0,0,1,12.243-8.8,18.533,18.533,0,0,0-7.759,10.233q-.822-.148-1.645-.38a24.487,24.487,0,0,1-2.839-1.054Zm3.106,1.813c.408.112.8.211,1.209.3a17.839,17.839,0,0,0-.6,4.906q-.822-.148-1.645-.38a18.443,18.443,0,0,1-4.048-1.673c.042-.2.1-.408.155-.6a18.972,18.972,0,0,1,1.574-3.894A16.781,16.781,0,0,0,128.942,125.869Zm-.8,5.58a10.324,10.324,0,0,0,1.42.323,18.569,18.569,0,0,0,4.793,11.554,18.535,18.535,0,0,1-4.161-11.442,16.67,16.67,0,0,0,13.339-3.866,18.526,18.526,0,0,1-13.339,3.163,17.62,17.62,0,0,1,.689-4.554c.028-.112.056-.211.084-.309a16.651,16.651,0,0,0,13.353-3.865,18.468,18.468,0,0,1-13.143,3.177,18.451,18.451,0,0,1,9.038-10.472,18.428,18.428,0,0,1,6.972,4.076c.126.112.239.225.365.337.323.309.633.647.928.984.267.309.548.633.787.956a18.565,18.565,0,0,1-1.054,23.882,19.106,19.106,0,0,0,1.6-24.978c-.309-.394-.618-.787-.956-1.167-.183-.2-.351-.38-.548-.576-.141-.155-.309-.309-.464-.464a18.86,18.86,0,0,0-4.61-3.261c-.408-.2-.829-.394-1.237-.576-.267-.112-.548-.211-.829-.309a4.754,4.754,0,0,0-.478-.155c-.309-.1-.6-.2-.914-.281A19.069,19.069,0,0,0,120,119.74l-.028.028a19.064,19.064,0,0,0-2.193,3.247c-.056.112-.126.225-.183.351a20.675,20.675,0,0,0-1.349,3.472,19.033,19.033,0,0,0,3.444,17.022,18.515,18.515,0,0,1-1.49-19.693c.028-.07.084-.141.112-.211a16.933,16.933,0,0,1,2.376-3.374,16.543,16.543,0,0,0,4.076,3.5,18.629,18.629,0,0,0-1.378,3.514c-.084.337-.183.675-.253,1.026a18.1,18.1,0,0,1-3.641-2.952,16.692,16.692,0,0,0,3.556,3.4,18.523,18.523,0,0,0,3.612,14.984,18.472,18.472,0,0,1-2.91-14.52,17.93,17.93,0,0,0,4.386,1.912Z" transform="translate(-113.143 -110.772)"/><path class="e" d="M194.715,118.62l-1.518-6.747a2.894,2.894,0,0,0,1.94-1.518c-2.376,2.882-5.932-.829-9.038-1.6v-.3a.935.935,0,0,0,.464-.745.791.791,0,0,0-.2-.506.736.736,0,0,0,.2-.506,1.089,1.089,0,0,0-.857-.942,9.176,9.176,0,0,0-.633-1.659,9.968,9.968,0,0,0-.633,1.659,1.089,1.089,0,0,0-.857.942.763.763,0,0,0,.2.506.737.737,0,0,0-.2.506.916.916,0,0,0,.464.745v.3c-3.106.773-6.663,4.484-9.038,1.6a2.854,2.854,0,0,0,1.94,1.518l-1.518,6.747H174.6a2.744,2.744,0,0,0,5.4,0h-.829l-1.5-6.677c2.01-.028,4.442-1.574,6.438-1.574.042-.112.084-.211.126-.309a.978.978,0,0,1,.843-.6.959.959,0,0,1,.843.6c.042.084.084.2.126.309,1.982-.014,4.428,1.546,6.438,1.574l-1.5,6.677h-.815a2.744,2.744,0,0,0,5.4,0Zm-16.123,0h-2.558l1.279-5.679Zm12.988,0,1.279-5.679,1.279,5.679Z" transform="translate(-163.903 -103.2)"/><path class="f" d="M238.436,144.711a6.719,6.719,0,0,0-.394,1.378,22.455,22.455,0,0,0-.351,4.1,25.366,25.366,0,0,0,.436,4.934.966.966,0,0,0-.436.787.939.939,0,0,0,.365.745l-.576,1.293a.225.225,0,0,0,.014.211,32.39,32.39,0,0,1,1.631,3.078,24.746,24.746,0,0,1,1.616-3.078.274.274,0,0,0,0-.211l-.618-1.237a.933.933,0,0,0-.028-1.56,26.512,26.512,0,0,0,.436-4.934,22.458,22.458,0,0,0-.351-4.1,7,7,0,0,0-.394-1.378c-.07-.155-.281-.647-.675-.647-.394-.028-.6.464-.675.618Zm1.813,13.325-.914,1.645v-1.645a.239.239,0,0,0-.478,0v1.645l-.914-1.659.52-1.167h1.181Zm-.2-2.123a.483.483,0,0,1-.478.478h-.942a.483.483,0,0,1-.478-.478.476.476,0,0,1,.309-.436,4.685,4.685,0,0,1,1.11-.028A.462.462,0,0,1,240.053,155.914Zm-.323-9.657a23.7,23.7,0,0,1,.323,3.936,25.86,25.86,0,0,1-.408,4.779h-1.068a25.976,25.976,0,0,1-.408-4.779,22.057,22.057,0,0,1,.323-3.936c.253-1.335.534-1.687.618-1.715.084.014.365.38.618,1.715Z" transform="translate(-217.928 -137.571)"/><path class="g" d="M180.991,363.422l-10.416-5.482-10.416,5.482a1.82,1.82,0,0,1-2.46-.773l10.922-5.749,1.968,1.026,1.968-1.026,10.922,5.749a1.89,1.89,0,0,1-2.488.773Z" transform="translate(-149.379 -320.466)"/><g transform="translate(20.888 12.482)"><path class="f" d="M247.1,215.6a.3.3,0,1,0,.3-.3A.306.306,0,0,0,247.1,215.6Z" transform="translate(-247.1 -211.252)"/><path class="f" d="M247.1,186.8v2.9a.3.3,0,0,0,.59,0v-2.9a.3.3,0,0,0-.59,0Z" transform="translate(-247.1 -186.5)"/></g><path class="h" d="M262.306,278.7v5.538c-4.582,1.349-11.189,3.809-8.307,4.02a64.569,64.569,0,0,1,9.755-3.6v-5.524c0-.253-.38-.436-.829-.436Z" transform="translate(-231.536 -253.258)"/><path class="h" d="M172.148,278.7v5.538c4.582,1.349,11.189,3.809,8.307,4.02a64.568,64.568,0,0,0-9.755-3.6v-5.524c0-.253.38-.436.829-.436Z" transform="translate(-160.551 -253.258)"/><g transform="translate(12.229 23.926)"><path class="i" d="M186.343,270.245c1.448-.141,6.114.928,8,3.106a.272.272,0,0,1,.112.225v-2.319a.317.317,0,0,0-.112-.225c-1.869-2.165-6.564-3.247-8-3.106h0a1.263,1.263,0,0,0-.59.127c-.155.084-.253.2-.253.309v2.319c0-.126.084-.225.253-.309a1.465,1.465,0,0,1,.59-.127Z" transform="translate(-185.5 -267.914)"/><path class="i" d="M257.311,270.245c-1.448-.141-6.115.928-8,3.106a.272.272,0,0,0-.112.225v-2.319a.317.317,0,0,1,.112-.225c1.87-2.165,6.564-3.247,8-3.106h0a1.263,1.263,0,0,1,.59.127c.155.084.253.2.253.309v2.319c0-.126-.084-.225-.253-.309a1.465,1.465,0,0,0-.59-.127Z" transform="translate(-240.246 -267.914)"/><path class="j" d="M185.776,304.892s6.4,1.729,8.968,3.711v-2.446a.317.317,0,0,0-.112-.225c-1.869-2.165-6.564-3.247-8-3.106h0a1.264,1.264,0,0,0-.59.126c-.155.084-.253.2-.253.309,0,.323-.028.984-.014,1.631Z" transform="translate(-185.734 -297.908)"/><path class="j" d="M258.068,304.892s-6.4,1.729-8.968,3.711v-2.446a.317.317,0,0,1,.112-.225c1.869-2.165,6.564-3.247,8-3.106h0a1.264,1.264,0,0,1,.59.126c.155.084.253.2.253.309C258.054,303.585,258.082,304.245,258.068,304.892Z" transform="translate(-240.16 -297.908)"/><path class="k" d="M186.343,287.1c1.448-.141,6.114.928,8,3.106a.272.272,0,0,1,.112.225v-2.572a.317.317,0,0,0-.112-.225c-1.869-2.165-6.564-3.247-8-3.106h0a1.264,1.264,0,0,0-.59.127c-.155.084-.253.2-.253.309v2.572c0-.126.084-.225.253-.309a1.263,1.263,0,0,1,.59-.126Z" transform="translate(-185.5 -282.18)"/><path class="l" d="M194.454,287.757a.317.317,0,0,0-.112-.225c-1.869-2.165-6.564-3.247-8-3.106a1.263,1.263,0,0,0-.59.126c-.155.084-.253.2-.253.309m0,2.586c0-.309.492-.436.829-.436,1.448-.141,6.114.928,8,3.106a.272.272,0,0,1,.112.225v-.1" transform="translate(-185.5 -282.094)"/><path class="k" d="M257.311,287.1c-1.448-.141-6.115.928-8,3.106a.272.272,0,0,0-.112.225v-2.572a.317.317,0,0,1,.112-.225c1.87-2.165,6.564-3.247,8-3.106h0a1.264,1.264,0,0,1,.59.127c.155.084.253.2.253.309v2.572c0-.126-.084-.225-.253-.309a1.263,1.263,0,0,0-.59-.126Z" transform="translate(-240.246 -282.18)"/><path class="l" d="M249.114,287.757a.317.317,0,0,1,.112-.225c1.87-2.165,6.564-3.247,8-3.106a1.263,1.263,0,0,1,.59.126c.155.084.253.2.253.309m-.014,2.586c0-.126-.084-.225-.253-.309a1.263,1.263,0,0,0-.59-.127c-1.448-.141-6.114.928-8,3.106a.272.272,0,0,0-.112.225v-.1" transform="translate(-240.16 -282.094)"/><path class="m" d="M194.626,319.622c-1.1-1.181-6.044-3.4-8.926-3.922v.253h.028c.38.112,6.4,1.771,8.9,3.669Z" transform="translate(-185.672 -308.983)"/><path class="n" d="M185.8,315.164c2.882.506,7.815,2.741,8.926,3.922v-.1c-.028-.028-.042-.056-.07-.084-1.04-1.195-5.805-4.076-8.406-3.809a3.048,3.048,0,0,0-.45.07Z" transform="translate(-185.758 -308.447)"/><path class="m" d="M249.6,319.622c1.1-1.181,6.044-3.4,8.926-3.922v.253H258.5c-.379.112-6.4,1.771-8.9,3.669Z" transform="translate(-240.59 -308.983)"/><path class="n" d="M258.426,315.164c-2.882.506-7.815,2.741-8.926,3.922v-.1c.028-.028.042-.056.07-.084,1.04-1.195,5.805-4.076,8.406-3.809A3.8,3.8,0,0,1,258.426,315.164Z" transform="translate(-240.504 -308.447)"/></g><path class="f" d="M180.991,325.363l-10.416,4.414-10.416-4.414a2.07,2.07,0,0,0-2.46.6l10.922,4.625,1.968.829,1.968-.829,10.922-4.625a2.127,2.127,0,0,0-2.488-.6Z" transform="translate(-149.379 -293.216)"/></g></g><g transform="translate(5.496 5.496)"><path class="o" d="M77.445,44.6a29.835,29.835,0,0,0-3.388-.2,27.659,27.659,0,0,0-3.261.183,28.692,28.692,0,0,0-14.6,6.016,29.256,29.256,0,0,0-4.723,4.695A28.787,28.787,0,0,0,45.4,69.87a29.835,29.835,0,0,0-.2,3.388,27.658,27.658,0,0,0,.183,3.261,28.691,28.691,0,0,0,6.016,14.6,29.255,29.255,0,0,0,4.695,4.723,28.788,28.788,0,0,0,14.576,6.072,29.835,29.835,0,0,0,3.388.2,27.66,27.66,0,0,0,3.261-.183,28.692,28.692,0,0,0,14.6-6.016,29.255,29.255,0,0,0,4.723-4.695,28.787,28.787,0,0,0,6.072-14.576,29.836,29.836,0,0,0,.2-3.388A27.658,27.658,0,0,0,102.732,70a28.691,28.691,0,0,0-6.016-14.6,29.255,29.255,0,0,0-4.695-4.723A28.615,28.615,0,0,0,77.445,44.6Z" transform="translate(-45.2 -44.4)"/><path class="h" d="M125.978,69.512l.2.127a.107.107,0,0,0,.056.028.049.049,0,0,0,.028-.014l1.813-1.293-.1-.436.281-.1.056.07c.239.309.492.6.7.928.351.492.59,1.11.014,1.518a.856.856,0,0,1-.7.141.845.845,0,0,1-.38.8.808.808,0,0,1-.38.155.643.643,0,0,1-.365-.028,1.062,1.062,0,0,1-.323-.183,2.352,2.352,0,0,1-.436-.478c-.239-.323-.464-.675-.675-1.012l-.042-.07.028-.028-.815-.942.169-.253.337.169a.014.014,0,0,1,.014.014v-.014h0l.253-.464-.576-.661-.492.2.141.394-.267.127-.773-.886.169-.253.337.169a.2.2,0,0,0,.042.028c.028,0,.07-.028.084-.028l2.558-1,.323.211.07.183L125.88,69.1l.1.408Zm-5.9-5.524.225.056c.014,0,.056.014.07.014s.028-.028.028-.028l1.293-1.813-.239-.38.225-.2,1.054.745-.1.281-.38-.084c-.014,0-.056-.014-.07-.014s-.028.028-.028.028l-.478.675,1.237-.211-.183-.3.239-.2.984.7-.1.281-.365-.084h0c-.014,0-.028,0-.028-.014a.085.085,0,0,1-.056-.014h-.028c-.014,0-.028,0-.028.014-.028,0-.056.014-.084.014l-1.181.211.07,1.588.253.422-.239.2-.647-.464-.084-1.813-.562.8.239.38-.225.2-1.054-.745.014-.028-1.068-.618.084-.3.38.042h.014v-.014h0l.084-.52-.759-.436-.408.351.253.323-.211.211-1.026-.59v-.014l-1.068-.436.028-.3.323-.028c.028,0,.084-.014.084-.028l.52-1.518-1.363,1.574-.408-.028-.126-.141.126-2.094-.675,1.476.267.3-.183.239-1.054-.422.028-.3.38-.014a.209.209,0,0,0,.084-.014.044.044,0,0,0,.014-.028l.928-2.024-.309-.309.183-.239.97.38.084.141-.141,2.151,1.462-1.729,1.04.422-.028.3-.38.014c-.028,0-.07,0-.084.028l-.731,2.108.267.253.239.028c.014,0,.042.014.056.014a.14.14,0,0,0,.07-.056l2.094-1.771.38.084.127.141-.506,2.825.183.337Zm-9.558-6.353.112-.253,1.251.225.028.3-.323.084a.044.044,0,0,0-.028.014l.365.829.618-.661-.309-.2.127-.267,1.181.211.028.3-.365.084a.151.151,0,0,0-.084.028l-.07.07-.956,1.012-.183.97.38.239-.126.267-1.265-.225-.028-.3.38-.084a.148.148,0,0,0,.07-.028.049.049,0,0,1,.014-.028l.169-.914-.6-1.42-.323-.225v.014l-.365.1a.149.149,0,0,0-.07.028.049.049,0,0,1-.014.028l-.309,2.207.38.211-.112.267-1.279-.155-.028-.155v.141l-2.305-.07-.07-.3.351-.141a.206.206,0,0,0,.056-.028v-.028l.07-2.221-.408-.183.084-.281,1.293.028.07.3-.351.141a.206.206,0,0,0-.056.028v.028l-.07,2.207.815.014.239-.408.309.084-.014.562.337-.084a.149.149,0,0,0,.07-.028.049.049,0,0,1,.014-.028l.267-2.207-.38-.211.112-.267,1.279.155.028.225ZM99.805,60.9l.2-.141c.014-.014.042-.028.056-.042v-.028l-.492-2.165-.436-.07.014-.3.084-.028c.323-.084.661-.2,1-.267.633-.141,1.293-.084,1.462.647a.892.892,0,0,1-.422,1.012l.014.014c.127.141.253.3.38.436a1.918,1.918,0,0,0,.239.239.679.679,0,0,0,.436.112h.127l-.014.323-.6.2-.042-.028a2.2,2.2,0,0,1-.478-.323c-.084-.084-.155-.169-.239-.253-.127-.141-.239-.3-.351-.436a.065.065,0,0,0-.07-.042l-.141.028.183.8.436.084-.014.3-1.237.281-.014-.028-1.153.45-.183-.239.267-.253.014-.014v-.014h0l-.351-.394-.829.309.028.534.408.014.028.3-1.1.436v-.014l-1.926.97-.014-.028-1.054.661-.225-.2L94,63.425l.014-.014H94l-.422-.323-.745.478.127.52L93.368,64l.084.281-1,.633-.225-.2.211-.309c.014-.014.028-.028.028-.042s-.014-.07-.014-.084l-.6-2.671.253-.3.2-.028,2.263,1.743.38-.07.155-.2c.014-.014.028-.042.042-.056a.049.049,0,0,0-.014-.028l-1-1.982-.436.028-.056-.3,1.153-.576.2.225-.253.281c-.014.014-.028.042-.042.056a.049.049,0,0,0,.014.028l1,1.968.717-.38.014-.478.309-.084.211.436.112-.1.028-.028V61.7l-.084-2.727.309-.239h.2l1.912,2.151.38.014Zm-15.87,9.586a1.832,1.832,0,0,0-.211.281.6.6,0,0,0-.1.436.383.383,0,0,0,.141.112.388.388,0,0,0,.478-.07l.492-.394a.932.932,0,0,1,1.125-.112.8.8,0,0,1,.436.618,1.3,1.3,0,0,1-.2.787,1.527,1.527,0,0,1-.886.731l-.084.028-.38-.661.2-.2.436.169a1.011,1.011,0,0,0,.253-.3c.127-.211.253-.492-.014-.647a.253.253,0,0,0-.225-.028.774.774,0,0,0-.323.2l-.436.351a.906.906,0,0,1-1.476-.534,1.351,1.351,0,0,1,.183-.8,1.146,1.146,0,0,1,.829-.6l.084-.028.309.661-.2.2-.436-.2Zm.7-1.349-.337.2-.183-.239.773-1,.239.169-.084.323h0c0,.014-.014.056-.014.07a.03.03,0,0,0,.028.028l1.1.871a.907.907,0,0,0,.59.225.572.572,0,0,0,.45-.253,1.258,1.258,0,0,0,.239-.45A1.016,1.016,0,0,0,87,68.514l-1.153-.9-.38.211-.183-.239L86,66.672l.267.112-.084.309c-.014.042-.014.07.028.1l1.11.871a1.482,1.482,0,0,1,.6.843,1.259,1.259,0,0,1-.309.9,1.159,1.159,0,0,1-1.813.225l-1.167-.9Zm2.221-2.727-.408.183-.155-.253.056-.07c.281-.309.562-.647.857-.956a1.458,1.458,0,0,1,2.319-.028,1.512,1.512,0,0,1,.562,1.181,2.432,2.432,0,0,1-.717,1.279c-.07.084-.141.141-.225.225-.169.169-.337.323-.506.492l-.07.056-.253-.141.141-.351a.148.148,0,0,0,.028-.07.03.03,0,0,0-.028-.028l-1.6-1.518Zm3.711-1.771-1.462-.492-.408.1-.112-.267,1-.787.239.169-.141.309a.049.049,0,0,0-.014.028l.857.281-.084-.9-.365.1-.112-.267.942-.731.239.183-.183.323a.2.2,0,0,0-.028.084v.1l.127,1.392.6.773L92.1,64.9l.112.267-1.012.8-.239-.183.183-.323a.107.107,0,0,0,.028-.056.049.049,0,0,0-.014-.028l-.59-.745Zm12.665-5.721a1.829,1.829,0,0,1,.07-.731,1.42,1.42,0,0,1,.309-.548,1.648,1.648,0,0,1,1.054-.492,1.4,1.4,0,0,1,1.068.351,1.657,1.657,0,0,1,.492,1.139,1.736,1.736,0,0,1-.07.717,1.42,1.42,0,0,1-.309.548,1.6,1.6,0,0,1-1.04.478,1.4,1.4,0,0,1-1.068-.351,1.529,1.529,0,0,1-.506-1.11Zm21.843,6.058L123.5,66.6l.183.408-.253.155-.928-.886.141-.253.351.141a.148.148,0,0,0,.07.028.03.03,0,0,0,.028-.028l1.532-1.616-.309-.281-.478.155-.141-.253.576-.6,1.813,1.743-.576.6-.253-.141.141-.492-.323-.309Zm2.98,7.576.056.436-.3.084-.647-1.125.211-.211.309.225a.106.106,0,0,0,.056.028.049.049,0,0,0,.028-.014l1.926-1.125-.056-.436.3-.084.647,1.124-.211.211-.309-.225a.106.106,0,0,0-.056-.028.049.049,0,0,0-.028.014l-1.926,1.125ZM87.281,65.955l1.631,1.56.239-.239a1.528,1.528,0,0,0,.436-.7,1.376,1.376,0,0,0-.464-.773,1.578,1.578,0,0,0-.829-.464.776.776,0,0,0-.675.267l-.337.351Zm5.215-3.7.2.815.464-.3Zm5.046-2.53.028.829.52-.2-.548-.633Zm2.825-.394.169-.028a1.276,1.276,0,0,0,.436-.169.468.468,0,0,0,.084-.141.462.462,0,0,0-.014-.239.631.631,0,0,0-.225-.38.529.529,0,0,0-.436-.056l-.225.056h0l.211.956Zm3.7-1.462a1.571,1.571,0,0,0-.169.914,1.4,1.4,0,0,0,.3.843.782.782,0,0,0,.661.239,1.113,1.113,0,0,0,.562-.183,1.4,1.4,0,0,0,.169-.886,1.447,1.447,0,0,0-.3-.871.753.753,0,0,0-.661-.239A.994.994,0,0,0,104.064,57.873Zm15.5,3.612-.633.548.492.281Zm6.747,5.524-.773.309.365.422Zm1.026,2.643-.745.534c.056.1.141.2.2.281a2.076,2.076,0,0,0,.38.408.421.421,0,0,0,.337-.1c.309-.225.3-.464.084-.773l-.253-.351Zm1.1-.787-.717.506c.056.084.112.183.169.253a1.1,1.1,0,0,0,.337.337.418.418,0,0,0,.309-.084.64.64,0,0,0,.239-.309.514.514,0,0,0-.127-.394l-.211-.309Z" transform="translate(-77.821 -55.315)"/><path class="h" d="M87.863,337.148l-.169-.281h0v-.014h-.028l-1.448.914.056.323-.183.056-.492-.787.141-.141.211.141a.107.107,0,0,0,.056.028.049.049,0,0,0,.028-.014l1.42-.9-.2-.3-.38.028-.056-.2.492-.309,1,1.574-.492.309-.141-.126.183-.309Zm.1,3.12.084.309-.183.07-.548-.759.127-.141.225.141a.106.106,0,0,0,.056.028.049.049,0,0,0,.028-.014l.548-.394-.548-.773-.59.422.084.309-.183.07-.548-.759.127-.141.225.141a.107.107,0,0,0,.056.028.049.049,0,0,0,.028-.014l1.363-.984-.084-.309.183-.07.548.759-.127.141-.225-.141a.107.107,0,0,0-.056-.028.049.049,0,0,0-.028.014l-.506.379.548.773.548-.394-.084-.309.183-.07.548.759-.127.141-.225-.141a.106.106,0,0,0-.056-.028.049.049,0,0,0-.028.014l-1.363.97Zm1.631.309A5.676,5.676,0,0,0,90,341l.1.1-.014.126-.253.141-.028-.042c-.141-.183-.281-.365-.436-.534l-.534.464.422.464.337-.084.1.2-.436.38-1.11-1.265.1-.155.239.112a.106.106,0,0,0,.056.028.03.03,0,0,0,.028-.028l1.265-1.11-.1-.309.169-.084,1.1,1.251-.436.38-.169-.126.127-.323-.38-.45-.014-.014a.049.049,0,0,0-.028.014l-.506.45Zm2.6,1.757a.447.447,0,0,0-.183-.211.542.542,0,0,0-.309-.155.338.338,0,0,0-.112.084.317.317,0,0,0-.042.38l.2.436a.68.68,0,0,1-.112.815.6.6,0,0,1-.52.2,1.041,1.041,0,0,1-.534-.281,1.231,1.231,0,0,1-.38-.773v-.056l.52-.141.084.155-.2.281a.727.727,0,0,0,.169.253c.141.141.337.281.492.1a.245.245,0,0,0,.084-.169.6.6,0,0,0-.084-.267l-.183-.38a.617.617,0,0,1,.112-.745.611.611,0,0,1,.534-.2,1.179,1.179,0,0,1,.548.267.9.9,0,0,1,.3.7v.056l-.506.084-.084-.155.211-.281Zm.745,2.629a.783.783,0,0,0,.436-.323l.689-.871-.155-.281.155-.112.661.52-.084.183-.225-.056a.056.056,0,0,0-.084.028l-.661.829a1.057,1.057,0,0,1-.618.436.877.877,0,0,1-.661-.239.842.842,0,0,1-.155-1.335l.689-.886-.141-.253.155-.112.717.562-.112.155-.225-.056h0c-.014,0-.042-.014-.056-.014a.03.03,0,0,0-.028.028l-.661.829a.754.754,0,0,0-.183.45.528.528,0,0,0,.2.351,1.621,1.621,0,0,0,.351.169Zm1.715.548-.323.506.2.309-.141.127-.815-.534.056-.183.253.042c.014,0,.042.014.056,0s.028-.028.028-.028l.914-1.406-.2-.267.141-.126.042.028c.211.126.436.253.647.394a1.2,1.2,0,0,1,.492.534.639.639,0,0,1-.084.59c-.309.464-.745.38-1.167.112a.649.649,0,0,0-.1-.1Zm1.659,1-.3.576.2.253-.126.141-.829-.422.028-.2.253.028h.056c.014,0,.028-.028.028-.028l.759-1.5-.211-.253.127-.141.042.028c.239.1.478.2.7.309.436.211.773.548.534,1.054a.662.662,0,0,1-.731.379v.028a3.565,3.565,0,0,0,.028.675.572.572,0,0,0,.2.281l.056.042-.141.155-.408-.183-.014-.028a1.964,1.964,0,0,1-.127-.408,5.406,5.406,0,0,1-.014-.675c0-.028,0-.056-.028-.07Zm2.137.618a4.274,4.274,0,0,0,.548.2l.141.042.042.126-.169.239-.056-.028c-.2-.1-.408-.2-.618-.309l-.281.647.576.239.281-.211.169.126-.239.548-1.532-.689.028-.2.267.014h.056c.014,0,.014-.028.028-.028l.689-1.532-.225-.239.127-.141,1.518.675-.239.548-.211-.042-.028-.351-.534-.253h-.014l-.014.028-.309.59Zm3.275,2.305.253.211-.1.155-.871-.281.014-.2.225-.028a.1.1,0,0,0,.084-.042l.351-1.237-1,1.307H100.4l-.084-.084v-1.659l-.492,1.237.211.2-.1.155-.773-.253.014-.2.253-.028c.014,0,.056-.014.07-.014a.049.049,0,0,1,.014-.028l.6-1.574-.253-.211.1-.155.717.239.056.084-.014,1.673,1.04-1.392.773.253-.014.2-.253.028a.151.151,0,0,0-.084.028l-.464,1.616Zm1.476-.731a4.3,4.3,0,0,0,.562.1l.141.028.056.112-.127.253-.056-.028c-.211-.07-.436-.126-.661-.183l-.155.689.6.141.239-.253.2.084-.141.576-1.631-.38-.014-.2.253-.042c.014,0,.042-.014.056-.014s.014-.028.014-.028l.38-1.631-.267-.2.084-.169,1.631.38-.141.576h-.211l-.084-.337-.562-.141h-.014l-.014.028-.141.633Zm2.474-.126c-.028.028-.028.084-.042.141a.3.3,0,0,0,.2.323l.422.211a.644.644,0,0,1,.394.717.608.608,0,0,1-.3.478.947.947,0,0,1-.59.1,1.1,1.1,0,0,1-.759-.38l-.028-.042.323-.436.169.07.014.337a.553.553,0,0,0,.3.084c.2.028.436.028.464-.211a.213.213,0,0,0-.042-.183.676.676,0,0,0-.225-.169l-.38-.2a.615.615,0,0,1-.365-.661.657.657,0,0,1,.3-.492.814.814,0,0,1,.6-.1.922.922,0,0,1,.661.38l.028.042-.351.379-.169-.07.028-.323a1.079,1.079,0,0,0-.267-.07.564.564,0,0,0-.38.07Zm2.052.155a1.021,1.021,0,0,0-.309.731.848.848,0,0,0,.2.661.776.776,0,0,0,.548.253,1.052,1.052,0,0,0,.548-.126l.07-.028.1.211-.028.028a.859.859,0,0,1-.309.183,1.314,1.314,0,0,1-.478.084,1.04,1.04,0,0,1-.773-.337,1.2,1.2,0,0,1-.281-.885,1.15,1.15,0,0,1,1.195-1.167.894.894,0,0,1,.534.169.8.8,0,0,1,.183.2l.028.042-.3.38-.183-.056-.014-.309a1.2,1.2,0,0,0-.323-.042A.665.665,0,0,0,107.725,348.73Zm3.5,1.6.309.112-.042.2-.942.028-.056-.183.239-.112c.014,0,.042-.028.056-.028v-.028l-.028-.675-.942.028.028.717.309.112-.042.2-.942.028-.056-.183.239-.112c.014,0,.042-.028.056-.028v-.028l-.056-1.687-.309-.112.042-.2.942-.028.056.183-.239.112c-.014,0-.042.028-.056.028v.028l.028.633.942-.028-.028-.661-.309-.112.042-.2.942-.028.056.183-.239.112c-.014,0-.042.028-.056.028v.028l.056,1.673Zm.478-.928a1.444,1.444,0,0,1,.028-.548,1.279,1.279,0,0,1,.2-.422,1.133,1.133,0,0,1,.759-.38,1.024,1.024,0,0,1,.8.225,1.165,1.165,0,0,1,.394.829,1.444,1.444,0,0,1-.028.548,1.129,1.129,0,0,1-.211.408,1.1,1.1,0,0,1-.759.38,1.024,1.024,0,0,1-.8-.225,1.3,1.3,0,0,1-.38-.815Zm2.446-.365a1.444,1.444,0,0,1-.028-.548,1.154,1.154,0,0,1,.155-.436,1.136,1.136,0,0,1,.717-.464,1.017,1.017,0,0,1,.829.141,1.24,1.24,0,0,1,.492.773,1.444,1.444,0,0,1,.028.548,1.175,1.175,0,0,1-.169.436,1.136,1.136,0,0,1-.717.464,1.017,1.017,0,0,1-.829-.141,1.447,1.447,0,0,1-.478-.773Zm3.3-.042.6-.225.056-.351.211-.028.2.548-1.6.576-.112-.155.2-.183.042-.042v-.028l-.562-1.574-.323-.014-.014-.2.886-.309.112.155-.2.183-.042.042v.028l.548,1.574Zm1.476-1.434a1.366,1.366,0,0,1-.141-.52.832.832,0,0,1,.084-.45,1.155,1.155,0,0,1,.6-.6,1,1,0,0,1,.829-.028,1.262,1.262,0,0,1,.633.661,1.367,1.367,0,0,1,.141.52.833.833,0,0,1-.084.45,1.206,1.206,0,0,1-.6.6,1,1,0,0,1-.829.028,1.17,1.17,0,0,1-.633-.661Zm2.867-1.265.365.618.337-.042.042.2-.815.478-.141-.141.155-.211a.073.073,0,0,0,.028-.056.049.049,0,0,0-.014-.028l-.843-1.448-.323.042-.042-.2,1.462-.857.3.506-.155.141-.309-.183-.548.309-.014.014a.049.049,0,0,0,.014.028l.309.548.38-.211-.028-.267.183-.042.38.633-.141.141-.183-.141a.073.073,0,0,0-.056-.028.049.049,0,0,0-.028.014Zm1.223-1.912-.309.084-.07-.183.759-.548.141.126-.141.225a.107.107,0,0,0-.028.056.049.049,0,0,0,.014.028l1.139,1.574a.9.9,0,0,1,.07.984l-.028.056-.2-.056v-.056a.749.749,0,0,0-.028-.351.982.982,0,0,0-.183-.337l-1.139-1.6Zm2.98-.211a.822.822,0,0,0-.211-.506l-.689-.871-.309.084-.084-.183.661-.52.155.112-.112.2a.068.068,0,0,0,0,.1l.661.829a1.046,1.046,0,0,1,.281.717.93.93,0,0,1-.38.59.867.867,0,0,1-1.349-.155l-.689-.886-.281.084-.084-.183.717-.562.127.141-.112.211h0a.107.107,0,0,0-.028.056.049.049,0,0,0,.014.028l.661.829a.628.628,0,0,0,.394.267.473.473,0,0,0,.38-.112A.579.579,0,0,0,126,344.176Zm-.141-2.052-.309.127-.084-.169.028-.028c.225-.225.45-.464.689-.675a1.083,1.083,0,0,1,1.715.07,1.151,1.151,0,0,1,.38.9,1.785,1.785,0,0,1-.59.914c-.183.169-.38.337-.576.506l-.028.028-.155-.1.112-.239a.106.106,0,0,0,.028-.056.03.03,0,0,0-.028-.028l-1.181-1.251Zm2.544-2.6a1.438,1.438,0,0,0-.253.253.822.822,0,0,0-.2.337.981.981,0,0,0,.351.717.889.889,0,0,0,.661.253.837.837,0,0,0,.548-.309c.028-.042.084-.084.1-.141.028-.028.028-.07,0-.084l-.3-.253-.281.155-.112-.155.562-.661.2.084-.07.2c0,.014-.014.042-.014.056a.03.03,0,0,0,.028.028l.408.337v.028a1.345,1.345,0,0,1-.337.745,1.051,1.051,0,0,1-.745.408,1.192,1.192,0,0,1-.871-.309,1.336,1.336,0,0,1-.351-.436,1.074,1.074,0,0,1-.112-.464,1.386,1.386,0,0,1,.323-.829.793.793,0,0,1,.717-.323l.042.014.112.464-.155.1-.253-.211Zm1.42-.815a4.194,4.194,0,0,0,.309-.492l.07-.127.127-.014.2.211-.028.042-.422.548.576.408.351-.506-.155-.309.155-.141.492.337-.984,1.363-.183-.07.056-.253c0-.014.014-.042.014-.056s-.028-.028-.028-.028l-1.363-.97-.281.183-.127-.141.97-1.349.492.337-.084.2-.351-.042-.351.464-.014.014a.03.03,0,0,0,.028.028l.534.365Zm.8-2.347a.858.858,0,0,0-.183.211.453.453,0,0,0-.084.323.652.652,0,0,0,.1.1.317.317,0,0,0,.38-.028l.38-.267a.675.675,0,0,1,.829-.028.608.608,0,0,1,.3.478.968.968,0,0,1-.183.576,1.1,1.1,0,0,1-.689.506l-.056.014-.239-.492.141-.126.309.141a.753.753,0,0,0,.211-.211c.1-.155.211-.38.014-.506a.273.273,0,0,0-.183-.042.9.9,0,0,0-.253.141l-.337.253a.613.613,0,0,1-.759.028.662.662,0,0,1-.309-.492.927.927,0,0,1,.169-.576.909.909,0,0,1,.633-.422l.056-.014.2.492-.141.126-.3-.183Zm-35.38,8.209h0l-.436.661a.781.781,0,0,0,.112.084,1.193,1.193,0,0,0,.365.155.348.348,0,0,0,.225-.2c.155-.253.141-.436-.126-.6l-.141-.1c.028.014.014.014,0,0Zm1.195,1.659.141.07a1.361,1.361,0,0,0,.337.112l.127-.042a.552.552,0,0,0,.112-.141.46.46,0,0,0,.056-.337.425.425,0,0,0-.239-.253l-.155-.084a.049.049,0,0,0-.028-.014.014.014,0,0,1-.014.014l-.337.675Zm15.827,2.347a1.127,1.127,0,0,0-.1.717,1.09,1.09,0,0,0,.253.647.581.581,0,0,0,.52.169,1.017,1.017,0,0,0,.436-.155,1.063,1.063,0,0,0,.112-.689,1.131,1.131,0,0,0-.253-.661.581.581,0,0,0-.52-.169.853.853,0,0,0-.45.141Zm2.347-.422a1.243,1.243,0,0,0-.028.717,1.063,1.063,0,0,0,.323.6.565.565,0,0,0,.534.112.791.791,0,0,0,.408-.2,1.358,1.358,0,0,0-.3-1.321.565.565,0,0,0-.534-.112.791.791,0,0,0-.408.2Zm4.582-1.532a1.271,1.271,0,0,0,.112.717,1.075,1.075,0,0,0,.436.534.582.582,0,0,0,.548,0,.886.886,0,0,0,.365-.281,1.154,1.154,0,0,0-.1-.689,1.123,1.123,0,0,0-.436-.548.582.582,0,0,0-.548,0A.787.787,0,0,0,119.195,346.622Zm6.958-4.807c.014,0,.014.014,0,0l1.181,1.251a1.215,1.215,0,0,0,.2-.183,1.348,1.348,0,0,0,.365-.52,1.149,1.149,0,0,0-.323-.618,1.2,1.2,0,0,0-.6-.38.631.631,0,0,0-.548.183l-.253.253c0,.014,0,.014-.014.014Z" transform="translate(-79.921 -294.754)"/><path class="p" d="M114.978,135.355a22.378,22.378,0,1,1,22.378-22.378A22.382,22.382,0,0,1,114.978,135.355Z" transform="translate(-85.937 -84.106)"/><path class="k" d="M121.266,97.7A21.366,21.366,0,1,1,99.9,119.066,21.365,21.365,0,0,1,121.266,97.7Z" transform="translate(-92.211 -90.208)"/><path class="q" d="M121.266,97.7A21.366,21.366,0,1,1,99.9,119.066,21.365,21.365,0,0,1,121.266,97.7Z" transform="translate(-92.211 -90.208)"/><path class="j" d="M55.852,178.263c.253-.59.141-1.04.562-2.263a14.387,14.387,0,0,0-1.462,1.363,1.7,1.7,0,0,0-.141.2,1.4,1.4,0,0,0-.112.2,2.748,2.748,0,0,0-.169.365,2.56,2.56,0,0,0-.127.7c-.014.45.056.871.056,1.321a.331.331,0,0,0-.028.112,1.4,1.4,0,0,0-.281-.689,1.221,1.221,0,0,1-.183-.857,3.351,3.351,0,0,0-.239.661,2.391,2.391,0,0,0-.07.7,1.622,1.622,0,0,0,.492,1.181,1.747,1.747,0,0,0-.056.225s-.028.126-.07.253l-.056.253a1.709,1.709,0,0,0-.661-.886,1.376,1.376,0,0,1-.323-.394.794.794,0,0,1-.07-.562,3.746,3.746,0,0,0-.281.773,2.706,2.706,0,0,0-.084.633,1.839,1.839,0,0,0,.253.9,2.639,2.639,0,0,0,.492.6,1.806,1.806,0,0,1,.38.562,1.276,1.276,0,0,0-.028.281c-.028.169-.056.394-.084.618s-.042.45-.056.618-.028.281-.028.281a2.6,2.6,0,0,0-.155-.59,4.973,4.973,0,0,0-.225-.478,5.043,5.043,0,0,0-.534-.745,1.49,1.49,0,0,1-.492-1.42c-.084.169-.155.337-.225.492s-.1.309-.141.464a3.682,3.682,0,0,0-.084.829,2.9,2.9,0,0,0,.422,1.321c.45.731,1.125,1.195,1.349,1.715v.169c0,.1.014.239.014.38s.014.267.014.365a.951.951,0,0,0,.014.169l.028.309c0,.084.014.155.014.211a.343.343,0,0,0,.014.1,5.106,5.106,0,0,0-.267-.618,4.541,4.541,0,0,0-.45-.661,6.447,6.447,0,0,0-.52-.548c-.183-.183-.38-.365-.548-.562a5.379,5.379,0,0,1-.534-.675,4.686,4.686,0,0,0,.2,2.558h0A3.348,3.348,0,0,0,52,189.227a9.045,9.045,0,0,0,.745.731,6.192,6.192,0,0,1,.689.661,2.209,2.209,0,0,1,.267.365c.028.07.084.141.1.2a1.066,1.066,0,0,1,.084.225c.042.2.084.408.141.6a1.254,1.254,0,0,0-.689-.492,2.5,2.5,0,0,0-1.237.042,5.12,5.12,0,0,0,1.42,1.307,3.655,3.655,0,0,1,.717.689,4.984,4.984,0,0,1,.323.492,5.627,5.627,0,0,1,.309.647c.141.38.3.731.422,1.04s.239.548.309.717c.056.127.942.492.731.225-.084-.112-.2-.253-.3-.408a6.294,6.294,0,0,1-.323-.548c-.112-.2-.225-.436-.351-.675s-.225-.506-.337-.773a3.467,3.467,0,0,1-.155-.857,3.3,3.3,0,0,1,.014-.38,2.846,2.846,0,0,1,.056-.365l.084-.337a3.072,3.072,0,0,1,.127-.323c.084-.211.183-.408.267-.6s.183-.394.253-.6a3.129,3.129,0,0,0,.183-.647,3.81,3.81,0,0,0-.112-1.645c-.141.183-.309.365-.478.548s-.337.394-.506.6a3.937,3.937,0,0,0-.436.7,3.165,3.165,0,0,0-.253.829,16.163,16.163,0,0,1-.267-1.631,1.53,1.53,0,0,1,.112-.436,2.229,2.229,0,0,1,.253-.38,2.64,2.64,0,0,1,.337-.351c.127-.112.253-.239.38-.365h0q.232-.232.464-.506a3.967,3.967,0,0,0,.38-.633l.127-.38a3.986,3.986,0,0,0,.084-.436c.014-.155.028-.323.028-.506,0-.084-.014-.183-.014-.281a2.525,2.525,0,0,0-.028-.309c-.112.281-.548.492-1.026.8a2.85,2.85,0,0,0-1.237,1.406V186.5c0-.126.014-.267.014-.408.014-.281.028-.548.042-.759s.028-.351.028-.351a1.994,1.994,0,0,1,.618-.492,5.908,5.908,0,0,0,.773-.492,1.467,1.467,0,0,0,.337-.323,1.866,1.866,0,0,0,.253-.436,2.993,2.993,0,0,0,.155-.59,6.735,6.735,0,0,0,.028-.787c-.1.323-.408.436-.787.562a2.053,2.053,0,0,0-1.167.872s.028-.155.056-.323a3.483,3.483,0,0,1,.281-.956c.169-.183.6-.267.787-.492a4.61,4.61,0,0,0,.914-2.151c-.548.731-1.054.647-1.462,1.237.028-.155.084-.309.112-.436a15.694,15.694,0,0,0,1.209-1.912Z" transform="translate(-50.258 -157.502)"/><path class="j" d="M412.462,178.263c-.253-.59-.141-1.04-.562-2.263a14.388,14.388,0,0,1,1.462,1.363,1.7,1.7,0,0,1,.141.2,1.4,1.4,0,0,1,.112.2,2.749,2.749,0,0,1,.169.365,2.56,2.56,0,0,1,.127.7c.014.45-.056.871-.056,1.321a.33.33,0,0,1,.028.112,1.4,1.4,0,0,1,.281-.689,1.221,1.221,0,0,0,.183-.857,3.353,3.353,0,0,1,.239.661,2.391,2.391,0,0,1,.07.7,1.622,1.622,0,0,1-.492,1.181,1.76,1.76,0,0,1,.056.225s.028.126.07.253l.056.253a1.709,1.709,0,0,1,.661-.886,1.376,1.376,0,0,0,.323-.394.877.877,0,0,0,.07-.562,3.746,3.746,0,0,1,.281.773,2.706,2.706,0,0,1,.084.633,1.839,1.839,0,0,1-.253.9,2.638,2.638,0,0,1-.492.6,1.807,1.807,0,0,0-.38.562,1.275,1.275,0,0,1,.028.281c.028.169.056.394.084.618s.042.45.056.618.028.281.028.281a2.6,2.6,0,0,1,.155-.59,4.971,4.971,0,0,1,.225-.478,5.044,5.044,0,0,1,.534-.745,1.522,1.522,0,0,0,.492-1.42c.084.169.155.337.225.492s.1.309.141.464a3.682,3.682,0,0,1,.084.829,2.9,2.9,0,0,1-.422,1.321c-.45.731-1.125,1.195-1.349,1.715v.169c0,.1-.014.239-.014.38s-.014.267-.014.365a.949.949,0,0,1-.014.169l-.028.309c0,.084-.014.155-.014.211a.344.344,0,0,1-.014.1,5.094,5.094,0,0,1,.267-.618,4.539,4.539,0,0,1,.45-.661,6.452,6.452,0,0,1,.52-.548,6.925,6.925,0,0,0,.548-.562,5.379,5.379,0,0,0,.534-.675,4.686,4.686,0,0,1-.2,2.558h0a3.347,3.347,0,0,1-.633,1.026,9.051,9.051,0,0,1-.745.731,6.194,6.194,0,0,0-.689.661,2.208,2.208,0,0,0-.267.365c-.028.07-.084.141-.1.2a1.065,1.065,0,0,0-.084.225c-.042.2-.084.408-.141.6a1.254,1.254,0,0,1,.689-.492,2.5,2.5,0,0,1,1.237.042,5.119,5.119,0,0,1-1.42,1.307,3.656,3.656,0,0,0-.717.689,4.989,4.989,0,0,0-.323.492,5.632,5.632,0,0,0-.309.647c-.141.38-.3.731-.422,1.04s-.239.548-.309.717c-.056.127-.942.492-.731.225.084-.112.2-.253.3-.408a6.292,6.292,0,0,0,.323-.548c.112-.2.225-.436.351-.675s.225-.506.337-.773a3.467,3.467,0,0,0,.155-.857,3.3,3.3,0,0,0-.014-.38,2.848,2.848,0,0,0-.056-.365l-.084-.337a3.075,3.075,0,0,0-.126-.323c-.084-.211-.183-.408-.267-.6s-.183-.394-.253-.6a3.131,3.131,0,0,1-.183-.647,3.81,3.81,0,0,1,.112-1.645c.141.183.309.365.478.548s.337.394.506.6a3.937,3.937,0,0,1,.436.7,3.165,3.165,0,0,1,.253.829,16.141,16.141,0,0,0,.267-1.631,1.529,1.529,0,0,0-.112-.436,2.23,2.23,0,0,0-.253-.38,2.644,2.644,0,0,0-.337-.351c-.127-.112-.253-.239-.38-.365h0q-.232-.232-.464-.506a3.966,3.966,0,0,1-.38-.633l-.126-.38a3.993,3.993,0,0,1-.084-.436c-.014-.155-.028-.323-.028-.506,0-.084.014-.183.014-.281a2.522,2.522,0,0,1,.028-.309c.112.281.548.492,1.026.8a2.85,2.85,0,0,1,1.237,1.406V186.5c0-.127-.014-.267-.014-.408-.014-.281-.028-.548-.042-.759s-.028-.351-.028-.351a2,2,0,0,0-.618-.492,5.9,5.9,0,0,1-.773-.492,1.467,1.467,0,0,1-.337-.323,1.866,1.866,0,0,1-.253-.436,2.994,2.994,0,0,1-.155-.59,6.735,6.735,0,0,1-.028-.787c.1.323.408.436.787.562a2.053,2.053,0,0,1,1.167.871s-.028-.155-.056-.323a3.482,3.482,0,0,0-.281-.956c-.169-.183-.6-.267-.787-.492a4.61,4.61,0,0,1-.914-2.151c.548.731,1.054.647,1.462,1.237-.028-.155-.084-.309-.112-.436a15.7,15.7,0,0,1-1.209-1.912Z" transform="translate(-360.356 -157.502)"/></g></g><circle class="r" cx="20.325" cy="20.325" r="20.325" transform="translate(20.311 19.342)"/><g transform="translate(23.951 36.041)"><path class="h" d="M137.654,224.028v1.532h-.422a.172.172,0,0,1-.183-.155c0-.028-.028-.253-.056-.675h-2.376v2.108h2.333v.675h-2.333v2.165h2.376a5.968,5.968,0,0,1,.056-.633.181.181,0,0,1,.183-.155h.422v1.476H133.1v-.38a.156.156,0,0,1,.127-.169l.506-.1v-5.06c-.281-.056-.45-.1-.506-.112a.147.147,0,0,1-.127-.169V224Z" transform="translate(-133.1 -224)"/><path class="h" d="M173.179,248.1v.675H171V248.1Z" transform="translate(-165.673 -244.712)"/><path class="h" d="M197.137,230.005a.147.147,0,0,1,.127.169v.365h-2.08v-.351a.142.142,0,0,1,.127-.155,3.954,3.954,0,0,0,.408-.084l-1.841-2.108a.529.529,0,0,0-.267-.183,1.208,1.208,0,0,0-.225-.014h-.394v2.263c.1.028.267.056.506.112a.148.148,0,0,1,.141.169v.38H191.5v-.38a.156.156,0,0,1,.127-.169l.506-.1v-5.06c-.281-.056-.45-.1-.506-.112a.147.147,0,0,1-.127-.169v-.38h2.137v.38c0,.1-.042.141-.141.169-.267.056-.436.1-.506.112V227h.323a.536.536,0,0,0,.45-.183l1.771-2.01c-.211-.042-.337-.07-.38-.07a.142.142,0,0,1-.127-.155v-.351h2.024l.014.337a.156.156,0,0,1-.126.169c-.042.014-.183.042-.408.112l-1.884,2.137a1.261,1.261,0,0,1-.351.3.892.892,0,0,1,.408.323l2.01,2.39a2.532,2.532,0,0,1,.422.014Z" transform="translate(-183.291 -224.172)"/><path class="h" d="M242.3,230.1v.351h-1.827V230.1c0-.084.042-.126.126-.155l.365-.1-.492-1.279h-2.741l-.492,1.279.365.1c.084.028.127.07.127.155v.351H235.9V230.1a.128.128,0,0,1,.112-.141l.351-.112,2.305-5.749h.871l2.291,5.749.351.112A.137.137,0,0,1,242.3,230.1Zm-2.08-2.151-.942-2.432a5.114,5.114,0,0,1-.2-.6,5.625,5.625,0,0,1-.183.6l-.942,2.432Z" transform="translate(-221.45 -224.086)"/><path class="h" d="M291.244,227.2a3.42,3.42,0,0,1-.225,1.293,3.177,3.177,0,0,1-.633,1,3.072,3.072,0,0,1-2.263.872H285.2v-.38a.156.156,0,0,1,.126-.169l.506-.1v-5.06c-.281-.056-.45-.1-.506-.112a.147.147,0,0,1-.126-.169V224h2.924a3.073,3.073,0,0,1,2.263.871,3.379,3.379,0,0,1,.857,2.333Zm-1.04-1.04a2.2,2.2,0,0,0-.45-.773,2.1,2.1,0,0,0-1.631-.661H286.7v4.962h1.42a2.05,2.05,0,0,0,1.63-.661,2.561,2.561,0,0,0,.6-1.827A3.307,3.307,0,0,0,290.2,226.165Z" transform="translate(-263.82 -224)"/><path class="h" d="M337.329,229.905a.167.167,0,0,1,.141.169v.38h-.914a.389.389,0,0,1-.351-.183l-1.645-2.263a.406.406,0,0,0-.155-.155.617.617,0,0,0-.267-.042h-.562v2s.422.084.506.1a.167.167,0,0,1,.141.169v.38H332.1v-.38a.167.167,0,0,1,.141-.169c.084-.014.506-.1.506-.1v-5.06s-.422-.084-.506-.1a.167.167,0,0,1-.141-.169V224.1h2.347a3.76,3.76,0,0,1,1.04.126,2.083,2.083,0,0,1,.731.351,1.271,1.271,0,0,1,.422.562,1.74,1.74,0,0,1,.141.731,1.87,1.87,0,0,1-.112.633,1.5,1.5,0,0,1-.309.52,1.735,1.735,0,0,1-.492.394,2.308,2.308,0,0,1-.661.253.844.844,0,0,1,.281.267l1.378,1.87a3.328,3.328,0,0,0,.464.1Zm-2.98-2.727a1.869,1.869,0,0,0,.661-.1,1.193,1.193,0,0,0,.478-.253,1.161,1.161,0,0,0,.3-.394,1.2,1.2,0,0,0,.1-.506,1,1,0,0,0-.365-.843,1.843,1.843,0,0,0-1.11-.281h-.857v2.39l.8-.014Z" transform="translate(-304.128 -224.086)"/></g><g class="s" transform="translate(23.994 22.097)"><g transform="translate(0)"><path class="h" d="M165.013,147.641l-2.376-10.613a4.54,4.54,0,0,0,3.05-2.39c-3.739,4.526-9.333-1.293-14.211-2.516v-.464a1.427,1.427,0,0,0,.731-1.167,1.374,1.374,0,0,0-.3-.8,1.177,1.177,0,0,0,.3-.8,1.705,1.705,0,0,0-1.349-1.476,14.992,14.992,0,0,0-1-2.614,15.187,15.187,0,0,0-1,2.614,1.705,1.705,0,0,0-1.349,1.476,1.341,1.341,0,0,0,.3.8,1.177,1.177,0,0,0-.3.8,1.408,1.408,0,0,0,.731,1.167v.464c-4.878,1.223-10.472,7.042-14.211,2.516a4.5,4.5,0,0,0,3.05,2.39l-2.376,10.613H133.4c0,1.954,1.9,3.528,4.245,3.528s4.245-1.574,4.245-3.528h-1.307l-2.361-10.5c3.163-.042,6.986-2.46,10.106-2.46.07-.183.126-.337.2-.478a1.418,1.418,0,0,1,2.671,0c.07.141.127.323.2.478,3.12-.014,6.958,2.432,10.106,2.46l-2.361,10.5h-1.279c0,1.954,1.9,3.528,4.245,3.528s4.245-1.574,4.245-3.528Zm-25.343,0h-4.006l2.01-8.926Zm20.41,0,2.01-8.926,2.01,8.926Z" transform="translate(-133.4 -124.8)"/><path class="h" d="M252,184.959a27.1,27.1,0,0,0-.408,6.7,5.8,5.8,0,0,1-.07,2.713,28.048,28.048,0,0,0,.534,10.092c.225.745,3.612.787,5.145.829.112.042.169.717-.028.773v.141h.464v.38H250.5V183.3l1.082.281.45.773Z" transform="translate(-234.04 -175.077)"/><path class="h" d="M205.337,184.959a27.1,27.1,0,0,1,.408,6.7,5.8,5.8,0,0,0,.07,2.713,28.047,28.047,0,0,1-.534,10.092c-.225.745-3.612.787-5.145.829-.112.042-.169.717.028.773v.141H199.7v.38h7.141V183.3l-1.082.281-.45.773Z" transform="translate(-190.381 -175.077)"/></g></g></g></svg>