<?xml version="1.0" encoding="utf-8"?>
<!-- Generator: Adobe Illustrator 21.0.0, SVG Export Plug-In . SVG Version: 6.00 Build 0)  -->
<svg version="1.1" id="Layer_1" xmlns="http://www.w3.org/2000/svg" xmlns:xlink="http://www.w3.org/1999/xlink" x="0px" y="0px"
	 width="16px" height="16px" viewBox="0 0 426.7 426.7" style="enable-background:new 0 0 426.7 426.7;" xml:space="preserve"
	>
<g>
	<path d="M165.7,426.7C74.3,426.7,0,352.3,0,261C0,169.6,74.3,95.3,165.7,95.3c91.4,0,165.7,74.3,165.7,165.7
		C331.4,352.3,257.1,426.7,165.7,426.7z M165.7,157.2C108.5,157.2,62,203.8,62,261s46.5,103.7,103.7,103.7
		c57.2,0,103.7-46.5,103.7-103.7C269.4,203.8,222.9,157.2,165.7,157.2z"/>
	<polygon points="426.7,165.7 364.7,165.7 364.7,62 261,62 261,0 426.7,0 	"/>
	<rect x="233.1" y="67.4" transform="matrix(0.7071 -0.7071 0.7071 0.7071 26.6129 260.9581)" width="190.5" height="62"/>
</g>
</svg>
