<svg xmlns="http://www.w3.org/2000/svg" viewBox="0 0 34.367 34.318">
  <g id="notes" transform="translate(0.173 0.168)">
    <path id="Контур_73" data-name="Контур 73" d="M23.608,34.074a1.708,1.708,0,0,0,1.643-1.258l1.567-5.85,5.934-1.586a1.7,1.7,0,0,0,1.2-2.081L30.874,11.832l.244-.907a1.7,1.7,0,0,0-1.025-2.017L28.707,3.737a1.712,1.712,0,0,0-2.082-1.2L16.505,5.248,8.019,2.973a1.667,1.667,0,0,0-1.053.057L4.847.914A2.833,2.833,0,1,0,.84,4.919L4.7,8.783.074,26.065a1.7,1.7,0,0,0,1.2,2.084l21.894,5.866a1.667,1.667,0,0,0,.441.059Zm9.246-10.483a.567.567,0,0,1-.4.693l-5.3,1.416,3.128-11.679ZM26.915,3.629a.567.567,0,0,1,.7.4l1.209,4.515L18.694,5.834ZM17.169,17.245l-2.861-.953,1.907-1.909.953,2.86Zm-2.306-3.109L10.055,9.327a.567.567,0,1,0-.8.8l4.808,4.807-.8.8L5.247,7.724l.8-.8,1.6,1.6a.567.567,0,0,0,.8-.8l-1.6-1.6.8-.8,8.013,8.014ZM3.645,6.122l2.4-2.4.8.8-2.4,2.4Zm-2.5-3.205a1.7,1.7,0,0,1,2.9-1.2l1.2,1.2-2.4,2.4-1.2-1.2a1.688,1.688,0,0,1-.5-1.2ZM1.17,26.363,5.63,9.71l7.23,7.23a.557.557,0,0,0,.209.129s.008.006.013.008l3.732,1.247a1.139,1.139,0,0,0,.361.057,1.122,1.122,0,0,0,.6-.177l6.516,1.75a.544.544,0,0,0,.147.02.567.567,0,0,0,.146-1.114L18.3,17.169a1.172,1.172,0,0,0-.052-.284L17,13.153c0-.005-.006-.009-.009-.014a.562.562,0,0,0-.128-.207L8.1,4.171,29.62,9.934a.567.567,0,0,1,.4.695L24.157,32.52a.567.567,0,0,1-.7.4L1.57,27.058a.566.566,0,0,1-.4-.695Zm0,0" transform="translate(-0.001 -0.074)" fill="#3d6ab7" stroke="#3d6ab7" stroke-width="0.3"/>
    <path id="Контур_74" data-name="Контур 74" d="M275.108,155.2a.7.7,0,0,0,.181-1.375l-9.946-2.665a.7.7,0,1,0-.362,1.35l9.947,2.666A.7.7,0,0,0,275.108,155.2Zm0,0" transform="translate(-248.411 -141.355)" fill="#3d6ab7" stroke="#3d6ab7" stroke-width="0.3"/>
    <path id="Контур_75" data-name="Контур 75" d="M297.6,214.266a.7.7,0,0,0,.181-1.375l-6.762-1.809a.7.7,0,1,0-.361,1.351l6.762,1.809A.7.7,0,0,0,297.6,214.266Zm0,0" transform="translate(-271.954 -197.318)" fill="#3d6ab7" stroke="#3d6ab7" stroke-width="0.3"/>
  </g>
</svg>
