<svg xmlns="http://www.w3.org/2000/svg" width="27.581" height="25.771" viewBox="0 0 27.581 25.771">
  <g id="notes" transform="translate(0.214 -2.176)">
    <path id="Контур_73" d="M7.35,3.05,6.313,2.81c-.08,0-.239-.08-.319-.08h0A1.367,1.367,0,0,0,4.638,3.767L3.76,7.357v.08L.091,21.236a1.429,1.429,0,0,0,.957,1.675h0l17.469,4.706c.08,0,.239.08.319.08h0a1.28,1.28,0,0,0,1.276-1.037l1.276-4.626,4.706-1.276a1.389,1.389,0,0,0,.957-1.675L24.579,9.909l.16-.718a1.356,1.356,0,0,0-.8-1.6L22.824,3.448a1.389,1.389,0,0,0-1.675-.957L13.173,4.645,7.589,3.129Zm18.9,16.192a.454.454,0,0,1-.319.558l-4.228,1.117,2.473-9.333ZM21.468,3.369a.454.454,0,0,1,.558.319h0l.957,3.589L14.928,5.123ZM7.43,4.007,23.7,8.394a.454.454,0,0,1,.319.558h0L19.315,26.421a.454.454,0,0,1-.558.319h0L1.288,22.034a.454.454,0,0,1-.319-.558h0L4.478,8.155l.08-.319.957-3.909a.487.487,0,0,1,.558-.239h0l1.037.239Z" transform="translate(0 0)" fill="#3d6ab7" stroke="#3d6ab7" stroke-width="0.5"/>
    <path id="Контур_74" d="M21.437,14.722A.545.545,0,0,0,22,14.164a.6.6,0,0,0-.4-.558L9.313,10.495a.6.6,0,0,0-.718.319.644.644,0,0,0,.319.718h.08l12.284,3.111C21.357,14.722,21.357,14.722,21.437,14.722Z" transform="translate(-1.723 -1.622)" fill="#3d6ab7" stroke="#3d6ab7" stroke-width="0.5"/>
    <path id="Контур_75" d="M19.985,19.984a.545.545,0,0,0,.558-.558.6.6,0,0,0-.4-.558l-9.731-2.473a.581.581,0,0,0-.319,1.117h.08L19.9,19.984Z" transform="translate(-1.946 -2.816)" fill="#3d6ab7" stroke="#3d6ab7" stroke-width="0.5"/>
  </g>
</svg>
