<svg xmlns="http://www.w3.org/2000/svg" width="21" height="21.733" viewBox="0 0 21 21.733">
  <g id="оповещение" transform="translate(-1858 -25)">
    <path id="Контур_6" data-name="Контур 6" d="M230.929,121.858l-1.555-2.591a7.7,7.7,0,0,1-1.1-3.961v-2.27a6.351,6.351,0,0,0-4.528-6.075v-1.622a1.811,1.811,0,1,0-3.623,0v1.622a6.351,6.351,0,0,0-4.528,6.075v2.27a7.7,7.7,0,0,1-1.1,3.961l-1.556,2.591a.453.453,0,0,0,.389.686h6.385A2.265,2.265,0,1,0,224.2,123a2.292,2.292,0,0,0-.046-.453h6.382a.453.453,0,0,0,.389-.686Zm-9.9-16.519a.906.906,0,1,1,1.811,0v1.423a6.3,6.3,0,0,0-1.811,0ZM223.3,123a1.358,1.358,0,1,1-2.637-.453h2.559A1.364,1.364,0,0,1,223.3,123Zm-9.162-1.358,1.144-1.906a8.6,8.6,0,0,0,1.226-4.426v-2.27a5.433,5.433,0,1,1,10.867,0v2.27a8.61,8.61,0,0,0,1.225,4.426l1.144,1.906Z" transform="translate(1645.118 -78.527)" fill="#9aa6bb"/>
    <circle id="Эллипс_1" data-name="Эллипс 1" cx="5" cy="5" r="5" transform="translate(1869 25)" fill="#3d6ab7"/>
    <text id="_1" data-name="1" transform="translate(1873 32)" fill="#fff" font-size="6" font-family="ProximaNova-Regular, Proxima Nova"><tspan x="0" y="0">1</tspan></text>
  </g>
</svg>
