<svg xmlns="http://www.w3.org/2000/svg" viewBox="0 0 14.594 13.883">
  <g transform="translate(0 -11.486)">
    <g transform="translate(0 11.486)">
      <path d="M13.357,12.659a4.114,4.114,0,0,0-5.756,0L.895,19.367A3.142,3.142,0,0,0,5.338,23.81l6.073-6.073a2.022,2.022,0,0,0-2.859-2.859L2.743,20.687a.528.528,0,0,0,.747.747L9.3,15.625a.966.966,0,0,1,1.366,1.366L4.591,23.063a2.086,2.086,0,0,1-2.95-2.95l6.707-6.707a3.06,3.06,0,1,1,4.328,4.326L5.969,24.44a.528.528,0,1,0,.745.745l6.707-6.707A4.114,4.114,0,0,0,13.357,12.659Z" transform="translate(0 -11.486)"/>
    </g>
  </g>
</svg>
