<svg xmlns="http://www.w3.org/2000/svg" width="11.991" height="15.988" viewBox="0 0 11.991 15.988">
  <g id="password" transform="translate(-3)">
    <path id="Контур_4705" data-name="Контур 4705" d="M13.492,18.993H4.5a1.5,1.5,0,0,1-1.5-1.5V10.5A1.5,1.5,0,0,1,4.5,9h8.993a1.5,1.5,0,0,1,1.5,1.5v6.995A1.5,1.5,0,0,1,13.492,18.993ZM4.5,10a.5.5,0,0,0-.5.5v6.995a.5.5,0,0,0,.5.5h8.993a.5.5,0,0,0,.5-.5V10.5a.5.5,0,0,0-.5-.5Z" transform="translate(0 -3.004)" fill="#3d6ab7"/>
    <path id="Контур_4706" data-name="Контур 4706" d="M13.495,6.995a.5.5,0,0,1-.5-.5V4A3,3,0,0,0,7,4V6.5a.5.5,0,0,1-1,0V4a4,4,0,0,1,7.994,0V6.5A.5.5,0,0,1,13.495,6.995Z" transform="translate(-1.001)" fill="#3d6ab7"/>
  </g>
</svg>
