<svg xmlns="http://www.w3.org/2000/svg" width="41.147" height="47.639" viewBox="0 0 41.147 47.639">
  <g id="play" transform="translate(-30.883 -87)">
    <g id="Сгруппировать_3787" data-name="Сгруппировать 3787" transform="translate(30.883 87)">
      <path id="Контур_4442" data-name="Контур 4442" d="M72.936,18.322,44.8.978a6.506,6.506,0,0,0-9.916,5.54v34.53a6.574,6.574,0,0,0,6.492,6.59H41.4a6.529,6.529,0,0,0,3.373-1.015,1.858,1.858,0,1,0-1.935-3.172,2.85,2.85,0,0,1-1.447.471,2.887,2.887,0,0,1-2.8-2.875V6.518a2.791,2.791,0,0,1,4.252-2.377L70.987,21.485a2.791,2.791,0,0,1-.012,4.76l-28.159,17.2a1.858,1.858,0,1,0,1.94,3.169l28.156-17.2a6.506,6.506,0,0,0,.023-11.093Z" transform="translate(-34.883 0)" fill="#fff"/>
    </g>
  </g>
</svg>
