<svg xmlns="http://www.w3.org/2000/svg" width="36.549" height="32.5" viewBox="0 0 36.549 32.5">
  <g id="process" transform="translate(696.25 315.25)">
    <path id="Контур_94" data-name="Контур 94" d="M51.187,67.085H49.042v-1.7a2.013,2.013,0,0,0-2.011-2.011H35.577v-8a5.734,5.734,0,1,0-.905,0v8H23.218a2.013,2.013,0,0,0-2.011,2.011v1.7H19.062A1.964,1.964,0,0,0,17.1,69.047v4.915a1.964,1.964,0,0,0,1.962,1.962h5.061a1.964,1.964,0,0,0,1.962-1.962V69.047a1.964,1.964,0,0,0-1.962-1.962H22.112v-1.7a1.107,1.107,0,0,1,1.106-1.105H34.672v2.8H32.594a1.964,1.964,0,0,0-1.962,1.962v4.915a1.964,1.964,0,0,0,1.962,1.962h5.061a1.964,1.964,0,0,0,1.962-1.962V69.047a1.964,1.964,0,0,0-1.962-1.962H35.577v-2.8H47.031a1.107,1.107,0,0,1,1.106,1.105v1.7H46.126a1.964,1.964,0,0,0-1.962,1.962v4.915a1.964,1.964,0,0,0,1.962,1.962h5.061a1.964,1.964,0,0,0,1.962-1.962V69.047a1.964,1.964,0,0,0-1.962-1.962ZM30.3,49.659a4.829,4.829,0,1,1,4.829,4.829A4.829,4.829,0,0,1,30.3,49.659ZM25.179,69.047v4.915a1.058,1.058,0,0,1-1.056,1.056H19.062a1.057,1.057,0,0,1-1.056-1.056V69.047a1.057,1.057,0,0,1,1.056-1.056h5.061A1.057,1.057,0,0,1,25.179,69.047Zm13.532,0v4.915a1.057,1.057,0,0,1-1.056,1.056H32.594a1.057,1.057,0,0,1-1.056-1.056V69.047a1.057,1.057,0,0,1,1.056-1.056h5.061A1.057,1.057,0,0,1,38.711,69.047Zm13.532,4.915a1.057,1.057,0,0,1-1.056,1.056H46.126a1.058,1.058,0,0,1-1.056-1.056V69.047a1.057,1.057,0,0,1,1.056-1.056h5.061a1.057,1.057,0,0,1,1.056,1.056Z" transform="translate(-713.1 -358.923)" fill="#3d6ab7" stroke="#3d6ab7" stroke-width="0.5"/>
    <path id="Контур_95" data-name="Контур 95" d="M45.157,389.827a.453.453,0,0,0,.632,0l2.627-2.565a.453.453,0,1,0-.632-.648l-2.311,2.257-1.142-1.115a.453.453,0,0,0-.632.648Z" transform="translate(-737.566 -675.639)" fill="#3d6ab7" stroke="#3d6ab7" stroke-width="0.5"/>
    <path id="Контур_96" data-name="Контур 96" d="M406.5,386.613l-2.311,2.257-1.142-1.115a.453.453,0,0,0-.632.648l1.458,1.424a.453.453,0,0,0,.632,0l2.627-2.565a.453.453,0,1,0-.632-.648Z" transform="translate(-1069.221 -675.638)" fill="#3d6ab7" stroke="#3d6ab7" stroke-width="0.5"/>
    <path id="Контур_97" data-name="Контур 97" d="M232.721,389.438a.453.453,0,0,0,.64.008l.99-.966.966.99a.453.453,0,1,0,.648-.633l-.966-.99.99-.966a.453.453,0,0,0-.632-.648l-.99.966-.966-.99a.453.453,0,0,0-.648.632l.966.99-.989.966a.453.453,0,0,0-.008.64Z" transform="translate(-912.334 -675.258)" fill="#3d6ab7" stroke="#3d6ab7" stroke-width="0.5"/>
  </g>
</svg>
