<svg xmlns="http://www.w3.org/2000/svg" width="29.479" height="32.502" viewBox="0 0 29.479 32.502">
  <g id="report" transform="translate(-0.25 0.25)">
    <path id="Контур_98" data-name="Контур 98" d="M59.958,334.659l-3.732,3.036-1.477-1.73a.405.405,0,1,0-.616.526l1.734,2.031a.405.405,0,0,0,.564.051l4.039-3.286a.405.405,0,1,0-.512-.628Zm0,0" transform="translate(-49.918 -312.923)" fill="#3d6ab7" stroke="#3d6ab7" stroke-width="0.5"/>
    <path id="Контур_99" data-name="Контур 99" d="M27.83,1.511H19.4a2.656,2.656,0,0,0-4.792,0H6.178A1.651,1.651,0,0,0,4.529,3.16V16.805L.7,18.9a.39.39,0,0,0-.2.342v3.9a9.227,9.227,0,0,0,5.53,8.445l.857.373a.39.39,0,0,0,.311,0l.965-.417a9.309,9.309,0,0,0,1.106-.558H27.83a1.651,1.651,0,0,0,1.649-1.649V3.16A1.651,1.651,0,0,0,27.83,1.511ZM17,.78a1.878,1.878,0,0,1,1.876,1.876V3.789a.39.39,0,0,0,.39.39h3.764V6.42H10.974V4.179h3.764a.39.39,0,0,0,.39-.39V2.656A1.878,1.878,0,0,1,17,.78Zm8.775,22.348H23.757a1.651,1.651,0,0,0-1.649,1.649v1.968H13.037a9.185,9.185,0,0,0,.769-3.684V19.244A.39.39,0,0,0,13.6,18.9L8.229,16.038V6a.239.239,0,0,1,.239-.239h1.726V6.81a.39.39,0,0,0,.39.39h12.84a.39.39,0,0,0,.39-.39V5.758H25.54A.239.239,0,0,1,25.779,6Zm-.536.78-2.354,2.354V24.777a.869.869,0,0,1,.868-.868ZM5.309,3.16a.87.87,0,0,1,.869-.869h8.2a2.659,2.659,0,0,0-.026.365V3.4H10.584a.39.39,0,0,0-.39.39V4.978H8.468A1.021,1.021,0,0,0,7.448,6v9.625l-.2-.106a.39.39,0,0,0-.371,0l-1.569.86Zm2.55,27.673h0l-.811.35-.7-.306a8.446,8.446,0,0,1-5.062-7.729V19.476l3.823-2.1,0,0L7.068,16.3l.583.31,0,0,5.372,2.863v3.583a8.43,8.43,0,0,1-5.168,7.772ZM28.7,29.344a.869.869,0,0,1-.868.869H10.394a9.211,9.211,0,0,0,2.257-2.686h9.6a1.127,1.127,0,0,0,.152-.011.386.386,0,0,0,.384-.122,1.155,1.155,0,0,0,.273-.2l3.159-3.159a1.139,1.139,0,0,0,.336-.81V6a1.021,1.021,0,0,0-1.019-1.02H23.814V3.789a.39.39,0,0,0-.39-.39H19.66V2.656a2.619,2.619,0,0,0-.026-.365h8.2a.869.869,0,0,1,.869.869Zm0,0" fill="#3d6ab7" stroke="#3d6ab7" stroke-width="0.5"/>
    <path id="Контур_101" data-name="Контур 101" d="M212.113,160.662h12.258c.419,0,.758-.182.758-.405s-.34-.405-.758-.405H212.113c-.419,0-.758.181-.758.405S211.695,160.662,212.113,160.662Zm0,0" transform="translate(-201.298 -148.465)" fill="#3d6ab7" stroke="#3d6ab7" stroke-width="0.5"/>
    <path id="Контур_103" data-name="Контур 103" d="M327.436,212.031h-4.468a.405.405,0,1,0,0,.81h4.468a.405.405,0,1,0,0-.81Zm0,0" transform="translate(-304.01 -196.481)" fill="#3d6ab7" stroke="#3d6ab7" stroke-width="0.5"/>
    <path id="Контур_105" data-name="Контур 105" d="M156.448,212.436a.379.379,0,0,0-.346-.405h-6.224a.41.41,0,0,0,0,.81H156.1A.379.379,0,0,0,156.448,212.436Zm0,0" transform="translate(-139.474 -196.481)" fill="#3d6ab7" stroke="#3d6ab7" stroke-width="0.5"/>
  </g>
</svg>
