<svg xmlns="http://www.w3.org/2000/svg" xmlns:xlink="http://www.w3.org/1999/xlink" width="16.768" height="10.688" viewBox="0 0 16.768 10.688">
  <defs>
    <clipPath id="clip-path">
      <rect id="Прямоугольник_3700" data-name="Прямоугольник 3700" width="16.768" height="10.688" fill="none"/>
    </clipPath>
  </defs>
  <g id="Векторный_смарт-объект" data-name="Векторный смарт-объект" transform="translate(256 163.165)">
    <g id="Сгруппировать_4062" data-name="Сгруппировать 4062" transform="translate(-256 -163.165)" clip-path="url(#clip-path)">
      <path id="Контур_4707" data-name="Контур 4707" d="M16.622,5.017C16.475,4.811,12.9,0,8.346,0S.217,4.811.067,5.017a.553.553,0,0,0,0,.652c.151.206,3.72,5.017,8.279,5.017s8.129-4.811,8.276-5.017a.553.553,0,0,0,0-.652M8.346,9.583c-3.357,0-6.265-3.2-7.127-4.238C2.077,4.3,4.979,1.107,8.346,1.107S14.611,4.3,15.472,5.345c-.858,1.045-3.763,4.238-7.127,4.238" transform="translate(0.038)" fill="#3d6ab7"/>
      <path id="Контур_4708" data-name="Контур 4708" d="M158.018,61.9a3.318,3.318,0,1,0,3.318,3.318,3.318,3.318,0,0,0-3.318-3.318m0,5.528a2.211,2.211,0,1,1,2.211-2.211,2.211,2.211,0,0,1-2.211,2.211" transform="translate(-149.633 -59.873)" fill="#3d6ab7"/>
    </g>
  </g>
</svg>
