<svg xmlns="http://www.w3.org/2000/svg" width="15.611" height="15.611" viewBox="0 0 15.611 15.611">
  <path id="Контур_4458" data-name="Контур 4458" d="M8.91,10.11a1.2,1.2,0,0,0,1.2-1.2V-3.19A1.117,1.117,0,0,0,8.994-4.306h-.8v0a1.185,1.185,0,0,0-1-1.179A1.18,1.18,0,0,0,5.833-4.321v.015H3.478v0A1.185,1.185,0,0,0,2.473-5.488a1.177,1.177,0,0,0-1.35,1.167v.015H-1.232v0a1.185,1.185,0,0,0-1-1.179A1.18,1.18,0,0,0-3.59-4.321v.015h-.794A1.117,1.117,0,0,0-5.5-3.19V8.994A1.117,1.117,0,0,0-4.383,10.11H8.91ZM-4.575-2.915a.466.466,0,0,1,.466-.466h.519v.5a1.193,1.193,0,0,0,1.152,1.2A1.18,1.18,0,0,0-1.232-2.859v-.522H1.123v.5a1.193,1.193,0,0,0,1.152,1.2A1.18,1.18,0,0,0,3.481-2.859v-.522H5.836v.5a1.193,1.193,0,0,0,1.152,1.2A1.18,1.18,0,0,0,8.194-2.859v-.522h.538a.453.453,0,0,1,.453.453V-.963H-4.575Zm11.333.057V-4.313A.259.259,0,0,1,7-4.574a.254.254,0,0,1,.27.253v1.454a.259.259,0,0,1-.237.262A.254.254,0,0,1,6.759-2.859Zm-4.71,0V-4.313a.259.259,0,0,1,.237-.262.254.254,0,0,1,.27.253v1.454a.259.259,0,0,1-.237.262A.254.254,0,0,1,2.049-2.859Zm-4.206,0a.254.254,0,0,1-.27.253.259.259,0,0,1-.237-.262V-4.313a.259.259,0,0,1,.237-.262.254.254,0,0,1,.27.253ZM9.185,6.121V8.765a.42.42,0,0,1-.42.42H-4.1a.471.471,0,0,1-.471-.471V-.038H9.185V6.188" transform="translate(5.5 5.5)" fill="#fff"/>
</svg>
