<svg xmlns="http://www.w3.org/2000/svg" width="21.079" height="16.15" viewBox="0 0 21.079 16.15">
  <g id="Сгруппировать_3836" data-name="Сгруппировать 3836" transform="translate(0.1 -41.586)">
    <g id="Сгруппировать_3717" data-name="Сгруппировать 3717" transform="translate(0 41.75)">
      <path id="Контур_4381" data-name="Контур 4381" d="M2.2,48.644l1.268.622V54.24a.386.386,0,0,0,.072.215,8.686,8.686,0,0,0,6.888,3.181,8.637,8.637,0,0,0,6.864-3.181.386.386,0,0,0,.072-.215V49.29L20.185,47.9a1.026,1.026,0,0,0,.694-.909,1.069,1.069,0,0,0-.694-.909l-8.323-4.066a3.409,3.409,0,0,0-2.655,0L.694,46.085A1.026,1.026,0,0,0,0,46.994c0,.215.1.6.694.909l.694.335Zm14.4,5.477a8,8,0,0,1-6.17,2.774,8,8,0,0,1-6.17-2.774V49.6l4.951,2.368a3.225,3.225,0,0,0,1.315.263,2.912,2.912,0,0,0,1.339-.287l4.735-2.32ZM1.889,47.639l-.861-.407a.482.482,0,0,1-.263-.215c0-.024.048-.12.263-.215l8.514-4.09a2.471,2.471,0,0,1,.981-.191,2.424,2.424,0,0,1,1,.191l8.323,4.066c.215.1.263.191.263.239a.658.658,0,0,1-.263.215l-2.87,1.411a.275.275,0,0,0-.263.143L11.528,51.3a2.655,2.655,0,0,1-2.009,0L3.133,48.237Z" transform="translate(0 -41.75)" fill="#fff" stroke="#fff" stroke-width="0.2"/>
    </g>
  </g>
</svg>
