<svg xmlns="http://www.w3.org/2000/svg" width="15.533" height="19.287" viewBox="0 0 15.533 19.287">
  <path id="bell" d="M63.043,16.541l-.976-1.952A5.382,5.382,0,0,1,61.5,12.2V7.869a5.963,5.963,0,0,0-4.721-5.841V1.259a1.259,1.259,0,1,0-2.518,0v.772A5.949,5.949,0,0,0,49.54,7.869V12.2a5.383,5.383,0,0,1-.565,2.392L48,16.541a.315.315,0,0,0,.281.456h5.061A2.2,2.2,0,0,0,57.7,17H62.76a.315.315,0,0,0,.283-.455ZM54.891,1.259a.63.63,0,0,1,1.259,0v.664c-.019,0-.039,0-.058,0-.177-.017-.354-.027-.532-.029l-.039,0-.035,0c-.18,0-.36.012-.538.029a.38.38,0,0,0-.057,0Zm.63,17A1.576,1.576,0,0,1,53.978,17h3.085A1.576,1.576,0,0,1,55.52,18.256Zm-6.73-1.889.75-1.5a6.012,6.012,0,0,0,.63-2.675V7.869A5.326,5.326,0,0,1,54.63,2.6a5.211,5.211,0,0,1,1.338-.058q.224.02.446.058a5.341,5.341,0,0,1,4.458,5.273V12.2a6.012,6.012,0,0,0,.631,2.675l.748,1.5Z" transform="translate(-47.743 0.2)" fill="#fff" stroke="#fff" stroke-width="0.4"/>
</svg>
