<svg xmlns="http://www.w3.org/2000/svg" width="16.822" height="16.835" viewBox="0 0 16.822 16.835">
  <g id="clapperboard" transform="translate(-0.194 0)">
    <g id="Сгруппировать_3696" data-name="Сгруппировать 3696" transform="translate(0.877 6.309)">
      <g id="Сгруппировать_3695" data-name="Сгруппировать 3695">
        <path id="Контур_4370" data-name="Контур 4370" d="M36.728,191.81H21.29a.351.351,0,0,0-.351.351v8.421a1.756,1.756,0,0,0,1.754,1.754H35.324a1.756,1.756,0,0,0,1.754-1.754v-8.421A.351.351,0,0,0,36.728,191.81Zm-.351,8.771a1.054,1.054,0,0,1-1.053,1.053H22.693a1.054,1.054,0,0,1-1.053-1.053v-8.07H36.377Z" transform="translate(-20.939 -191.81)" fill="#fff"/>
      </g>
    </g>
    <g id="Сгруппировать_3698" data-name="Сгруппировать 3698" transform="translate(0.194 0)">
      <g id="Сгруппировать_3697" data-name="Сгруппировать 3697">
        <path id="Контур_4371" data-name="Контур 4371" d="M17.005,3.062,16.408.8A1.06,1.06,0,0,0,15.15.026L1.013,3.38A1.051,1.051,0,0,0,.227,4.662L.888,7.275a.35.35,0,0,0,.34.265.346.346,0,0,0,.087-.011A.35.35,0,0,0,1.568,7.1l-.039-.152L16.743,3.495a.352.352,0,0,0,.262-.432ZM1.358,6.271.907,4.492a.351.351,0,0,1,.265-.429L15.309.71A.316.316,0,0,1,15.386.7a.355.355,0,0,1,.342.27l.506,1.919Z" transform="translate(-0.194 0)" fill="#fff"/>
      </g>
    </g>
    <g id="Сгруппировать_3700" data-name="Сгруппировать 3700" transform="translate(2.28 6.309)">
      <g id="Сгруппировать_3699" data-name="Сгруппировать 3699">
        <path id="Контур_4372" data-name="Контур 4372" d="M65.5,191.852a.354.354,0,0,0-.472.157l-1.4,2.807a.351.351,0,0,0,.629.314l1.4-2.807A.352.352,0,0,0,65.5,191.852Z" transform="translate(-63.593 -191.816)" fill="#fff"/>
      </g>
    </g>
    <g id="Сгруппировать_3702" data-name="Сгруппировать 3702" transform="translate(5.788 6.309)">
      <g id="Сгруппировать_3701" data-name="Сгруппировать 3701">
        <path id="Контур_4373" data-name="Контур 4373" d="M172.171,191.852a.353.353,0,0,0-.471.157l-1.4,2.807a.351.351,0,1,0,.628.314l1.4-2.807A.352.352,0,0,0,172.171,191.852Z" transform="translate(-170.26 -191.816)" fill="#fff"/>
      </g>
    </g>
    <g id="Сгруппировать_3704" data-name="Сгруппировать 3704" transform="translate(9.297 6.309)">
      <g id="Сгруппировать_3703" data-name="Сгруппировать 3703">
        <path id="Контур_4374" data-name="Контур 4374" d="M278.837,191.852a.353.353,0,0,0-.471.157l-1.4,2.807a.351.351,0,1,0,.628.314l1.4-2.807A.352.352,0,0,0,278.837,191.852Z" transform="translate(-276.926 -191.816)" fill="#fff"/>
      </g>
    </g>
    <g id="Сгруппировать_3706" data-name="Сгруппировать 3706" transform="translate(12.806 6.309)">
      <g id="Сгруппировать_3705" data-name="Сгруппировать 3705">
        <path id="Контур_4375" data-name="Контур 4375" d="M385.5,191.852a.353.353,0,0,0-.471.157l-1.4,2.807a.351.351,0,1,0,.628.314l1.4-2.807A.352.352,0,0,0,385.5,191.852Z" transform="translate(-383.593 -191.816)" fill="#fff"/>
      </g>
    </g>
    <g id="Сгруппировать_3708" data-name="Сгруппировать 3708" transform="translate(0.877 9.116)">
      <g id="Сгруппировать_3707" data-name="Сгруппировать 3707">
        <path id="Контур_4376" data-name="Контур 4376" d="M36.728,277.143H21.29a.351.351,0,1,0,0,.7H36.728a.351.351,0,1,0,0-.7Z" transform="translate(-20.939 -277.143)" fill="#fff"/>
      </g>
    </g>
    <g id="Сгруппировать_3710" data-name="Сгруппировать 3710" transform="translate(1.605 3.177)">
      <g id="Сгруппировать_3709" data-name="Сгруппировать 3709">
        <path id="Контур_4377" data-name="Контур 4377" d="M46.093,99.113,43.677,96.7a.351.351,0,0,0-.5.5L45.6,99.61a.352.352,0,0,0,.248.1.347.347,0,0,0,.248-.1A.351.351,0,0,0,46.093,99.113Z" transform="translate(-43.078 -96.594)" fill="#fff"/>
      </g>
    </g>
    <g id="Сгруппировать_3712" data-name="Сгруппировать 3712" transform="translate(5.036 2.398)">
      <g id="Сгруппировать_3711" data-name="Сгруппировать 3711">
        <path id="Контур_4378" data-name="Контур 4378" d="M150.395,75.411l-2.419-2.417a.351.351,0,0,0-.5.5l2.418,2.417a.351.351,0,1,0,.5-.5Z" transform="translate(-147.377 -72.892)" fill="#fff"/>
      </g>
    </g>
    <g id="Сгруппировать_3714" data-name="Сгруппировать 3714" transform="translate(8.47 1.617)">
      <g id="Сгруппировать_3713" data-name="Сгруппировать 3713">
        <path id="Контур_4379" data-name="Контур 4379" d="M254.8,51.69l-2.415-2.417a.351.351,0,1,0-.5.5l2.415,2.417a.353.353,0,0,0,.248.1.347.347,0,0,0,.248-.1A.351.351,0,0,0,254.8,51.69Z" transform="translate(-251.782 -49.17)" fill="#fff"/>
      </g>
    </g>
    <g id="Сгруппировать_3716" data-name="Сгруппировать 3716" transform="translate(11.898 0.839)">
      <g id="Сгруппировать_3715" data-name="Сгруппировать 3715">
        <path id="Контур_4380" data-name="Контур 4380" d="M359.009,28.01l-2.415-2.417a.351.351,0,1,0-.5.5l2.415,2.417a.351.351,0,1,0,.5-.5Z" transform="translate(-355.995 -25.49)" fill="#fff"/>
      </g>
    </g>
  </g>
</svg>
