<svg xmlns="http://www.w3.org/2000/svg" width="15.755" height="18.303" viewBox="0 0 15.755 18.303">
  <path id="bookmark" d="M9.38,0A2.187,2.187,0,0,0,7.972.54,1.646,1.646,0,0,0,7.492,1.8h0V16.5A1.625,1.625,0,0,0,9.208,18H22.941V0Zm-1.2,16.5V3a6.817,6.817,0,0,0,1.962.3V17.4C9.557,17.4,8.178,16.983,8.178,16.5ZM15.663,3.3h6.523l.069,14.1H10.827V3.3h4.836ZM13.328,7.831,11.062,2.7H9.449a1.229,1.229,0,0,1-1.27-.93A.922.922,0,0,1,8.487.96,1.232,1.232,0,0,1,9.38.6H22.255V2.7H11.062Z" transform="translate(-7.337 0.15)" fill="#fff" stroke="#fff" stroke-width="0.3"/>
</svg>
