<svg xmlns="http://www.w3.org/2000/svg" width="16.853" height="10.731" viewBox="0 0 16.853 10.731">
  <path id="video-camera" d="M16.382.93a.351.351,0,0,0-.347-.006L12.237,3V1.753A1.756,1.756,0,0,0,10.483,0H1.754A1.755,1.755,0,0,0,0,1.753V8.677a1.755,1.755,0,0,0,1.754,1.754h8.729a1.755,1.755,0,0,0,1.754-1.754V7.455l3.8,2.074a.351.351,0,0,0,.519-.308V1.232a.351.351,0,0,0-.172-.3ZM11.535,8.677a1.053,1.053,0,0,1-1.052,1.052H1.754A1.053,1.053,0,0,1,.7,8.677V1.753A1.053,1.053,0,0,1,1.754.7h8.729a1.053,1.053,0,0,1,1.052,1.052Zm4.317-.047L12.237,6.656V3.8l3.616-1.974Zm0,0" transform="translate(0.149 0.15)" fill="#fff" stroke="#fff" stroke-width="0.3"/>
</svg>
