<svg xmlns="http://www.w3.org/2000/svg" width="17.273" height="18.876" viewBox="0 0 17.273 18.876">
  <path id="shout" d="M8,52.957a.807.807,0,1,1-1.4.808l-2.02-3.5,1.4-.808C8.324,53.507,7.968,52.892,8,52.957Zm7.088-11.016-.962-1.669-.453-.784-1.491-2.582a1.192,1.192,0,0,0-1.034-.606h-.016a1.206,1.206,0,0,0-1.022.558L4.837,43.586l-3.431,1.98a2.829,2.829,0,0,0,2.465,5.075l2.037,3.524a1.615,1.615,0,1,0,2.8-1.616l-1.212-2.1-.4-.7-.4-.7.7-.4.78-.263L15.9,46.863a1.211,1.211,0,0,0,.982-1.814l-1.342-2.328Zm-.3,4.32L7.738,47.643,5.6,43.929l4.522-5.758.537-.687a1.54,1.54,0,0,0,.137-.182.4.4,0,0,1,.7.008l4.7,8.143a.4.4,0,0,1-.339.606,1.515,1.515,0,0,0-.222.036ZM1.07,49.029A2.009,2.009,0,0,1,.8,48.023a2.039,2.039,0,0,1,1.01-1.754l3.148-1.818,2.02,3.5L3.83,49.769A2.028,2.028,0,0,1,1.07,49.029Z" transform="translate(0.116 -36.2)" fill="#fff" stroke="#fff" stroke-width="0.2"/>
</svg>
