<svg xmlns="http://www.w3.org/2000/svg" width="19.243" height="19.243" viewBox="0 0 19.243 19.243">
  <g id="add" transform="translate(0.15 0.15)">
    <path id="Контур_4389" data-name="Контур 4389" d="M7.283,17.342H2.019A2.021,2.021,0,0,1,0,15.323V4.019A2.021,2.021,0,0,1,2.019,2h9.69a2.021,2.021,0,0,1,2.019,2.019V7.3a.4.4,0,0,1-.807,0V4.019a1.213,1.213,0,0,0-1.211-1.211H2.019A1.213,1.213,0,0,0,.807,4.019v11.3a1.213,1.213,0,0,0,1.211,1.211H7.283a.4.4,0,1,1,0,.807Z" transform="translate(0 -0.385)" fill="#fff" stroke="#fff" stroke-width="0.3"/>
    <path id="Контур_4390" data-name="Контур 4390" d="M3.4,4.037a.4.4,0,0,1-.4-.4V.4a.4.4,0,0,1,.807,0v3.23A.4.4,0,0,1,3.4,4.037Z" transform="translate(-0.578)" fill="#fff" stroke="#fff" stroke-width="0.3"/>
    <path id="Контур_4391" data-name="Контур 4391" d="M8.4,4.037a.4.4,0,0,1-.4-.4V.4a.4.4,0,0,1,.807,0v3.23A.4.4,0,0,1,8.4,4.037Z" transform="translate(-1.54)" fill="#fff" stroke="#fff" stroke-width="0.3"/>
    <path id="Контур_4392" data-name="Контур 4392" d="M13.4,4.037a.4.4,0,0,1-.4-.4V.4a.4.4,0,0,1,.807,0v3.23A.4.4,0,0,1,13.4,4.037Z" transform="translate(-2.503)" fill="#fff" stroke="#fff" stroke-width="0.3"/>
    <path id="Контур_4395" data-name="Контур 4395" d="M16.249,21.5A5.249,5.249,0,1,1,21.5,16.249,5.255,5.255,0,0,1,16.249,21.5Zm0-9.69a4.441,4.441,0,1,0,4.441,4.441A4.446,4.446,0,0,0,16.249,11.807Z" transform="translate(-2.554 -2.554)" fill="#fff" stroke="#fff" stroke-width="0.3"/>
    <path id="Контур_4396" data-name="Контур 4396" d="M17.342,19.279A.361.361,0,0,1,17,18.9V14.377a.344.344,0,1,1,.685,0V18.9A.361.361,0,0,1,17.342,19.279Z" transform="translate(-3.592 -2.915)" fill="#fff" stroke="#fff" stroke-width="0.3"/>
    <path id="Контур_4397" data-name="Контур 4397" d="M18.9,17.685H14.377a.344.344,0,1,1,0-.685H18.9a.344.344,0,1,1,0,.685Z" transform="translate(-2.915 -3.803)" fill="#fff" stroke="#fff" stroke-width="0.3"/>
  </g>
</svg>
