<svg xmlns="http://www.w3.org/2000/svg" viewBox="0 0 14.777 16.756">
  <g id="Сгруппировать_3719" data-name="Сгруппировать 3719" transform="translate(-39.77 -23.067)">
    <path id="Контур_4366" data-name="Контур 4366" d="M127.9,90.971H117.8a.86.86,0,0,0-.859.859v12.109a.86.86,0,0,0,.859.859h10.1a.86.86,0,0,0,.859-.859V91.83A.86.86,0,0,0,127.9,90.971Zm.36,12.968a.36.36,0,0,1-.36.36H117.8a.36.36,0,0,1-.36-.36V91.83a.36.36,0,0,1,.36-.36h10.1a.36.36,0,0,1,.36.36Z" transform="translate(-74.414 -65.174)" fill="#3d6ab7" stroke="#3d6ab7" stroke-width="0.4"/>
    <path id="Контур_4367" data-name="Контур 4367" d="M41.544,36.594h-.715a.36.36,0,0,1-.36-.36V24.126a.36.36,0,0,1,.36-.36h10.1a.36.36,0,0,1,.36.36v.481a.25.25,0,0,0,.5,0v-.481a.86.86,0,0,0-.859-.859h-10.1a.86.86,0,0,0-.859.859V36.235a.86.86,0,0,0,.859.859h.715a.25.25,0,0,0,0-.5Z" transform="translate(0 0)" fill="#3d6ab7" stroke="#3d6ab7" stroke-width="0.4"/>
  </g>
</svg>
