<svg xmlns="http://www.w3.org/2000/svg" width="18.454" height="18.454" viewBox="0 0 18.454 18.454">
  <g id="review" transform="translate(-0.007)">
    <path id="Контур_4382" data-name="Контур 4382" d="M18.145,6.734l-.9-.9a1.083,1.083,0,0,0-1.529,0l-1.9,1.9V1.622A1.624,1.624,0,0,0,12.19,0H1.629A1.624,1.624,0,0,0,.007,1.622v15.21a1.624,1.624,0,0,0,1.622,1.622H12.19a1.624,1.624,0,0,0,1.622-1.622v-4.29l4.333-4.279a1.083,1.083,0,0,0,0-1.529Zm-6.466,6.4-1.626.759.758-1.625,4.036-4.036.892.892Zm1.052,3.7a.541.541,0,0,1-.541.541H1.629a.541.541,0,0,1-.541-.541V1.622a.541.541,0,0,1,.541-.541H12.19a.541.541,0,0,1,.541.541V8.814c-3,3-2.8,2.783-2.86,2.906L8.444,14.778a.541.541,0,0,0,.719.719l3.058-1.427c.112-.052.131-.085.51-.459ZM16.508,8.36l-.9-.9.867-.867.9.9Z" fill="#fff"/>
    <path id="Контур_4384" data-name="Контур 4384" d="M65.548,178.081h6.344a.541.541,0,0,0,0-1.081H65.548a.541.541,0,0,0,0,1.081Z" transform="translate(-61.657 -171.62)" fill="#fff"/>
    <path id="Контур_4385" data-name="Контур 4385" d="M70.161,257H65.548a.541.541,0,0,0,0,1.081h4.614a.541.541,0,1,0,0-1.081Z" transform="translate(-61.657 -247.737)" fill="#fff"/>
  </g>
</svg>
