<svg xmlns="http://www.w3.org/2000/svg" width="15.552" height="19.795" viewBox="0 0 15.552 19.795">
  <g id="list" transform="translate(-47.037 0)">
    <g id="Сгруппировать_3684" data-name="Сгруппировать 3684" transform="translate(47.037 0)">
      <g id="Сгруппировать_3683" data-name="Сгруппировать 3683">
        <path id="Контур_4343" data-name="Контур 4343" d="M60.61,2.594H58.819v-.8c0-.259-.283-.377-.542-.377h-1.39A2.108,2.108,0,0,0,54.789,0a2.144,2.144,0,0,0-2.1,1.414H51.326c-.259,0-.518.118-.518.377v.8H49.016A2,2,0,0,0,47.037,4.5V18A1.9,1.9,0,0,0,49.016,19.8H60.61A1.9,1.9,0,0,0,62.589,18V4.5A2,2,0,0,0,60.61,2.594Zm-8.86-.236h1.3a.518.518,0,0,0,.448-.424,1.367,1.367,0,0,1,1.3-1.06,1.343,1.343,0,0,1,1.272,1.06.518.518,0,0,0,.471.424h1.343V4.243H51.75ZM61.646,18a.956.956,0,0,1-1.037.848H49.016A.956.956,0,0,1,47.98,18V4.5a1.06,1.06,0,0,1,1.037-.966h1.791v1.2a.5.5,0,0,0,.518.448h6.951a.518.518,0,0,0,.542-.448v-1.2H60.61a1.06,1.06,0,0,1,1.037.966V18Z" transform="translate(-47.037 0)" fill="#fff"/>
        <path id="Контур_4345" data-name="Контур 4345" d="M204.439,256.034h-5.42a.471.471,0,0,0,0,.943h5.42a.471.471,0,0,0,0-.943Z" transform="translate(-193.687 -242.326)" fill="#fff"/>
        <path id="Контур_4387" data-name="Контур 4387" d="M204.439,256.034h-5.42a.471.471,0,0,0,0,.943h5.42a.471.471,0,0,0,0-.943Z" transform="translate(-193.687 -246.261)" fill="#fff"/>
      </g>
    </g>
  </g>
</svg>
