<svg xmlns="http://www.w3.org/2000/svg" viewBox="0 0 16.255 16.254">
  <path id="pen" d="M14.387.625a2.239,2.239,0,0,0-3.163,0l-.792.8L2,9.845l-.018.018s0,.009-.009.009-.022.027-.031.04,0,0,0,.009-.013.022-.022.036,0,.009-.009.013-.009.022-.014.036,0,0,0,.009L.023,15.638a.44.44,0,0,0,.107.456.45.45,0,0,0,.318.13A.528.528,0,0,0,.591,16.2L6.21,14.327s0,0,.009,0a.162.162,0,0,0,.04-.018.016.016,0,0,0,.009,0l.045-.027c.013-.009.027-.022.04-.031s.009,0,.009-.009.014-.009.018-.018L15.6,5a2.238,2.238,0,0,0,0-3.163ZM6.067,13.276,2.953,10.163,10.746,2.37l3.114,3.113ZM2.514,10.99l2.72,2.72L1.15,15.07ZM14.969,4.369l-.474.479L11.381,1.734l.479-.479a1.342,1.342,0,0,1,1.9,0l1.217,1.217a1.346,1.346,0,0,1,0,1.9Zm0,0" transform="translate(0.001 0.029)"/>
</svg>
