<svg xmlns="http://www.w3.org/2000/svg" width="12.77" height="15.306" viewBox="0 0 12.77 15.306">
  <g id="userвв" transform="translate(0 0)">
    <path id="Контур_4703" data-name="Контур 4703" d="M90.718,7.373a3.567,3.567,0,0,0,2.607-1.08,3.567,3.567,0,0,0,1.08-2.607,3.568,3.568,0,0,0-1.08-2.607,3.686,3.686,0,0,0-5.213,0,3.567,3.567,0,0,0-1.08,2.606,3.567,3.567,0,0,0,1.08,2.607A3.568,3.568,0,0,0,90.718,7.373ZM88.746,1.714a2.789,2.789,0,0,1,3.945,0,2.665,2.665,0,0,1,.817,1.972,2.665,2.665,0,0,1-.817,1.972,2.788,2.788,0,0,1-3.945,0,2.665,2.665,0,0,1-.817-1.972A2.665,2.665,0,0,1,88.746,1.714Zm0,0" transform="translate(-84.43)" fill="#3d6ab7"/>
    <path id="Контур_4704" data-name="Контур 4704" d="M12.739,251.693a9.106,9.106,0,0,0-.124-.967,7.621,7.621,0,0,0-.238-.972,4.8,4.8,0,0,0-.4-.907,3.419,3.419,0,0,0-.6-.786,2.658,2.658,0,0,0-.866-.544,2.993,2.993,0,0,0-1.105-.2,1.122,1.122,0,0,0-.6.254c-.18.117-.39.253-.624.4a3.576,3.576,0,0,1-.808.356,3.136,3.136,0,0,1-1.976,0,3.566,3.566,0,0,1-.807-.356c-.232-.148-.442-.284-.625-.4a1.121,1.121,0,0,0-.6-.254,2.989,2.989,0,0,0-1.105.2,2.655,2.655,0,0,0-.866.544,3.418,3.418,0,0,0-.6.785,4.814,4.814,0,0,0-.4.907,7.641,7.641,0,0,0-.238.972,9.044,9.044,0,0,0-.124.968c-.02.292-.031.6-.031.9a2.542,2.542,0,0,0,.755,1.923,2.717,2.717,0,0,0,1.945.709h7.37a2.717,2.717,0,0,0,1.945-.709,2.541,2.541,0,0,0,.755-1.923c0-.308-.011-.613-.031-.9ZM11.4,253.87a1.829,1.829,0,0,1-1.327.462H2.7a1.829,1.829,0,0,1-1.327-.462A1.66,1.66,0,0,1,.9,252.6c0-.287.009-.57.028-.842a8.157,8.157,0,0,1,.112-.871,6.738,6.738,0,0,1,.209-.857,3.919,3.919,0,0,1,.325-.737,2.534,2.534,0,0,1,.443-.581,1.763,1.763,0,0,1,.576-.358,2.064,2.064,0,0,1,.706-.136c.031.017.087.049.178.108.184.12.4.257.632.407a4.446,4.446,0,0,0,1.014.453,4.033,4.033,0,0,0,2.527,0,4.45,4.45,0,0,0,1.014-.453c.24-.154.447-.287.631-.407.091-.059.147-.091.178-.108a2.065,2.065,0,0,1,.707.136,1.765,1.765,0,0,1,.576.358,2.527,2.527,0,0,1,.443.581,3.9,3.9,0,0,1,.325.737,6.72,6.72,0,0,1,.209.857,8.225,8.225,0,0,1,.112.871h0c.019.271.029.554.029.841a1.659,1.659,0,0,1-.476,1.273Zm0,0" transform="translate(0 -239.922)" fill="#3d6ab7"/>
  </g>
</svg>
