<svg id="Сгруппировать_4038" data-name="Сгруппировать 4038" xmlns="http://www.w3.org/2000/svg" width="13.122" height="15.417" viewBox="0 0 13.122 15.417">
  <path id="Контур_4619" data-name="Контур 4619" d="M172.918,157.324l.007-.007.026-.037.015-.026.015-.026.015-.034.007-.019.015-.041v-.011l.015-.056h0a.6.6,0,0,0-.16-.544l-2.983-2.983a.6.6,0,1,0-.843.843l1.969,1.969H164.9a.6.6,0,0,0,0,1.193h6.116l-1.965,1.965a.6.6,0,1,0,.843.843l2.98-2.98Z" transform="translate(-159.926 -149.724)" fill="#275395"/>
  <path id="Контур_4620" data-name="Контур 4620" d="M52.467,70.6H49.088a.97.97,0,0,1-.97-.97V58.388a.97.97,0,0,1,.97-.97h3.394a.559.559,0,0,0,.559-.586.571.571,0,0,0-.574-.533H48.529A1.529,1.529,0,0,0,47,57.828V70.187a1.529,1.529,0,0,0,1.529,1.529h3.953a.559.559,0,0,0,.559-.586A.571.571,0,0,0,52.467,70.6Z" transform="translate(-47 -56.299)" fill="#275395"/>
</svg>
