<?xml version="1.0" encoding="utf-8"?>
<!-- Generator: Adobe Illustrator 21.0.0, SVG Export Plug-In . SVG Version: 6.00 Build 0)  -->
<svg version="1.1" id="Capa_1" xmlns="http://www.w3.org/2000/svg" xmlns:xlink="http://www.w3.org/1999/xlink" x="0px" y="0px"
	 viewBox="0 0 512 512" style="enable-background:new 0 0 512 512;" xml:space="preserve">
<g>
	<g>
		<g>
			<path d="M128,16L128,16c0-8.9-7.1-16-16-16H32C14.3,0,0,14.3,0,32V112c0,8.8,7.1,16,16,16H16c8.8,0,16-7.1,16-16V54.6
				l137.4,137.4c6.2,6.2,16.3,6.2,22.6,0l0,0c6.2-6.2,6.2-16.3,0-22.6L54.6,32H112C120.9,32,128,24.9,128,16z"/>
			<path d="M480,0H400c-8.8,0-16,7.1-16,16V16c0,8.8,7.1,16,16,16h57.5L320.1,169.4c-6.2,6.2-6.2,16.3,0,22.6v0
				c6.2,6.2,16.3,6.2,22.6,0L480,54.6V112c0,8.8,7.1,16,16,16h0.1c8.8,0,16-7.1,16-16V32C512,14.3,497.7,0,480,0z"/>
			<path d="M480,457.4L342.6,320.1c-6.2-6.2-16.3-6.2-22.6,0l0,0c-6.2,6.2-6.2,16.3,0,22.6L457.4,480H400c-8.8,0-16,7.1-16,16v0.1
				c0,8.8,7.1,16,16,16H480c17.6,0,32-14.3,32-32V400c0-8.8-7.1-16-16-16H496c-8.8,0-16,7.1-16,16V457.4z"/>
			<path d="M169.3,320L32,457.4V400c0-8.8-7.1-16-16-16H16c-8.8,0-16,7.1-16,16V480c0,17.6,14.3,32,32,32H112c8.8,0,16-7.1,16-16
				V496c0-8.8-7.1-16-16-16H54.6L192,342.6c6.2-6.2,6.2-16.3,0-22.5l-0.1-0.1C185.7,313.7,175.6,313.7,169.3,320z"/>
		</g>
	</g>
</g>
</svg>
