<svg id="film" xmlns="http://www.w3.org/2000/svg" width="16.294" height="16.294" viewBox="0 0 16.294 16.294">
  <g id="Сгруппировать_4046" data-name="Сгруппировать 4046">
    <g id="Сгруппировать_4045" data-name="Сгруппировать 4045">
      <path id="Контур_4631" data-name="Контур 4631" d="M15.658,14a.636.636,0,0,0,.637-.637V7.256a.637.637,0,0,0-.965-.545l-2.567,1.55a2.546,2.546,0,0,0-1.185-2.137,3.5,3.5,0,1,0-5.816-2.64A2.912,2.912,0,1,0,.982,6.268,2.542,2.542,0,0,0,0,8.275v5.474a2.549,2.549,0,0,0,2.546,2.546h7.67a2.549,2.549,0,0,0,2.546-2.546v-.027l2.571,1.529a.637.637,0,0,0,.962-.547V13.271a.637.637,0,0,0-1.273,0v.313l-2.571-1.529a.637.637,0,0,0-.962.547v1.146a1.274,1.274,0,0,1-1.273,1.273H2.546a1.274,1.274,0,0,1-1.273-1.273V8.275A1.274,1.274,0,0,1,2.546,7h7.67a1.274,1.274,0,0,1,1.273,1.273V9.388a.636.636,0,0,0,.965.545l2.567-1.55v4.983A.636.636,0,0,0,15.658,14ZM2.912,5.729A1.639,1.639,0,1,1,4.551,4.09,1.641,1.641,0,0,1,2.912,5.729Zm2.406,0a2.9,2.9,0,0,0,.505-1.567,3.49,3.49,0,0,0,.74,1.567Zm3.943,0A2.228,2.228,0,1,1,11.489,3.5,2.23,2.23,0,0,1,9.261,5.729Z" fill="#fff"/>
    </g>
  </g>
</svg>
